G04 #@! TF.GenerationSoftware,KiCad,Pcbnew,7.0.1-0*
G04 #@! TF.CreationDate,2023-12-28T22:42:41+01:00*
G04 #@! TF.ProjectId,SSR-Shiled-v1,5353522d-5368-4696-9c65-642d76312e6b,rev?*
G04 #@! TF.SameCoordinates,Original*
G04 #@! TF.FileFunction,Soldermask,Top*
G04 #@! TF.FilePolarity,Negative*
%FSLAX46Y46*%
G04 Gerber Fmt 4.6, Leading zero omitted, Abs format (unit mm)*
G04 Created by KiCad (PCBNEW 7.0.1-0) date 2023-12-28 22:42:41*
%MOMM*%
%LPD*%
G01*
G04 APERTURE LIST*
G04 Aperture macros list*
%AMRoundRect*
0 Rectangle with rounded corners*
0 $1 Rounding radius*
0 $2 $3 $4 $5 $6 $7 $8 $9 X,Y pos of 4 corners*
0 Add a 4 corners polygon primitive as box body*
4,1,4,$2,$3,$4,$5,$6,$7,$8,$9,$2,$3,0*
0 Add four circle primitives for the rounded corners*
1,1,$1+$1,$2,$3*
1,1,$1+$1,$4,$5*
1,1,$1+$1,$6,$7*
1,1,$1+$1,$8,$9*
0 Add four rect primitives between the rounded corners*
20,1,$1+$1,$2,$3,$4,$5,0*
20,1,$1+$1,$4,$5,$6,$7,0*
20,1,$1+$1,$6,$7,$8,$9,0*
20,1,$1+$1,$8,$9,$2,$3,0*%
G04 Aperture macros list end*
%ADD10R,2.000000X3.000000*%
%ADD11R,1.700000X1.700000*%
%ADD12O,1.700000X1.700000*%
%ADD13R,2.730000X6.710000*%
%ADD14R,2.600000X2.600000*%
%ADD15C,2.600000*%
%ADD16RoundRect,0.250000X-0.312500X-0.625000X0.312500X-0.625000X0.312500X0.625000X-0.312500X0.625000X0*%
%ADD17RoundRect,0.250000X0.312500X0.625000X-0.312500X0.625000X-0.312500X-0.625000X0.312500X-0.625000X0*%
%ADD18C,1.300000*%
%ADD19C,1.650000*%
%ADD20RoundRect,0.250000X-0.625000X0.375000X-0.625000X-0.375000X0.625000X-0.375000X0.625000X0.375000X0*%
%ADD21C,2.700000*%
G04 APERTURE END LIST*
D10*
X149400000Y-65550000D03*
X149400000Y-79550000D03*
X156900000Y-79550000D03*
X156900000Y-65550000D03*
D11*
X108370000Y-48770000D03*
D12*
X108370000Y-46230000D03*
X110910000Y-48770000D03*
X110910000Y-46230000D03*
X113450000Y-48770000D03*
X113450000Y-46230000D03*
X115990000Y-48770000D03*
X115990000Y-46230000D03*
X118530000Y-48770000D03*
X118530000Y-46230000D03*
X121070000Y-48770000D03*
X121070000Y-46230000D03*
X123610000Y-48770000D03*
X123610000Y-46230000D03*
X126150000Y-48770000D03*
X126150000Y-46230000D03*
X128690000Y-48770000D03*
X128690000Y-46230000D03*
X131230000Y-48770000D03*
X131230000Y-46230000D03*
X133770000Y-48770000D03*
X133770000Y-46230000D03*
X136310000Y-48770000D03*
X136310000Y-46230000D03*
X138850000Y-48770000D03*
X138850000Y-46230000D03*
X141390000Y-48770000D03*
X141390000Y-46230000D03*
X143930000Y-48770000D03*
X143930000Y-46230000D03*
X146470000Y-48770000D03*
X146470000Y-46230000D03*
X149010000Y-48770000D03*
X149010000Y-46230000D03*
X151550000Y-48770000D03*
X151550000Y-46230000D03*
X154090000Y-48770000D03*
X154090000Y-46230000D03*
X156630000Y-48770000D03*
X156630000Y-46230000D03*
D13*
X122860000Y-85442500D03*
X115880000Y-85442500D03*
X122860000Y-66340000D03*
X115880000Y-66340000D03*
D14*
X106350000Y-79092500D03*
D15*
X106350000Y-84092500D03*
D14*
X106350000Y-60710000D03*
D15*
X106350000Y-65710000D03*
D16*
X136830000Y-68250000D03*
X133905000Y-68250000D03*
X136830000Y-86712500D03*
X133905000Y-86712500D03*
D17*
X133905000Y-84172500D03*
X136830000Y-84172500D03*
X133905000Y-65710000D03*
X136830000Y-65710000D03*
D18*
X134290000Y-78410000D03*
X131750000Y-78410000D03*
D19*
X121590000Y-78410000D03*
X116510000Y-78410000D03*
D20*
X127940000Y-84172500D03*
X127940000Y-86972500D03*
X127940000Y-65580000D03*
X127940000Y-68380000D03*
D18*
X134290000Y-59360000D03*
X131750000Y-59360000D03*
D19*
X121590000Y-59360000D03*
X116510000Y-59360000D03*
D21*
X161500000Y-47500000D03*
X103500000Y-96500000D03*
X103500000Y-47500000D03*
X161500000Y-96500000D03*
M02*
