%TF.GenerationSoftware,KiCad,Pcbnew,7.0.1-0*%
%TF.CreationDate,2023-12-28T22:42:47+01:00*%
%TF.ProjectId,SSR-Shiled-v1,5353522d-5368-4696-9c65-642d76312e6b,rev?*%
%TF.SameCoordinates,Original*%
%TF.FileFunction,Drillmap*%
%TF.FilePolarity,Positive*%
%FSLAX45Y45*%
G04 Gerber Fmt 4.5, Leading zero omitted, Abs format (unit mm)*
G04 Created by KiCad (PCBNEW 7.0.1-0) date 2023-12-28 22:42:47*
%MOMM*%
%LPD*%
G01*
G04 APERTURE LIST*
%ADD10C,0.100000*%
%ADD11C,0.200000*%
%ADD12C,0.270000*%
G04 APERTURE END LIST*
D10*
X16500000Y-4700000D02*
G75*
G03*
X16200000Y-4400000I-300000J0D01*
G01*
X16500000Y-9700000D02*
X16500000Y-4700000D01*
X10000000Y-4700000D02*
X10000000Y-9700000D01*
X10000000Y-9700000D02*
G75*
G03*
X10300000Y-10000000I300000J0D01*
G01*
X10300000Y-10000000D02*
X16200000Y-10000000D01*
X16200000Y-10000000D02*
G75*
G03*
X16500000Y-9700000I0J300000D01*
G01*
X10300000Y-4400000D02*
G75*
G03*
X10000000Y-4700000I0J-300000D01*
G01*
X16200000Y-4400000D02*
X10300000Y-4400000D01*
D11*
D12*
X10215000Y-4615000D02*
X10485000Y-4885000D01*
X10485000Y-4615000D02*
X10215000Y-4885000D01*
X10215000Y-9515000D02*
X10485000Y-9785000D01*
X10485000Y-9515000D02*
X10215000Y-9785000D01*
X16015000Y-4615000D02*
X16285000Y-4885000D01*
X16285000Y-4615000D02*
X16015000Y-4885000D01*
X16015000Y-9515000D02*
X16285000Y-9785000D01*
X16285000Y-9515000D02*
X16015000Y-9785000D01*
D11*
X10242619Y-10317524D02*
X10242619Y-10117524D01*
X10242619Y-10117524D02*
X10290238Y-10117524D01*
X10290238Y-10117524D02*
X10318810Y-10127048D01*
X10318810Y-10127048D02*
X10337857Y-10146095D01*
X10337857Y-10146095D02*
X10347381Y-10165143D01*
X10347381Y-10165143D02*
X10356905Y-10203238D01*
X10356905Y-10203238D02*
X10356905Y-10231810D01*
X10356905Y-10231810D02*
X10347381Y-10269905D01*
X10347381Y-10269905D02*
X10337857Y-10288952D01*
X10337857Y-10288952D02*
X10318810Y-10308000D01*
X10318810Y-10308000D02*
X10290238Y-10317524D01*
X10290238Y-10317524D02*
X10242619Y-10317524D01*
X10442619Y-10317524D02*
X10442619Y-10184190D01*
X10442619Y-10222286D02*
X10452143Y-10203238D01*
X10452143Y-10203238D02*
X10461667Y-10193714D01*
X10461667Y-10193714D02*
X10480714Y-10184190D01*
X10480714Y-10184190D02*
X10499762Y-10184190D01*
X10566429Y-10317524D02*
X10566429Y-10184190D01*
X10566429Y-10117524D02*
X10556905Y-10127048D01*
X10556905Y-10127048D02*
X10566429Y-10136571D01*
X10566429Y-10136571D02*
X10575952Y-10127048D01*
X10575952Y-10127048D02*
X10566429Y-10117524D01*
X10566429Y-10117524D02*
X10566429Y-10136571D01*
X10690238Y-10317524D02*
X10671190Y-10308000D01*
X10671190Y-10308000D02*
X10661667Y-10288952D01*
X10661667Y-10288952D02*
X10661667Y-10117524D01*
X10795000Y-10317524D02*
X10775952Y-10308000D01*
X10775952Y-10308000D02*
X10766429Y-10288952D01*
X10766429Y-10288952D02*
X10766429Y-10117524D01*
X11023571Y-10317524D02*
X11023571Y-10117524D01*
X11023571Y-10117524D02*
X11090238Y-10260381D01*
X11090238Y-10260381D02*
X11156905Y-10117524D01*
X11156905Y-10117524D02*
X11156905Y-10317524D01*
X11337857Y-10317524D02*
X11337857Y-10212762D01*
X11337857Y-10212762D02*
X11328333Y-10193714D01*
X11328333Y-10193714D02*
X11309286Y-10184190D01*
X11309286Y-10184190D02*
X11271190Y-10184190D01*
X11271190Y-10184190D02*
X11252143Y-10193714D01*
X11337857Y-10308000D02*
X11318809Y-10317524D01*
X11318809Y-10317524D02*
X11271190Y-10317524D01*
X11271190Y-10317524D02*
X11252143Y-10308000D01*
X11252143Y-10308000D02*
X11242619Y-10288952D01*
X11242619Y-10288952D02*
X11242619Y-10269905D01*
X11242619Y-10269905D02*
X11252143Y-10250857D01*
X11252143Y-10250857D02*
X11271190Y-10241333D01*
X11271190Y-10241333D02*
X11318809Y-10241333D01*
X11318809Y-10241333D02*
X11337857Y-10231810D01*
X11433095Y-10184190D02*
X11433095Y-10384190D01*
X11433095Y-10193714D02*
X11452143Y-10184190D01*
X11452143Y-10184190D02*
X11490238Y-10184190D01*
X11490238Y-10184190D02*
X11509286Y-10193714D01*
X11509286Y-10193714D02*
X11518809Y-10203238D01*
X11518809Y-10203238D02*
X11528333Y-10222286D01*
X11528333Y-10222286D02*
X11528333Y-10279429D01*
X11528333Y-10279429D02*
X11518809Y-10298476D01*
X11518809Y-10298476D02*
X11509286Y-10308000D01*
X11509286Y-10308000D02*
X11490238Y-10317524D01*
X11490238Y-10317524D02*
X11452143Y-10317524D01*
X11452143Y-10317524D02*
X11433095Y-10308000D01*
X11614048Y-10298476D02*
X11623571Y-10308000D01*
X11623571Y-10308000D02*
X11614048Y-10317524D01*
X11614048Y-10317524D02*
X11604524Y-10308000D01*
X11604524Y-10308000D02*
X11614048Y-10298476D01*
X11614048Y-10298476D02*
X11614048Y-10317524D01*
X11614048Y-10193714D02*
X11623571Y-10203238D01*
X11623571Y-10203238D02*
X11614048Y-10212762D01*
X11614048Y-10212762D02*
X11604524Y-10203238D01*
X11604524Y-10203238D02*
X11614048Y-10193714D01*
X11614048Y-10193714D02*
X11614048Y-10212762D01*
X9795000Y-10545000D02*
X9995000Y-10745000D01*
X9995000Y-10545000D02*
X9795000Y-10745000D01*
X10233095Y-10556571D02*
X10242619Y-10547048D01*
X10242619Y-10547048D02*
X10261667Y-10537524D01*
X10261667Y-10537524D02*
X10309286Y-10537524D01*
X10309286Y-10537524D02*
X10328333Y-10547048D01*
X10328333Y-10547048D02*
X10337857Y-10556571D01*
X10337857Y-10556571D02*
X10347381Y-10575619D01*
X10347381Y-10575619D02*
X10347381Y-10594667D01*
X10347381Y-10594667D02*
X10337857Y-10623238D01*
X10337857Y-10623238D02*
X10223571Y-10737524D01*
X10223571Y-10737524D02*
X10347381Y-10737524D01*
X10433095Y-10718476D02*
X10442619Y-10728000D01*
X10442619Y-10728000D02*
X10433095Y-10737524D01*
X10433095Y-10737524D02*
X10423571Y-10728000D01*
X10423571Y-10728000D02*
X10433095Y-10718476D01*
X10433095Y-10718476D02*
X10433095Y-10737524D01*
X10509286Y-10537524D02*
X10642619Y-10537524D01*
X10642619Y-10537524D02*
X10556905Y-10737524D01*
X10756905Y-10537524D02*
X10775952Y-10537524D01*
X10775952Y-10537524D02*
X10795000Y-10547048D01*
X10795000Y-10547048D02*
X10804524Y-10556571D01*
X10804524Y-10556571D02*
X10814048Y-10575619D01*
X10814048Y-10575619D02*
X10823571Y-10613714D01*
X10823571Y-10613714D02*
X10823571Y-10661333D01*
X10823571Y-10661333D02*
X10814048Y-10699429D01*
X10814048Y-10699429D02*
X10804524Y-10718476D01*
X10804524Y-10718476D02*
X10795000Y-10728000D01*
X10795000Y-10728000D02*
X10775952Y-10737524D01*
X10775952Y-10737524D02*
X10756905Y-10737524D01*
X10756905Y-10737524D02*
X10737857Y-10728000D01*
X10737857Y-10728000D02*
X10728333Y-10718476D01*
X10728333Y-10718476D02*
X10718810Y-10699429D01*
X10718810Y-10699429D02*
X10709286Y-10661333D01*
X10709286Y-10661333D02*
X10709286Y-10613714D01*
X10709286Y-10613714D02*
X10718810Y-10575619D01*
X10718810Y-10575619D02*
X10728333Y-10556571D01*
X10728333Y-10556571D02*
X10737857Y-10547048D01*
X10737857Y-10547048D02*
X10756905Y-10537524D01*
X10947381Y-10537524D02*
X10966429Y-10537524D01*
X10966429Y-10537524D02*
X10985476Y-10547048D01*
X10985476Y-10547048D02*
X10995000Y-10556571D01*
X10995000Y-10556571D02*
X11004524Y-10575619D01*
X11004524Y-10575619D02*
X11014048Y-10613714D01*
X11014048Y-10613714D02*
X11014048Y-10661333D01*
X11014048Y-10661333D02*
X11004524Y-10699429D01*
X11004524Y-10699429D02*
X10995000Y-10718476D01*
X10995000Y-10718476D02*
X10985476Y-10728000D01*
X10985476Y-10728000D02*
X10966429Y-10737524D01*
X10966429Y-10737524D02*
X10947381Y-10737524D01*
X10947381Y-10737524D02*
X10928333Y-10728000D01*
X10928333Y-10728000D02*
X10918810Y-10718476D01*
X10918810Y-10718476D02*
X10909286Y-10699429D01*
X10909286Y-10699429D02*
X10899762Y-10661333D01*
X10899762Y-10661333D02*
X10899762Y-10613714D01*
X10899762Y-10613714D02*
X10909286Y-10575619D01*
X10909286Y-10575619D02*
X10918810Y-10556571D01*
X10918810Y-10556571D02*
X10928333Y-10547048D01*
X10928333Y-10547048D02*
X10947381Y-10537524D01*
X11099762Y-10737524D02*
X11099762Y-10604190D01*
X11099762Y-10623238D02*
X11109286Y-10613714D01*
X11109286Y-10613714D02*
X11128333Y-10604190D01*
X11128333Y-10604190D02*
X11156905Y-10604190D01*
X11156905Y-10604190D02*
X11175952Y-10613714D01*
X11175952Y-10613714D02*
X11185476Y-10632762D01*
X11185476Y-10632762D02*
X11185476Y-10737524D01*
X11185476Y-10632762D02*
X11195000Y-10613714D01*
X11195000Y-10613714D02*
X11214048Y-10604190D01*
X11214048Y-10604190D02*
X11242619Y-10604190D01*
X11242619Y-10604190D02*
X11261667Y-10613714D01*
X11261667Y-10613714D02*
X11271190Y-10632762D01*
X11271190Y-10632762D02*
X11271190Y-10737524D01*
X11366429Y-10737524D02*
X11366429Y-10604190D01*
X11366429Y-10623238D02*
X11375952Y-10613714D01*
X11375952Y-10613714D02*
X11395000Y-10604190D01*
X11395000Y-10604190D02*
X11423571Y-10604190D01*
X11423571Y-10604190D02*
X11442619Y-10613714D01*
X11442619Y-10613714D02*
X11452143Y-10632762D01*
X11452143Y-10632762D02*
X11452143Y-10737524D01*
X11452143Y-10632762D02*
X11461667Y-10613714D01*
X11461667Y-10613714D02*
X11480714Y-10604190D01*
X11480714Y-10604190D02*
X11509286Y-10604190D01*
X11509286Y-10604190D02*
X11528333Y-10613714D01*
X11528333Y-10613714D02*
X11537857Y-10632762D01*
X11537857Y-10632762D02*
X11537857Y-10737524D01*
X11928333Y-10528000D02*
X11756905Y-10785143D01*
X12185476Y-10537524D02*
X12204524Y-10537524D01*
X12204524Y-10537524D02*
X12223572Y-10547048D01*
X12223572Y-10547048D02*
X12233095Y-10556571D01*
X12233095Y-10556571D02*
X12242619Y-10575619D01*
X12242619Y-10575619D02*
X12252143Y-10613714D01*
X12252143Y-10613714D02*
X12252143Y-10661333D01*
X12252143Y-10661333D02*
X12242619Y-10699429D01*
X12242619Y-10699429D02*
X12233095Y-10718476D01*
X12233095Y-10718476D02*
X12223572Y-10728000D01*
X12223572Y-10728000D02*
X12204524Y-10737524D01*
X12204524Y-10737524D02*
X12185476Y-10737524D01*
X12185476Y-10737524D02*
X12166429Y-10728000D01*
X12166429Y-10728000D02*
X12156905Y-10718476D01*
X12156905Y-10718476D02*
X12147381Y-10699429D01*
X12147381Y-10699429D02*
X12137857Y-10661333D01*
X12137857Y-10661333D02*
X12137857Y-10613714D01*
X12137857Y-10613714D02*
X12147381Y-10575619D01*
X12147381Y-10575619D02*
X12156905Y-10556571D01*
X12156905Y-10556571D02*
X12166429Y-10547048D01*
X12166429Y-10547048D02*
X12185476Y-10537524D01*
X12337857Y-10718476D02*
X12347381Y-10728000D01*
X12347381Y-10728000D02*
X12337857Y-10737524D01*
X12337857Y-10737524D02*
X12328333Y-10728000D01*
X12328333Y-10728000D02*
X12337857Y-10718476D01*
X12337857Y-10718476D02*
X12337857Y-10737524D01*
X12537857Y-10737524D02*
X12423572Y-10737524D01*
X12480714Y-10737524D02*
X12480714Y-10537524D01*
X12480714Y-10537524D02*
X12461667Y-10566095D01*
X12461667Y-10566095D02*
X12442619Y-10585143D01*
X12442619Y-10585143D02*
X12423572Y-10594667D01*
X12661667Y-10537524D02*
X12680714Y-10537524D01*
X12680714Y-10537524D02*
X12699762Y-10547048D01*
X12699762Y-10547048D02*
X12709286Y-10556571D01*
X12709286Y-10556571D02*
X12718810Y-10575619D01*
X12718810Y-10575619D02*
X12728333Y-10613714D01*
X12728333Y-10613714D02*
X12728333Y-10661333D01*
X12728333Y-10661333D02*
X12718810Y-10699429D01*
X12718810Y-10699429D02*
X12709286Y-10718476D01*
X12709286Y-10718476D02*
X12699762Y-10728000D01*
X12699762Y-10728000D02*
X12680714Y-10737524D01*
X12680714Y-10737524D02*
X12661667Y-10737524D01*
X12661667Y-10737524D02*
X12642619Y-10728000D01*
X12642619Y-10728000D02*
X12633095Y-10718476D01*
X12633095Y-10718476D02*
X12623572Y-10699429D01*
X12623572Y-10699429D02*
X12614048Y-10661333D01*
X12614048Y-10661333D02*
X12614048Y-10613714D01*
X12614048Y-10613714D02*
X12623572Y-10575619D01*
X12623572Y-10575619D02*
X12633095Y-10556571D01*
X12633095Y-10556571D02*
X12642619Y-10547048D01*
X12642619Y-10547048D02*
X12661667Y-10537524D01*
X12899762Y-10537524D02*
X12861667Y-10537524D01*
X12861667Y-10537524D02*
X12842619Y-10547048D01*
X12842619Y-10547048D02*
X12833095Y-10556571D01*
X12833095Y-10556571D02*
X12814048Y-10585143D01*
X12814048Y-10585143D02*
X12804524Y-10623238D01*
X12804524Y-10623238D02*
X12804524Y-10699429D01*
X12804524Y-10699429D02*
X12814048Y-10718476D01*
X12814048Y-10718476D02*
X12823572Y-10728000D01*
X12823572Y-10728000D02*
X12842619Y-10737524D01*
X12842619Y-10737524D02*
X12880714Y-10737524D01*
X12880714Y-10737524D02*
X12899762Y-10728000D01*
X12899762Y-10728000D02*
X12909286Y-10718476D01*
X12909286Y-10718476D02*
X12918810Y-10699429D01*
X12918810Y-10699429D02*
X12918810Y-10651810D01*
X12918810Y-10651810D02*
X12909286Y-10632762D01*
X12909286Y-10632762D02*
X12899762Y-10623238D01*
X12899762Y-10623238D02*
X12880714Y-10613714D01*
X12880714Y-10613714D02*
X12842619Y-10613714D01*
X12842619Y-10613714D02*
X12823572Y-10623238D01*
X12823572Y-10623238D02*
X12814048Y-10632762D01*
X12814048Y-10632762D02*
X12804524Y-10651810D01*
X12985476Y-10537524D02*
X13109286Y-10537524D01*
X13109286Y-10537524D02*
X13042619Y-10613714D01*
X13042619Y-10613714D02*
X13071191Y-10613714D01*
X13071191Y-10613714D02*
X13090238Y-10623238D01*
X13090238Y-10623238D02*
X13099762Y-10632762D01*
X13099762Y-10632762D02*
X13109286Y-10651810D01*
X13109286Y-10651810D02*
X13109286Y-10699429D01*
X13109286Y-10699429D02*
X13099762Y-10718476D01*
X13099762Y-10718476D02*
X13090238Y-10728000D01*
X13090238Y-10728000D02*
X13071191Y-10737524D01*
X13071191Y-10737524D02*
X13014048Y-10737524D01*
X13014048Y-10737524D02*
X12995000Y-10728000D01*
X12995000Y-10728000D02*
X12985476Y-10718476D01*
X13185476Y-10537524D02*
X13185476Y-10575619D01*
X13261667Y-10537524D02*
X13261667Y-10575619D01*
X13556905Y-10813714D02*
X13547381Y-10804190D01*
X13547381Y-10804190D02*
X13528334Y-10775619D01*
X13528334Y-10775619D02*
X13518810Y-10756571D01*
X13518810Y-10756571D02*
X13509286Y-10728000D01*
X13509286Y-10728000D02*
X13499762Y-10680381D01*
X13499762Y-10680381D02*
X13499762Y-10642286D01*
X13499762Y-10642286D02*
X13509286Y-10594667D01*
X13509286Y-10594667D02*
X13518810Y-10566095D01*
X13518810Y-10566095D02*
X13528334Y-10547048D01*
X13528334Y-10547048D02*
X13547381Y-10518476D01*
X13547381Y-10518476D02*
X13556905Y-10508952D01*
X13718810Y-10604190D02*
X13718810Y-10737524D01*
X13671191Y-10528000D02*
X13623572Y-10670857D01*
X13623572Y-10670857D02*
X13747381Y-10670857D01*
X13975953Y-10737524D02*
X13975953Y-10537524D01*
X14061667Y-10737524D02*
X14061667Y-10632762D01*
X14061667Y-10632762D02*
X14052143Y-10613714D01*
X14052143Y-10613714D02*
X14033096Y-10604190D01*
X14033096Y-10604190D02*
X14004524Y-10604190D01*
X14004524Y-10604190D02*
X13985476Y-10613714D01*
X13985476Y-10613714D02*
X13975953Y-10623238D01*
X14185476Y-10737524D02*
X14166429Y-10728000D01*
X14166429Y-10728000D02*
X14156905Y-10718476D01*
X14156905Y-10718476D02*
X14147381Y-10699429D01*
X14147381Y-10699429D02*
X14147381Y-10642286D01*
X14147381Y-10642286D02*
X14156905Y-10623238D01*
X14156905Y-10623238D02*
X14166429Y-10613714D01*
X14166429Y-10613714D02*
X14185476Y-10604190D01*
X14185476Y-10604190D02*
X14214048Y-10604190D01*
X14214048Y-10604190D02*
X14233096Y-10613714D01*
X14233096Y-10613714D02*
X14242619Y-10623238D01*
X14242619Y-10623238D02*
X14252143Y-10642286D01*
X14252143Y-10642286D02*
X14252143Y-10699429D01*
X14252143Y-10699429D02*
X14242619Y-10718476D01*
X14242619Y-10718476D02*
X14233096Y-10728000D01*
X14233096Y-10728000D02*
X14214048Y-10737524D01*
X14214048Y-10737524D02*
X14185476Y-10737524D01*
X14366429Y-10737524D02*
X14347381Y-10728000D01*
X14347381Y-10728000D02*
X14337857Y-10708952D01*
X14337857Y-10708952D02*
X14337857Y-10537524D01*
X14518810Y-10728000D02*
X14499762Y-10737524D01*
X14499762Y-10737524D02*
X14461667Y-10737524D01*
X14461667Y-10737524D02*
X14442619Y-10728000D01*
X14442619Y-10728000D02*
X14433096Y-10708952D01*
X14433096Y-10708952D02*
X14433096Y-10632762D01*
X14433096Y-10632762D02*
X14442619Y-10613714D01*
X14442619Y-10613714D02*
X14461667Y-10604190D01*
X14461667Y-10604190D02*
X14499762Y-10604190D01*
X14499762Y-10604190D02*
X14518810Y-10613714D01*
X14518810Y-10613714D02*
X14528334Y-10632762D01*
X14528334Y-10632762D02*
X14528334Y-10651810D01*
X14528334Y-10651810D02*
X14433096Y-10670857D01*
X14604524Y-10728000D02*
X14623572Y-10737524D01*
X14623572Y-10737524D02*
X14661667Y-10737524D01*
X14661667Y-10737524D02*
X14680715Y-10728000D01*
X14680715Y-10728000D02*
X14690238Y-10708952D01*
X14690238Y-10708952D02*
X14690238Y-10699429D01*
X14690238Y-10699429D02*
X14680715Y-10680381D01*
X14680715Y-10680381D02*
X14661667Y-10670857D01*
X14661667Y-10670857D02*
X14633096Y-10670857D01*
X14633096Y-10670857D02*
X14614048Y-10661333D01*
X14614048Y-10661333D02*
X14604524Y-10642286D01*
X14604524Y-10642286D02*
X14604524Y-10632762D01*
X14604524Y-10632762D02*
X14614048Y-10613714D01*
X14614048Y-10613714D02*
X14633096Y-10604190D01*
X14633096Y-10604190D02*
X14661667Y-10604190D01*
X14661667Y-10604190D02*
X14680715Y-10613714D01*
X14756905Y-10813714D02*
X14766429Y-10804190D01*
X14766429Y-10804190D02*
X14785477Y-10775619D01*
X14785477Y-10775619D02*
X14795000Y-10756571D01*
X14795000Y-10756571D02*
X14804524Y-10728000D01*
X14804524Y-10728000D02*
X14814048Y-10680381D01*
X14814048Y-10680381D02*
X14814048Y-10642286D01*
X14814048Y-10642286D02*
X14804524Y-10594667D01*
X14804524Y-10594667D02*
X14795000Y-10566095D01*
X14795000Y-10566095D02*
X14785477Y-10547048D01*
X14785477Y-10547048D02*
X14766429Y-10518476D01*
X14766429Y-10518476D02*
X14756905Y-10508952D01*
X15118810Y-10813714D02*
X15109286Y-10804190D01*
X15109286Y-10804190D02*
X15090238Y-10775619D01*
X15090238Y-10775619D02*
X15080715Y-10756571D01*
X15080715Y-10756571D02*
X15071191Y-10728000D01*
X15071191Y-10728000D02*
X15061667Y-10680381D01*
X15061667Y-10680381D02*
X15061667Y-10642286D01*
X15061667Y-10642286D02*
X15071191Y-10594667D01*
X15071191Y-10594667D02*
X15080715Y-10566095D01*
X15080715Y-10566095D02*
X15090238Y-10547048D01*
X15090238Y-10547048D02*
X15109286Y-10518476D01*
X15109286Y-10518476D02*
X15118810Y-10508952D01*
X15195000Y-10604190D02*
X15195000Y-10737524D01*
X15195000Y-10623238D02*
X15204524Y-10613714D01*
X15204524Y-10613714D02*
X15223572Y-10604190D01*
X15223572Y-10604190D02*
X15252143Y-10604190D01*
X15252143Y-10604190D02*
X15271191Y-10613714D01*
X15271191Y-10613714D02*
X15280715Y-10632762D01*
X15280715Y-10632762D02*
X15280715Y-10737524D01*
X15404524Y-10737524D02*
X15385477Y-10728000D01*
X15385477Y-10728000D02*
X15375953Y-10718476D01*
X15375953Y-10718476D02*
X15366429Y-10699429D01*
X15366429Y-10699429D02*
X15366429Y-10642286D01*
X15366429Y-10642286D02*
X15375953Y-10623238D01*
X15375953Y-10623238D02*
X15385477Y-10613714D01*
X15385477Y-10613714D02*
X15404524Y-10604190D01*
X15404524Y-10604190D02*
X15433096Y-10604190D01*
X15433096Y-10604190D02*
X15452143Y-10613714D01*
X15452143Y-10613714D02*
X15461667Y-10623238D01*
X15461667Y-10623238D02*
X15471191Y-10642286D01*
X15471191Y-10642286D02*
X15471191Y-10699429D01*
X15471191Y-10699429D02*
X15461667Y-10718476D01*
X15461667Y-10718476D02*
X15452143Y-10728000D01*
X15452143Y-10728000D02*
X15433096Y-10737524D01*
X15433096Y-10737524D02*
X15404524Y-10737524D01*
X15528334Y-10604190D02*
X15604524Y-10604190D01*
X15556905Y-10537524D02*
X15556905Y-10708952D01*
X15556905Y-10708952D02*
X15566429Y-10728000D01*
X15566429Y-10728000D02*
X15585477Y-10737524D01*
X15585477Y-10737524D02*
X15604524Y-10737524D01*
X15823572Y-10604190D02*
X15823572Y-10804190D01*
X15823572Y-10613714D02*
X15842619Y-10604190D01*
X15842619Y-10604190D02*
X15880715Y-10604190D01*
X15880715Y-10604190D02*
X15899762Y-10613714D01*
X15899762Y-10613714D02*
X15909286Y-10623238D01*
X15909286Y-10623238D02*
X15918810Y-10642286D01*
X15918810Y-10642286D02*
X15918810Y-10699429D01*
X15918810Y-10699429D02*
X15909286Y-10718476D01*
X15909286Y-10718476D02*
X15899762Y-10728000D01*
X15899762Y-10728000D02*
X15880715Y-10737524D01*
X15880715Y-10737524D02*
X15842619Y-10737524D01*
X15842619Y-10737524D02*
X15823572Y-10728000D01*
X16033096Y-10737524D02*
X16014048Y-10728000D01*
X16014048Y-10728000D02*
X16004524Y-10708952D01*
X16004524Y-10708952D02*
X16004524Y-10537524D01*
X16195000Y-10737524D02*
X16195000Y-10632762D01*
X16195000Y-10632762D02*
X16185477Y-10613714D01*
X16185477Y-10613714D02*
X16166429Y-10604190D01*
X16166429Y-10604190D02*
X16128334Y-10604190D01*
X16128334Y-10604190D02*
X16109286Y-10613714D01*
X16195000Y-10728000D02*
X16175953Y-10737524D01*
X16175953Y-10737524D02*
X16128334Y-10737524D01*
X16128334Y-10737524D02*
X16109286Y-10728000D01*
X16109286Y-10728000D02*
X16099762Y-10708952D01*
X16099762Y-10708952D02*
X16099762Y-10689905D01*
X16099762Y-10689905D02*
X16109286Y-10670857D01*
X16109286Y-10670857D02*
X16128334Y-10661333D01*
X16128334Y-10661333D02*
X16175953Y-10661333D01*
X16175953Y-10661333D02*
X16195000Y-10651810D01*
X16261667Y-10604190D02*
X16337858Y-10604190D01*
X16290239Y-10537524D02*
X16290239Y-10708952D01*
X16290239Y-10708952D02*
X16299762Y-10728000D01*
X16299762Y-10728000D02*
X16318810Y-10737524D01*
X16318810Y-10737524D02*
X16337858Y-10737524D01*
X16480715Y-10728000D02*
X16461667Y-10737524D01*
X16461667Y-10737524D02*
X16423572Y-10737524D01*
X16423572Y-10737524D02*
X16404524Y-10728000D01*
X16404524Y-10728000D02*
X16395000Y-10708952D01*
X16395000Y-10708952D02*
X16395000Y-10632762D01*
X16395000Y-10632762D02*
X16404524Y-10613714D01*
X16404524Y-10613714D02*
X16423572Y-10604190D01*
X16423572Y-10604190D02*
X16461667Y-10604190D01*
X16461667Y-10604190D02*
X16480715Y-10613714D01*
X16480715Y-10613714D02*
X16490239Y-10632762D01*
X16490239Y-10632762D02*
X16490239Y-10651810D01*
X16490239Y-10651810D02*
X16395000Y-10670857D01*
X16661667Y-10737524D02*
X16661667Y-10537524D01*
X16661667Y-10728000D02*
X16642620Y-10737524D01*
X16642620Y-10737524D02*
X16604524Y-10737524D01*
X16604524Y-10737524D02*
X16585477Y-10728000D01*
X16585477Y-10728000D02*
X16575953Y-10718476D01*
X16575953Y-10718476D02*
X16566429Y-10699429D01*
X16566429Y-10699429D02*
X16566429Y-10642286D01*
X16566429Y-10642286D02*
X16575953Y-10623238D01*
X16575953Y-10623238D02*
X16585477Y-10613714D01*
X16585477Y-10613714D02*
X16604524Y-10604190D01*
X16604524Y-10604190D02*
X16642620Y-10604190D01*
X16642620Y-10604190D02*
X16661667Y-10613714D01*
X16737858Y-10813714D02*
X16747381Y-10804190D01*
X16747381Y-10804190D02*
X16766429Y-10775619D01*
X16766429Y-10775619D02*
X16775953Y-10756571D01*
X16775953Y-10756571D02*
X16785477Y-10728000D01*
X16785477Y-10728000D02*
X16795001Y-10680381D01*
X16795001Y-10680381D02*
X16795001Y-10642286D01*
X16795001Y-10642286D02*
X16785477Y-10594667D01*
X16785477Y-10594667D02*
X16775953Y-10566095D01*
X16775953Y-10566095D02*
X16766429Y-10547048D01*
X16766429Y-10547048D02*
X16747381Y-10518476D01*
X16747381Y-10518476D02*
X16737858Y-10508952D01*
M02*
