G04 #@! TF.GenerationSoftware,KiCad,Pcbnew,7.0.1-0*
G04 #@! TF.CreationDate,2023-12-28T22:42:41+01:00*
G04 #@! TF.ProjectId,SSR-Shiled-v1,5353522d-5368-4696-9c65-642d76312e6b,rev?*
G04 #@! TF.SameCoordinates,Original*
G04 #@! TF.FileFunction,Legend,Bot*
G04 #@! TF.FilePolarity,Positive*
%FSLAX46Y46*%
G04 Gerber Fmt 4.6, Leading zero omitted, Abs format (unit mm)*
G04 Created by KiCad (PCBNEW 7.0.1-0) date 2023-12-28 22:42:41*
%MOMM*%
%LPD*%
G01*
G04 APERTURE LIST*
%ADD10C,0.150000*%
%ADD11C,0.120000*%
%ADD12R,1.700000X1.700000*%
%ADD13O,1.700000X1.700000*%
%ADD14R,2.600000X2.600000*%
%ADD15C,2.600000*%
%ADD16C,1.300000*%
%ADD17C,1.650000*%
%ADD18C,2.700000*%
G04 APERTURE END LIST*
D10*
X108703333Y-50732619D02*
X108703333Y-51446904D01*
X108703333Y-51446904D02*
X108750952Y-51589761D01*
X108750952Y-51589761D02*
X108846190Y-51685000D01*
X108846190Y-51685000D02*
X108989047Y-51732619D01*
X108989047Y-51732619D02*
X109084285Y-51732619D01*
X107703333Y-51732619D02*
X108274761Y-51732619D01*
X107989047Y-51732619D02*
X107989047Y-50732619D01*
X107989047Y-50732619D02*
X108084285Y-50875476D01*
X108084285Y-50875476D02*
X108179523Y-50970714D01*
X108179523Y-50970714D02*
X108274761Y-51018333D01*
D11*
X157960000Y-44900000D02*
X157960000Y-50100000D01*
X107040000Y-44900000D02*
X157960000Y-44900000D01*
X107040000Y-44900000D02*
X107040000Y-47500000D01*
X109640000Y-47500000D02*
X109640000Y-50100000D01*
X107040000Y-47500000D02*
X109640000Y-47500000D01*
X107040000Y-48770000D02*
X107040000Y-50100000D01*
X109640000Y-50100000D02*
X157960000Y-50100000D01*
X107040000Y-50100000D02*
X108370000Y-50100000D01*
%LPC*%
D12*
X108370000Y-48770000D03*
D13*
X108370000Y-46230000D03*
X110910000Y-48770000D03*
X110910000Y-46230000D03*
X113450000Y-48770000D03*
X113450000Y-46230000D03*
X115990000Y-48770000D03*
X115990000Y-46230000D03*
X118530000Y-48770000D03*
X118530000Y-46230000D03*
X121070000Y-48770000D03*
X121070000Y-46230000D03*
X123610000Y-48770000D03*
X123610000Y-46230000D03*
X126150000Y-48770000D03*
X126150000Y-46230000D03*
X128690000Y-48770000D03*
X128690000Y-46230000D03*
X131230000Y-48770000D03*
X131230000Y-46230000D03*
X133770000Y-48770000D03*
X133770000Y-46230000D03*
X136310000Y-48770000D03*
X136310000Y-46230000D03*
X138850000Y-48770000D03*
X138850000Y-46230000D03*
X141390000Y-48770000D03*
X141390000Y-46230000D03*
X143930000Y-48770000D03*
X143930000Y-46230000D03*
X146470000Y-48770000D03*
X146470000Y-46230000D03*
X149010000Y-48770000D03*
X149010000Y-46230000D03*
X151550000Y-48770000D03*
X151550000Y-46230000D03*
X154090000Y-48770000D03*
X154090000Y-46230000D03*
X156630000Y-48770000D03*
X156630000Y-46230000D03*
D14*
X106350000Y-79092500D03*
D15*
X106350000Y-84092500D03*
D14*
X106350000Y-60710000D03*
D15*
X106350000Y-65710000D03*
D16*
X134290000Y-78410000D03*
X131750000Y-78410000D03*
D17*
X121590000Y-78410000D03*
X116510000Y-78410000D03*
D16*
X134290000Y-59360000D03*
X131750000Y-59360000D03*
D17*
X121590000Y-59360000D03*
X116510000Y-59360000D03*
D18*
X161500000Y-47500000D03*
X103500000Y-96500000D03*
X103500000Y-47500000D03*
X161500000Y-96500000D03*
M02*
