G04 #@! TF.GenerationSoftware,KiCad,Pcbnew,7.0.1-0*
G04 #@! TF.CreationDate,2023-12-28T22:42:41+01:00*
G04 #@! TF.ProjectId,SSR-Shiled-v1,5353522d-5368-4696-9c65-642d76312e6b,rev?*
G04 #@! TF.SameCoordinates,Original*
G04 #@! TF.FileFunction,Legend,Top*
G04 #@! TF.FilePolarity,Positive*
%FSLAX46Y46*%
G04 Gerber Fmt 4.6, Leading zero omitted, Abs format (unit mm)*
G04 Created by KiCad (PCBNEW 7.0.1-0) date 2023-12-28 22:42:41*
%MOMM*%
%LPD*%
G01*
G04 APERTURE LIST*
G04 Aperture macros list*
%AMRoundRect*
0 Rectangle with rounded corners*
0 $1 Rounding radius*
0 $2 $3 $4 $5 $6 $7 $8 $9 X,Y pos of 4 corners*
0 Add a 4 corners polygon primitive as box body*
4,1,4,$2,$3,$4,$5,$6,$7,$8,$9,$2,$3,0*
0 Add four circle primitives for the rounded corners*
1,1,$1+$1,$2,$3*
1,1,$1+$1,$4,$5*
1,1,$1+$1,$6,$7*
1,1,$1+$1,$8,$9*
0 Add four rect primitives between the rounded corners*
20,1,$1+$1,$2,$3,$4,$5,0*
20,1,$1+$1,$4,$5,$6,$7,0*
20,1,$1+$1,$6,$7,$8,$9,0*
20,1,$1+$1,$8,$9,$2,$3,0*%
G04 Aperture macros list end*
%ADD10C,0.150000*%
%ADD11C,0.600000*%
%ADD12C,0.400000*%
%ADD13C,0.254000*%
%ADD14C,0.100000*%
%ADD15C,0.200000*%
%ADD16C,0.120000*%
%ADD17R,2.000000X3.000000*%
%ADD18R,1.700000X1.700000*%
%ADD19O,1.700000X1.700000*%
%ADD20R,2.730000X6.710000*%
%ADD21R,2.600000X2.600000*%
%ADD22C,2.600000*%
%ADD23RoundRect,0.250000X-0.312500X-0.625000X0.312500X-0.625000X0.312500X0.625000X-0.312500X0.625000X0*%
%ADD24RoundRect,0.250000X0.312500X0.625000X-0.312500X0.625000X-0.312500X-0.625000X0.312500X-0.625000X0*%
%ADD25C,1.300000*%
%ADD26C,1.650000*%
%ADD27RoundRect,0.250000X-0.625000X0.375000X-0.625000X-0.375000X0.625000X-0.375000X0.625000X0.375000X0*%
%ADD28C,2.700000*%
G04 APERTURE END LIST*
D10*
X146409523Y-83742380D02*
X146361904Y-83790000D01*
X146361904Y-83790000D02*
X146219047Y-83837619D01*
X146219047Y-83837619D02*
X146123809Y-83837619D01*
X146123809Y-83837619D02*
X145980952Y-83790000D01*
X145980952Y-83790000D02*
X145885714Y-83694761D01*
X145885714Y-83694761D02*
X145838095Y-83599523D01*
X145838095Y-83599523D02*
X145790476Y-83409047D01*
X145790476Y-83409047D02*
X145790476Y-83266190D01*
X145790476Y-83266190D02*
X145838095Y-83075714D01*
X145838095Y-83075714D02*
X145885714Y-82980476D01*
X145885714Y-82980476D02*
X145980952Y-82885238D01*
X145980952Y-82885238D02*
X146123809Y-82837619D01*
X146123809Y-82837619D02*
X146219047Y-82837619D01*
X146219047Y-82837619D02*
X146361904Y-82885238D01*
X146361904Y-82885238D02*
X146409523Y-82932857D01*
X146980952Y-83837619D02*
X146885714Y-83790000D01*
X146885714Y-83790000D02*
X146838095Y-83742380D01*
X146838095Y-83742380D02*
X146790476Y-83647142D01*
X146790476Y-83647142D02*
X146790476Y-83361428D01*
X146790476Y-83361428D02*
X146838095Y-83266190D01*
X146838095Y-83266190D02*
X146885714Y-83218571D01*
X146885714Y-83218571D02*
X146980952Y-83170952D01*
X146980952Y-83170952D02*
X147123809Y-83170952D01*
X147123809Y-83170952D02*
X147219047Y-83218571D01*
X147219047Y-83218571D02*
X147266666Y-83266190D01*
X147266666Y-83266190D02*
X147314285Y-83361428D01*
X147314285Y-83361428D02*
X147314285Y-83647142D01*
X147314285Y-83647142D02*
X147266666Y-83742380D01*
X147266666Y-83742380D02*
X147219047Y-83790000D01*
X147219047Y-83790000D02*
X147123809Y-83837619D01*
X147123809Y-83837619D02*
X146980952Y-83837619D01*
X147742857Y-83170952D02*
X147742857Y-83837619D01*
X147742857Y-83266190D02*
X147790476Y-83218571D01*
X147790476Y-83218571D02*
X147885714Y-83170952D01*
X147885714Y-83170952D02*
X148028571Y-83170952D01*
X148028571Y-83170952D02*
X148123809Y-83218571D01*
X148123809Y-83218571D02*
X148171428Y-83313809D01*
X148171428Y-83313809D02*
X148171428Y-83837619D01*
X148647619Y-83170952D02*
X148647619Y-83837619D01*
X148647619Y-83266190D02*
X148695238Y-83218571D01*
X148695238Y-83218571D02*
X148790476Y-83170952D01*
X148790476Y-83170952D02*
X148933333Y-83170952D01*
X148933333Y-83170952D02*
X149028571Y-83218571D01*
X149028571Y-83218571D02*
X149076190Y-83313809D01*
X149076190Y-83313809D02*
X149076190Y-83837619D01*
X149933333Y-83790000D02*
X149838095Y-83837619D01*
X149838095Y-83837619D02*
X149647619Y-83837619D01*
X149647619Y-83837619D02*
X149552381Y-83790000D01*
X149552381Y-83790000D02*
X149504762Y-83694761D01*
X149504762Y-83694761D02*
X149504762Y-83313809D01*
X149504762Y-83313809D02*
X149552381Y-83218571D01*
X149552381Y-83218571D02*
X149647619Y-83170952D01*
X149647619Y-83170952D02*
X149838095Y-83170952D01*
X149838095Y-83170952D02*
X149933333Y-83218571D01*
X149933333Y-83218571D02*
X149980952Y-83313809D01*
X149980952Y-83313809D02*
X149980952Y-83409047D01*
X149980952Y-83409047D02*
X149504762Y-83504285D01*
X150838095Y-83790000D02*
X150742857Y-83837619D01*
X150742857Y-83837619D02*
X150552381Y-83837619D01*
X150552381Y-83837619D02*
X150457143Y-83790000D01*
X150457143Y-83790000D02*
X150409524Y-83742380D01*
X150409524Y-83742380D02*
X150361905Y-83647142D01*
X150361905Y-83647142D02*
X150361905Y-83361428D01*
X150361905Y-83361428D02*
X150409524Y-83266190D01*
X150409524Y-83266190D02*
X150457143Y-83218571D01*
X150457143Y-83218571D02*
X150552381Y-83170952D01*
X150552381Y-83170952D02*
X150742857Y-83170952D01*
X150742857Y-83170952D02*
X150838095Y-83218571D01*
X151123810Y-83170952D02*
X151504762Y-83170952D01*
X151266667Y-82837619D02*
X151266667Y-83694761D01*
X151266667Y-83694761D02*
X151314286Y-83790000D01*
X151314286Y-83790000D02*
X151409524Y-83837619D01*
X151409524Y-83837619D02*
X151504762Y-83837619D01*
X151790477Y-83790000D02*
X151885715Y-83837619D01*
X151885715Y-83837619D02*
X152076191Y-83837619D01*
X152076191Y-83837619D02*
X152171429Y-83790000D01*
X152171429Y-83790000D02*
X152219048Y-83694761D01*
X152219048Y-83694761D02*
X152219048Y-83647142D01*
X152219048Y-83647142D02*
X152171429Y-83551904D01*
X152171429Y-83551904D02*
X152076191Y-83504285D01*
X152076191Y-83504285D02*
X151933334Y-83504285D01*
X151933334Y-83504285D02*
X151838096Y-83456666D01*
X151838096Y-83456666D02*
X151790477Y-83361428D01*
X151790477Y-83361428D02*
X151790477Y-83313809D01*
X151790477Y-83313809D02*
X151838096Y-83218571D01*
X151838096Y-83218571D02*
X151933334Y-83170952D01*
X151933334Y-83170952D02*
X152076191Y-83170952D01*
X152076191Y-83170952D02*
X152171429Y-83218571D01*
X153933334Y-82885238D02*
X153838096Y-82837619D01*
X153838096Y-82837619D02*
X153695239Y-82837619D01*
X153695239Y-82837619D02*
X153552382Y-82885238D01*
X153552382Y-82885238D02*
X153457144Y-82980476D01*
X153457144Y-82980476D02*
X153409525Y-83075714D01*
X153409525Y-83075714D02*
X153361906Y-83266190D01*
X153361906Y-83266190D02*
X153361906Y-83409047D01*
X153361906Y-83409047D02*
X153409525Y-83599523D01*
X153409525Y-83599523D02*
X153457144Y-83694761D01*
X153457144Y-83694761D02*
X153552382Y-83790000D01*
X153552382Y-83790000D02*
X153695239Y-83837619D01*
X153695239Y-83837619D02*
X153790477Y-83837619D01*
X153790477Y-83837619D02*
X153933334Y-83790000D01*
X153933334Y-83790000D02*
X153980953Y-83742380D01*
X153980953Y-83742380D02*
X153980953Y-83409047D01*
X153980953Y-83409047D02*
X153790477Y-83409047D01*
X154409525Y-83837619D02*
X154409525Y-82837619D01*
X154409525Y-82837619D02*
X154790477Y-82837619D01*
X154790477Y-82837619D02*
X154885715Y-82885238D01*
X154885715Y-82885238D02*
X154933334Y-82932857D01*
X154933334Y-82932857D02*
X154980953Y-83028095D01*
X154980953Y-83028095D02*
X154980953Y-83170952D01*
X154980953Y-83170952D02*
X154933334Y-83266190D01*
X154933334Y-83266190D02*
X154885715Y-83313809D01*
X154885715Y-83313809D02*
X154790477Y-83361428D01*
X154790477Y-83361428D02*
X154409525Y-83361428D01*
X155409525Y-83837619D02*
X155409525Y-82837619D01*
X156076191Y-82837619D02*
X156266667Y-82837619D01*
X156266667Y-82837619D02*
X156361905Y-82885238D01*
X156361905Y-82885238D02*
X156457143Y-82980476D01*
X156457143Y-82980476D02*
X156504762Y-83170952D01*
X156504762Y-83170952D02*
X156504762Y-83504285D01*
X156504762Y-83504285D02*
X156457143Y-83694761D01*
X156457143Y-83694761D02*
X156361905Y-83790000D01*
X156361905Y-83790000D02*
X156266667Y-83837619D01*
X156266667Y-83837619D02*
X156076191Y-83837619D01*
X156076191Y-83837619D02*
X155980953Y-83790000D01*
X155980953Y-83790000D02*
X155885715Y-83694761D01*
X155885715Y-83694761D02*
X155838096Y-83504285D01*
X155838096Y-83504285D02*
X155838096Y-83170952D01*
X155838096Y-83170952D02*
X155885715Y-82980476D01*
X155885715Y-82980476D02*
X155980953Y-82885238D01*
X155980953Y-82885238D02*
X156076191Y-82837619D01*
X157552382Y-83170952D02*
X157933334Y-83170952D01*
X157695239Y-82837619D02*
X157695239Y-83694761D01*
X157695239Y-83694761D02*
X157742858Y-83790000D01*
X157742858Y-83790000D02*
X157838096Y-83837619D01*
X157838096Y-83837619D02*
X157933334Y-83837619D01*
X158409525Y-83837619D02*
X158314287Y-83790000D01*
X158314287Y-83790000D02*
X158266668Y-83742380D01*
X158266668Y-83742380D02*
X158219049Y-83647142D01*
X158219049Y-83647142D02*
X158219049Y-83361428D01*
X158219049Y-83361428D02*
X158266668Y-83266190D01*
X158266668Y-83266190D02*
X158314287Y-83218571D01*
X158314287Y-83218571D02*
X158409525Y-83170952D01*
X158409525Y-83170952D02*
X158552382Y-83170952D01*
X158552382Y-83170952D02*
X158647620Y-83218571D01*
X158647620Y-83218571D02*
X158695239Y-83266190D01*
X158695239Y-83266190D02*
X158742858Y-83361428D01*
X158742858Y-83361428D02*
X158742858Y-83647142D01*
X158742858Y-83647142D02*
X158695239Y-83742380D01*
X158695239Y-83742380D02*
X158647620Y-83790000D01*
X158647620Y-83790000D02*
X158552382Y-83837619D01*
X158552382Y-83837619D02*
X158409525Y-83837619D01*
X160457144Y-82885238D02*
X160361906Y-82837619D01*
X160361906Y-82837619D02*
X160219049Y-82837619D01*
X160219049Y-82837619D02*
X160076192Y-82885238D01*
X160076192Y-82885238D02*
X159980954Y-82980476D01*
X159980954Y-82980476D02*
X159933335Y-83075714D01*
X159933335Y-83075714D02*
X159885716Y-83266190D01*
X159885716Y-83266190D02*
X159885716Y-83409047D01*
X159885716Y-83409047D02*
X159933335Y-83599523D01*
X159933335Y-83599523D02*
X159980954Y-83694761D01*
X159980954Y-83694761D02*
X160076192Y-83790000D01*
X160076192Y-83790000D02*
X160219049Y-83837619D01*
X160219049Y-83837619D02*
X160314287Y-83837619D01*
X160314287Y-83837619D02*
X160457144Y-83790000D01*
X160457144Y-83790000D02*
X160504763Y-83742380D01*
X160504763Y-83742380D02*
X160504763Y-83409047D01*
X160504763Y-83409047D02*
X160314287Y-83409047D01*
X160933335Y-83837619D02*
X160933335Y-82837619D01*
X160933335Y-82837619D02*
X161504763Y-83837619D01*
X161504763Y-83837619D02*
X161504763Y-82837619D01*
X161980954Y-83837619D02*
X161980954Y-82837619D01*
X161980954Y-82837619D02*
X162219049Y-82837619D01*
X162219049Y-82837619D02*
X162361906Y-82885238D01*
X162361906Y-82885238D02*
X162457144Y-82980476D01*
X162457144Y-82980476D02*
X162504763Y-83075714D01*
X162504763Y-83075714D02*
X162552382Y-83266190D01*
X162552382Y-83266190D02*
X162552382Y-83409047D01*
X162552382Y-83409047D02*
X162504763Y-83599523D01*
X162504763Y-83599523D02*
X162457144Y-83694761D01*
X162457144Y-83694761D02*
X162361906Y-83790000D01*
X162361906Y-83790000D02*
X162219049Y-83837619D01*
X162219049Y-83837619D02*
X161980954Y-83837619D01*
X145838095Y-84457619D02*
X145838095Y-85267142D01*
X145838095Y-85267142D02*
X145885714Y-85362380D01*
X145885714Y-85362380D02*
X145933333Y-85410000D01*
X145933333Y-85410000D02*
X146028571Y-85457619D01*
X146028571Y-85457619D02*
X146219047Y-85457619D01*
X146219047Y-85457619D02*
X146314285Y-85410000D01*
X146314285Y-85410000D02*
X146361904Y-85362380D01*
X146361904Y-85362380D02*
X146409523Y-85267142D01*
X146409523Y-85267142D02*
X146409523Y-84457619D01*
X146838095Y-85410000D02*
X146933333Y-85457619D01*
X146933333Y-85457619D02*
X147123809Y-85457619D01*
X147123809Y-85457619D02*
X147219047Y-85410000D01*
X147219047Y-85410000D02*
X147266666Y-85314761D01*
X147266666Y-85314761D02*
X147266666Y-85267142D01*
X147266666Y-85267142D02*
X147219047Y-85171904D01*
X147219047Y-85171904D02*
X147123809Y-85124285D01*
X147123809Y-85124285D02*
X146980952Y-85124285D01*
X146980952Y-85124285D02*
X146885714Y-85076666D01*
X146885714Y-85076666D02*
X146838095Y-84981428D01*
X146838095Y-84981428D02*
X146838095Y-84933809D01*
X146838095Y-84933809D02*
X146885714Y-84838571D01*
X146885714Y-84838571D02*
X146980952Y-84790952D01*
X146980952Y-84790952D02*
X147123809Y-84790952D01*
X147123809Y-84790952D02*
X147219047Y-84838571D01*
X148076190Y-85410000D02*
X147980952Y-85457619D01*
X147980952Y-85457619D02*
X147790476Y-85457619D01*
X147790476Y-85457619D02*
X147695238Y-85410000D01*
X147695238Y-85410000D02*
X147647619Y-85314761D01*
X147647619Y-85314761D02*
X147647619Y-84933809D01*
X147647619Y-84933809D02*
X147695238Y-84838571D01*
X147695238Y-84838571D02*
X147790476Y-84790952D01*
X147790476Y-84790952D02*
X147980952Y-84790952D01*
X147980952Y-84790952D02*
X148076190Y-84838571D01*
X148076190Y-84838571D02*
X148123809Y-84933809D01*
X148123809Y-84933809D02*
X148123809Y-85029047D01*
X148123809Y-85029047D02*
X147647619Y-85124285D01*
X149219048Y-84790952D02*
X149409524Y-85457619D01*
X149409524Y-85457619D02*
X149600000Y-84981428D01*
X149600000Y-84981428D02*
X149790476Y-85457619D01*
X149790476Y-85457619D02*
X149980952Y-84790952D01*
X150361905Y-85457619D02*
X150361905Y-84790952D01*
X150361905Y-84457619D02*
X150314286Y-84505238D01*
X150314286Y-84505238D02*
X150361905Y-84552857D01*
X150361905Y-84552857D02*
X150409524Y-84505238D01*
X150409524Y-84505238D02*
X150361905Y-84457619D01*
X150361905Y-84457619D02*
X150361905Y-84552857D01*
X150695238Y-84790952D02*
X151076190Y-84790952D01*
X150838095Y-84457619D02*
X150838095Y-85314761D01*
X150838095Y-85314761D02*
X150885714Y-85410000D01*
X150885714Y-85410000D02*
X150980952Y-85457619D01*
X150980952Y-85457619D02*
X151076190Y-85457619D01*
X151409524Y-85457619D02*
X151409524Y-84457619D01*
X151838095Y-85457619D02*
X151838095Y-84933809D01*
X151838095Y-84933809D02*
X151790476Y-84838571D01*
X151790476Y-84838571D02*
X151695238Y-84790952D01*
X151695238Y-84790952D02*
X151552381Y-84790952D01*
X151552381Y-84790952D02*
X151457143Y-84838571D01*
X151457143Y-84838571D02*
X151409524Y-84886190D01*
X153076191Y-85457619D02*
X153076191Y-84790952D01*
X153076191Y-84457619D02*
X153028572Y-84505238D01*
X153028572Y-84505238D02*
X153076191Y-84552857D01*
X153076191Y-84552857D02*
X153123810Y-84505238D01*
X153123810Y-84505238D02*
X153076191Y-84457619D01*
X153076191Y-84457619D02*
X153076191Y-84552857D01*
X153552381Y-84790952D02*
X153552381Y-85457619D01*
X153552381Y-84886190D02*
X153600000Y-84838571D01*
X153600000Y-84838571D02*
X153695238Y-84790952D01*
X153695238Y-84790952D02*
X153838095Y-84790952D01*
X153838095Y-84790952D02*
X153933333Y-84838571D01*
X153933333Y-84838571D02*
X153980952Y-84933809D01*
X153980952Y-84933809D02*
X153980952Y-85457619D01*
X154314286Y-84790952D02*
X154695238Y-84790952D01*
X154457143Y-84457619D02*
X154457143Y-85314761D01*
X154457143Y-85314761D02*
X154504762Y-85410000D01*
X154504762Y-85410000D02*
X154600000Y-85457619D01*
X154600000Y-85457619D02*
X154695238Y-85457619D01*
X155409524Y-85410000D02*
X155314286Y-85457619D01*
X155314286Y-85457619D02*
X155123810Y-85457619D01*
X155123810Y-85457619D02*
X155028572Y-85410000D01*
X155028572Y-85410000D02*
X154980953Y-85314761D01*
X154980953Y-85314761D02*
X154980953Y-84933809D01*
X154980953Y-84933809D02*
X155028572Y-84838571D01*
X155028572Y-84838571D02*
X155123810Y-84790952D01*
X155123810Y-84790952D02*
X155314286Y-84790952D01*
X155314286Y-84790952D02*
X155409524Y-84838571D01*
X155409524Y-84838571D02*
X155457143Y-84933809D01*
X155457143Y-84933809D02*
X155457143Y-85029047D01*
X155457143Y-85029047D02*
X154980953Y-85124285D01*
X155885715Y-85457619D02*
X155885715Y-84790952D01*
X155885715Y-84981428D02*
X155933334Y-84886190D01*
X155933334Y-84886190D02*
X155980953Y-84838571D01*
X155980953Y-84838571D02*
X156076191Y-84790952D01*
X156076191Y-84790952D02*
X156171429Y-84790952D01*
X156504763Y-84790952D02*
X156504763Y-85457619D01*
X156504763Y-84886190D02*
X156552382Y-84838571D01*
X156552382Y-84838571D02*
X156647620Y-84790952D01*
X156647620Y-84790952D02*
X156790477Y-84790952D01*
X156790477Y-84790952D02*
X156885715Y-84838571D01*
X156885715Y-84838571D02*
X156933334Y-84933809D01*
X156933334Y-84933809D02*
X156933334Y-85457619D01*
X157838096Y-85457619D02*
X157838096Y-84933809D01*
X157838096Y-84933809D02*
X157790477Y-84838571D01*
X157790477Y-84838571D02*
X157695239Y-84790952D01*
X157695239Y-84790952D02*
X157504763Y-84790952D01*
X157504763Y-84790952D02*
X157409525Y-84838571D01*
X157838096Y-85410000D02*
X157742858Y-85457619D01*
X157742858Y-85457619D02*
X157504763Y-85457619D01*
X157504763Y-85457619D02*
X157409525Y-85410000D01*
X157409525Y-85410000D02*
X157361906Y-85314761D01*
X157361906Y-85314761D02*
X157361906Y-85219523D01*
X157361906Y-85219523D02*
X157409525Y-85124285D01*
X157409525Y-85124285D02*
X157504763Y-85076666D01*
X157504763Y-85076666D02*
X157742858Y-85076666D01*
X157742858Y-85076666D02*
X157838096Y-85029047D01*
X158457144Y-85457619D02*
X158361906Y-85410000D01*
X158361906Y-85410000D02*
X158314287Y-85314761D01*
X158314287Y-85314761D02*
X158314287Y-84457619D01*
X145838095Y-86410952D02*
X145838095Y-87410952D01*
X145838095Y-86458571D02*
X145933333Y-86410952D01*
X145933333Y-86410952D02*
X146123809Y-86410952D01*
X146123809Y-86410952D02*
X146219047Y-86458571D01*
X146219047Y-86458571D02*
X146266666Y-86506190D01*
X146266666Y-86506190D02*
X146314285Y-86601428D01*
X146314285Y-86601428D02*
X146314285Y-86887142D01*
X146314285Y-86887142D02*
X146266666Y-86982380D01*
X146266666Y-86982380D02*
X146219047Y-87030000D01*
X146219047Y-87030000D02*
X146123809Y-87077619D01*
X146123809Y-87077619D02*
X145933333Y-87077619D01*
X145933333Y-87077619D02*
X145838095Y-87030000D01*
X147171428Y-86410952D02*
X147171428Y-87077619D01*
X146742857Y-86410952D02*
X146742857Y-86934761D01*
X146742857Y-86934761D02*
X146790476Y-87030000D01*
X146790476Y-87030000D02*
X146885714Y-87077619D01*
X146885714Y-87077619D02*
X147028571Y-87077619D01*
X147028571Y-87077619D02*
X147123809Y-87030000D01*
X147123809Y-87030000D02*
X147171428Y-86982380D01*
X147790476Y-87077619D02*
X147695238Y-87030000D01*
X147695238Y-87030000D02*
X147647619Y-86934761D01*
X147647619Y-86934761D02*
X147647619Y-86077619D01*
X148314286Y-87077619D02*
X148219048Y-87030000D01*
X148219048Y-87030000D02*
X148171429Y-86934761D01*
X148171429Y-86934761D02*
X148171429Y-86077619D01*
X148695239Y-86696666D02*
X149457144Y-86696666D01*
X150361905Y-86410952D02*
X150361905Y-87077619D01*
X149933334Y-86410952D02*
X149933334Y-86934761D01*
X149933334Y-86934761D02*
X149980953Y-87030000D01*
X149980953Y-87030000D02*
X150076191Y-87077619D01*
X150076191Y-87077619D02*
X150219048Y-87077619D01*
X150219048Y-87077619D02*
X150314286Y-87030000D01*
X150314286Y-87030000D02*
X150361905Y-86982380D01*
X150838096Y-86410952D02*
X150838096Y-87410952D01*
X150838096Y-86458571D02*
X150933334Y-86410952D01*
X150933334Y-86410952D02*
X151123810Y-86410952D01*
X151123810Y-86410952D02*
X151219048Y-86458571D01*
X151219048Y-86458571D02*
X151266667Y-86506190D01*
X151266667Y-86506190D02*
X151314286Y-86601428D01*
X151314286Y-86601428D02*
X151314286Y-86887142D01*
X151314286Y-86887142D02*
X151266667Y-86982380D01*
X151266667Y-86982380D02*
X151219048Y-87030000D01*
X151219048Y-87030000D02*
X151123810Y-87077619D01*
X151123810Y-87077619D02*
X150933334Y-87077619D01*
X150933334Y-87077619D02*
X150838096Y-87030000D01*
X152504763Y-87077619D02*
X152504763Y-86410952D01*
X152504763Y-86601428D02*
X152552382Y-86506190D01*
X152552382Y-86506190D02*
X152600001Y-86458571D01*
X152600001Y-86458571D02*
X152695239Y-86410952D01*
X152695239Y-86410952D02*
X152790477Y-86410952D01*
X153504763Y-87030000D02*
X153409525Y-87077619D01*
X153409525Y-87077619D02*
X153219049Y-87077619D01*
X153219049Y-87077619D02*
X153123811Y-87030000D01*
X153123811Y-87030000D02*
X153076192Y-86934761D01*
X153076192Y-86934761D02*
X153076192Y-86553809D01*
X153076192Y-86553809D02*
X153123811Y-86458571D01*
X153123811Y-86458571D02*
X153219049Y-86410952D01*
X153219049Y-86410952D02*
X153409525Y-86410952D01*
X153409525Y-86410952D02*
X153504763Y-86458571D01*
X153504763Y-86458571D02*
X153552382Y-86553809D01*
X153552382Y-86553809D02*
X153552382Y-86649047D01*
X153552382Y-86649047D02*
X153076192Y-86744285D01*
X153933335Y-87030000D02*
X154028573Y-87077619D01*
X154028573Y-87077619D02*
X154219049Y-87077619D01*
X154219049Y-87077619D02*
X154314287Y-87030000D01*
X154314287Y-87030000D02*
X154361906Y-86934761D01*
X154361906Y-86934761D02*
X154361906Y-86887142D01*
X154361906Y-86887142D02*
X154314287Y-86791904D01*
X154314287Y-86791904D02*
X154219049Y-86744285D01*
X154219049Y-86744285D02*
X154076192Y-86744285D01*
X154076192Y-86744285D02*
X153980954Y-86696666D01*
X153980954Y-86696666D02*
X153933335Y-86601428D01*
X153933335Y-86601428D02*
X153933335Y-86553809D01*
X153933335Y-86553809D02*
X153980954Y-86458571D01*
X153980954Y-86458571D02*
X154076192Y-86410952D01*
X154076192Y-86410952D02*
X154219049Y-86410952D01*
X154219049Y-86410952D02*
X154314287Y-86458571D01*
X154790478Y-87077619D02*
X154790478Y-86410952D01*
X154790478Y-86077619D02*
X154742859Y-86125238D01*
X154742859Y-86125238D02*
X154790478Y-86172857D01*
X154790478Y-86172857D02*
X154838097Y-86125238D01*
X154838097Y-86125238D02*
X154790478Y-86077619D01*
X154790478Y-86077619D02*
X154790478Y-86172857D01*
X155219049Y-87030000D02*
X155314287Y-87077619D01*
X155314287Y-87077619D02*
X155504763Y-87077619D01*
X155504763Y-87077619D02*
X155600001Y-87030000D01*
X155600001Y-87030000D02*
X155647620Y-86934761D01*
X155647620Y-86934761D02*
X155647620Y-86887142D01*
X155647620Y-86887142D02*
X155600001Y-86791904D01*
X155600001Y-86791904D02*
X155504763Y-86744285D01*
X155504763Y-86744285D02*
X155361906Y-86744285D01*
X155361906Y-86744285D02*
X155266668Y-86696666D01*
X155266668Y-86696666D02*
X155219049Y-86601428D01*
X155219049Y-86601428D02*
X155219049Y-86553809D01*
X155219049Y-86553809D02*
X155266668Y-86458571D01*
X155266668Y-86458571D02*
X155361906Y-86410952D01*
X155361906Y-86410952D02*
X155504763Y-86410952D01*
X155504763Y-86410952D02*
X155600001Y-86458571D01*
X155933335Y-86410952D02*
X156314287Y-86410952D01*
X156076192Y-86077619D02*
X156076192Y-86934761D01*
X156076192Y-86934761D02*
X156123811Y-87030000D01*
X156123811Y-87030000D02*
X156219049Y-87077619D01*
X156219049Y-87077619D02*
X156314287Y-87077619D01*
X156790478Y-87077619D02*
X156695240Y-87030000D01*
X156695240Y-87030000D02*
X156647621Y-86982380D01*
X156647621Y-86982380D02*
X156600002Y-86887142D01*
X156600002Y-86887142D02*
X156600002Y-86601428D01*
X156600002Y-86601428D02*
X156647621Y-86506190D01*
X156647621Y-86506190D02*
X156695240Y-86458571D01*
X156695240Y-86458571D02*
X156790478Y-86410952D01*
X156790478Y-86410952D02*
X156933335Y-86410952D01*
X156933335Y-86410952D02*
X157028573Y-86458571D01*
X157028573Y-86458571D02*
X157076192Y-86506190D01*
X157076192Y-86506190D02*
X157123811Y-86601428D01*
X157123811Y-86601428D02*
X157123811Y-86887142D01*
X157123811Y-86887142D02*
X157076192Y-86982380D01*
X157076192Y-86982380D02*
X157028573Y-87030000D01*
X157028573Y-87030000D02*
X156933335Y-87077619D01*
X156933335Y-87077619D02*
X156790478Y-87077619D01*
X157552383Y-87077619D02*
X157552383Y-86410952D01*
X157552383Y-86601428D02*
X157600002Y-86506190D01*
X157600002Y-86506190D02*
X157647621Y-86458571D01*
X157647621Y-86458571D02*
X157742859Y-86410952D01*
X157742859Y-86410952D02*
X157838097Y-86410952D01*
X149673809Y-75377619D02*
X149673809Y-76091904D01*
X149673809Y-76091904D02*
X149626190Y-76234761D01*
X149626190Y-76234761D02*
X149530952Y-76330000D01*
X149530952Y-76330000D02*
X149388095Y-76377619D01*
X149388095Y-76377619D02*
X149292857Y-76377619D01*
X150626190Y-76377619D02*
X150150000Y-76377619D01*
X150150000Y-76377619D02*
X150150000Y-75377619D01*
X151530952Y-76282380D02*
X151483333Y-76330000D01*
X151483333Y-76330000D02*
X151340476Y-76377619D01*
X151340476Y-76377619D02*
X151245238Y-76377619D01*
X151245238Y-76377619D02*
X151102381Y-76330000D01*
X151102381Y-76330000D02*
X151007143Y-76234761D01*
X151007143Y-76234761D02*
X150959524Y-76139523D01*
X150959524Y-76139523D02*
X150911905Y-75949047D01*
X150911905Y-75949047D02*
X150911905Y-75806190D01*
X150911905Y-75806190D02*
X150959524Y-75615714D01*
X150959524Y-75615714D02*
X151007143Y-75520476D01*
X151007143Y-75520476D02*
X151102381Y-75425238D01*
X151102381Y-75425238D02*
X151245238Y-75377619D01*
X151245238Y-75377619D02*
X151340476Y-75377619D01*
X151340476Y-75377619D02*
X151483333Y-75425238D01*
X151483333Y-75425238D02*
X151530952Y-75472857D01*
X152245238Y-75377619D02*
X152245238Y-76091904D01*
X152245238Y-76091904D02*
X152197619Y-76234761D01*
X152197619Y-76234761D02*
X152102381Y-76330000D01*
X152102381Y-76330000D02*
X151959524Y-76377619D01*
X151959524Y-76377619D02*
X151864286Y-76377619D01*
X153197619Y-76377619D02*
X152721429Y-76377619D01*
X152721429Y-76377619D02*
X152721429Y-75377619D01*
X154102381Y-76282380D02*
X154054762Y-76330000D01*
X154054762Y-76330000D02*
X153911905Y-76377619D01*
X153911905Y-76377619D02*
X153816667Y-76377619D01*
X153816667Y-76377619D02*
X153673810Y-76330000D01*
X153673810Y-76330000D02*
X153578572Y-76234761D01*
X153578572Y-76234761D02*
X153530953Y-76139523D01*
X153530953Y-76139523D02*
X153483334Y-75949047D01*
X153483334Y-75949047D02*
X153483334Y-75806190D01*
X153483334Y-75806190D02*
X153530953Y-75615714D01*
X153530953Y-75615714D02*
X153578572Y-75520476D01*
X153578572Y-75520476D02*
X153673810Y-75425238D01*
X153673810Y-75425238D02*
X153816667Y-75377619D01*
X153816667Y-75377619D02*
X153911905Y-75377619D01*
X153911905Y-75377619D02*
X154054762Y-75425238D01*
X154054762Y-75425238D02*
X154102381Y-75472857D01*
X154816667Y-75377619D02*
X154816667Y-76091904D01*
X154816667Y-76091904D02*
X154769048Y-76234761D01*
X154769048Y-76234761D02*
X154673810Y-76330000D01*
X154673810Y-76330000D02*
X154530953Y-76377619D01*
X154530953Y-76377619D02*
X154435715Y-76377619D01*
X155769048Y-76377619D02*
X155292858Y-76377619D01*
X155292858Y-76377619D02*
X155292858Y-75377619D01*
X156673810Y-76282380D02*
X156626191Y-76330000D01*
X156626191Y-76330000D02*
X156483334Y-76377619D01*
X156483334Y-76377619D02*
X156388096Y-76377619D01*
X156388096Y-76377619D02*
X156245239Y-76330000D01*
X156245239Y-76330000D02*
X156150001Y-76234761D01*
X156150001Y-76234761D02*
X156102382Y-76139523D01*
X156102382Y-76139523D02*
X156054763Y-75949047D01*
X156054763Y-75949047D02*
X156054763Y-75806190D01*
X156054763Y-75806190D02*
X156102382Y-75615714D01*
X156102382Y-75615714D02*
X156150001Y-75520476D01*
X156150001Y-75520476D02*
X156245239Y-75425238D01*
X156245239Y-75425238D02*
X156388096Y-75377619D01*
X156388096Y-75377619D02*
X156483334Y-75377619D01*
X156483334Y-75377619D02*
X156626191Y-75425238D01*
X156626191Y-75425238D02*
X156673810Y-75472857D01*
X135595238Y-96777619D02*
X135928571Y-97777619D01*
X135928571Y-97777619D02*
X136261904Y-96777619D01*
X136976190Y-97730000D02*
X136880952Y-97777619D01*
X136880952Y-97777619D02*
X136690476Y-97777619D01*
X136690476Y-97777619D02*
X136595238Y-97730000D01*
X136595238Y-97730000D02*
X136547619Y-97634761D01*
X136547619Y-97634761D02*
X136547619Y-97253809D01*
X136547619Y-97253809D02*
X136595238Y-97158571D01*
X136595238Y-97158571D02*
X136690476Y-97110952D01*
X136690476Y-97110952D02*
X136880952Y-97110952D01*
X136880952Y-97110952D02*
X136976190Y-97158571D01*
X136976190Y-97158571D02*
X137023809Y-97253809D01*
X137023809Y-97253809D02*
X137023809Y-97349047D01*
X137023809Y-97349047D02*
X136547619Y-97444285D01*
X137452381Y-97777619D02*
X137452381Y-97110952D01*
X137452381Y-97301428D02*
X137500000Y-97206190D01*
X137500000Y-97206190D02*
X137547619Y-97158571D01*
X137547619Y-97158571D02*
X137642857Y-97110952D01*
X137642857Y-97110952D02*
X137738095Y-97110952D01*
X138023810Y-97730000D02*
X138119048Y-97777619D01*
X138119048Y-97777619D02*
X138309524Y-97777619D01*
X138309524Y-97777619D02*
X138404762Y-97730000D01*
X138404762Y-97730000D02*
X138452381Y-97634761D01*
X138452381Y-97634761D02*
X138452381Y-97587142D01*
X138452381Y-97587142D02*
X138404762Y-97491904D01*
X138404762Y-97491904D02*
X138309524Y-97444285D01*
X138309524Y-97444285D02*
X138166667Y-97444285D01*
X138166667Y-97444285D02*
X138071429Y-97396666D01*
X138071429Y-97396666D02*
X138023810Y-97301428D01*
X138023810Y-97301428D02*
X138023810Y-97253809D01*
X138023810Y-97253809D02*
X138071429Y-97158571D01*
X138071429Y-97158571D02*
X138166667Y-97110952D01*
X138166667Y-97110952D02*
X138309524Y-97110952D01*
X138309524Y-97110952D02*
X138404762Y-97158571D01*
X138880953Y-97777619D02*
X138880953Y-97110952D01*
X138880953Y-96777619D02*
X138833334Y-96825238D01*
X138833334Y-96825238D02*
X138880953Y-96872857D01*
X138880953Y-96872857D02*
X138928572Y-96825238D01*
X138928572Y-96825238D02*
X138880953Y-96777619D01*
X138880953Y-96777619D02*
X138880953Y-96872857D01*
X139500000Y-97777619D02*
X139404762Y-97730000D01*
X139404762Y-97730000D02*
X139357143Y-97682380D01*
X139357143Y-97682380D02*
X139309524Y-97587142D01*
X139309524Y-97587142D02*
X139309524Y-97301428D01*
X139309524Y-97301428D02*
X139357143Y-97206190D01*
X139357143Y-97206190D02*
X139404762Y-97158571D01*
X139404762Y-97158571D02*
X139500000Y-97110952D01*
X139500000Y-97110952D02*
X139642857Y-97110952D01*
X139642857Y-97110952D02*
X139738095Y-97158571D01*
X139738095Y-97158571D02*
X139785714Y-97206190D01*
X139785714Y-97206190D02*
X139833333Y-97301428D01*
X139833333Y-97301428D02*
X139833333Y-97587142D01*
X139833333Y-97587142D02*
X139785714Y-97682380D01*
X139785714Y-97682380D02*
X139738095Y-97730000D01*
X139738095Y-97730000D02*
X139642857Y-97777619D01*
X139642857Y-97777619D02*
X139500000Y-97777619D01*
X140261905Y-97110952D02*
X140261905Y-97777619D01*
X140261905Y-97206190D02*
X140309524Y-97158571D01*
X140309524Y-97158571D02*
X140404762Y-97110952D01*
X140404762Y-97110952D02*
X140547619Y-97110952D01*
X140547619Y-97110952D02*
X140642857Y-97158571D01*
X140642857Y-97158571D02*
X140690476Y-97253809D01*
X140690476Y-97253809D02*
X140690476Y-97777619D01*
X142452381Y-97777619D02*
X141880953Y-97777619D01*
X142166667Y-97777619D02*
X142166667Y-96777619D01*
X142166667Y-96777619D02*
X142071429Y-96920476D01*
X142071429Y-96920476D02*
X141976191Y-97015714D01*
X141976191Y-97015714D02*
X141880953Y-97063333D01*
X142880953Y-97682380D02*
X142928572Y-97730000D01*
X142928572Y-97730000D02*
X142880953Y-97777619D01*
X142880953Y-97777619D02*
X142833334Y-97730000D01*
X142833334Y-97730000D02*
X142880953Y-97682380D01*
X142880953Y-97682380D02*
X142880953Y-97777619D01*
X143547619Y-96777619D02*
X143642857Y-96777619D01*
X143642857Y-96777619D02*
X143738095Y-96825238D01*
X143738095Y-96825238D02*
X143785714Y-96872857D01*
X143785714Y-96872857D02*
X143833333Y-96968095D01*
X143833333Y-96968095D02*
X143880952Y-97158571D01*
X143880952Y-97158571D02*
X143880952Y-97396666D01*
X143880952Y-97396666D02*
X143833333Y-97587142D01*
X143833333Y-97587142D02*
X143785714Y-97682380D01*
X143785714Y-97682380D02*
X143738095Y-97730000D01*
X143738095Y-97730000D02*
X143642857Y-97777619D01*
X143642857Y-97777619D02*
X143547619Y-97777619D01*
X143547619Y-97777619D02*
X143452381Y-97730000D01*
X143452381Y-97730000D02*
X143404762Y-97682380D01*
X143404762Y-97682380D02*
X143357143Y-97587142D01*
X143357143Y-97587142D02*
X143309524Y-97396666D01*
X143309524Y-97396666D02*
X143309524Y-97158571D01*
X143309524Y-97158571D02*
X143357143Y-96968095D01*
X143357143Y-96968095D02*
X143404762Y-96872857D01*
X143404762Y-96872857D02*
X143452381Y-96825238D01*
X143452381Y-96825238D02*
X143547619Y-96777619D01*
X108507142Y-97816428D02*
X108507142Y-96316428D01*
X108507142Y-96316428D02*
X108864285Y-96316428D01*
X108864285Y-96316428D02*
X109078571Y-96387857D01*
X109078571Y-96387857D02*
X109221428Y-96530714D01*
X109221428Y-96530714D02*
X109292857Y-96673571D01*
X109292857Y-96673571D02*
X109364285Y-96959285D01*
X109364285Y-96959285D02*
X109364285Y-97173571D01*
X109364285Y-97173571D02*
X109292857Y-97459285D01*
X109292857Y-97459285D02*
X109221428Y-97602142D01*
X109221428Y-97602142D02*
X109078571Y-97745000D01*
X109078571Y-97745000D02*
X108864285Y-97816428D01*
X108864285Y-97816428D02*
X108507142Y-97816428D01*
X110650000Y-97816428D02*
X110650000Y-97030714D01*
X110650000Y-97030714D02*
X110578571Y-96887857D01*
X110578571Y-96887857D02*
X110435714Y-96816428D01*
X110435714Y-96816428D02*
X110150000Y-96816428D01*
X110150000Y-96816428D02*
X110007142Y-96887857D01*
X110650000Y-97745000D02*
X110507142Y-97816428D01*
X110507142Y-97816428D02*
X110150000Y-97816428D01*
X110150000Y-97816428D02*
X110007142Y-97745000D01*
X110007142Y-97745000D02*
X109935714Y-97602142D01*
X109935714Y-97602142D02*
X109935714Y-97459285D01*
X109935714Y-97459285D02*
X110007142Y-97316428D01*
X110007142Y-97316428D02*
X110150000Y-97245000D01*
X110150000Y-97245000D02*
X110507142Y-97245000D01*
X110507142Y-97245000D02*
X110650000Y-97173571D01*
X111364285Y-96816428D02*
X111364285Y-97816428D01*
X111364285Y-96959285D02*
X111435714Y-96887857D01*
X111435714Y-96887857D02*
X111578571Y-96816428D01*
X111578571Y-96816428D02*
X111792857Y-96816428D01*
X111792857Y-96816428D02*
X111935714Y-96887857D01*
X111935714Y-96887857D02*
X112007143Y-97030714D01*
X112007143Y-97030714D02*
X112007143Y-97816428D01*
X114578571Y-97816428D02*
X113864285Y-97816428D01*
X113864285Y-97816428D02*
X113864285Y-96316428D01*
X115721429Y-97816428D02*
X115721429Y-97030714D01*
X115721429Y-97030714D02*
X115650000Y-96887857D01*
X115650000Y-96887857D02*
X115507143Y-96816428D01*
X115507143Y-96816428D02*
X115221429Y-96816428D01*
X115221429Y-96816428D02*
X115078571Y-96887857D01*
X115721429Y-97745000D02*
X115578571Y-97816428D01*
X115578571Y-97816428D02*
X115221429Y-97816428D01*
X115221429Y-97816428D02*
X115078571Y-97745000D01*
X115078571Y-97745000D02*
X115007143Y-97602142D01*
X115007143Y-97602142D02*
X115007143Y-97459285D01*
X115007143Y-97459285D02*
X115078571Y-97316428D01*
X115078571Y-97316428D02*
X115221429Y-97245000D01*
X115221429Y-97245000D02*
X115578571Y-97245000D01*
X115578571Y-97245000D02*
X115721429Y-97173571D01*
X116435714Y-97816428D02*
X116435714Y-96816428D01*
X116435714Y-97102142D02*
X116507143Y-96959285D01*
X116507143Y-96959285D02*
X116578572Y-96887857D01*
X116578572Y-96887857D02*
X116721429Y-96816428D01*
X116721429Y-96816428D02*
X116864286Y-96816428D01*
X117292857Y-97745000D02*
X117435714Y-97816428D01*
X117435714Y-97816428D02*
X117721428Y-97816428D01*
X117721428Y-97816428D02*
X117864285Y-97745000D01*
X117864285Y-97745000D02*
X117935714Y-97602142D01*
X117935714Y-97602142D02*
X117935714Y-97530714D01*
X117935714Y-97530714D02*
X117864285Y-97387857D01*
X117864285Y-97387857D02*
X117721428Y-97316428D01*
X117721428Y-97316428D02*
X117507143Y-97316428D01*
X117507143Y-97316428D02*
X117364285Y-97245000D01*
X117364285Y-97245000D02*
X117292857Y-97102142D01*
X117292857Y-97102142D02*
X117292857Y-97030714D01*
X117292857Y-97030714D02*
X117364285Y-96887857D01*
X117364285Y-96887857D02*
X117507143Y-96816428D01*
X117507143Y-96816428D02*
X117721428Y-96816428D01*
X117721428Y-96816428D02*
X117864285Y-96887857D01*
X118507143Y-97745000D02*
X118650000Y-97816428D01*
X118650000Y-97816428D02*
X118935714Y-97816428D01*
X118935714Y-97816428D02*
X119078571Y-97745000D01*
X119078571Y-97745000D02*
X119150000Y-97602142D01*
X119150000Y-97602142D02*
X119150000Y-97530714D01*
X119150000Y-97530714D02*
X119078571Y-97387857D01*
X119078571Y-97387857D02*
X118935714Y-97316428D01*
X118935714Y-97316428D02*
X118721429Y-97316428D01*
X118721429Y-97316428D02*
X118578571Y-97245000D01*
X118578571Y-97245000D02*
X118507143Y-97102142D01*
X118507143Y-97102142D02*
X118507143Y-97030714D01*
X118507143Y-97030714D02*
X118578571Y-96887857D01*
X118578571Y-96887857D02*
X118721429Y-96816428D01*
X118721429Y-96816428D02*
X118935714Y-96816428D01*
X118935714Y-96816428D02*
X119078571Y-96887857D01*
X120007143Y-97816428D02*
X119864286Y-97745000D01*
X119864286Y-97745000D02*
X119792857Y-97673571D01*
X119792857Y-97673571D02*
X119721429Y-97530714D01*
X119721429Y-97530714D02*
X119721429Y-97102142D01*
X119721429Y-97102142D02*
X119792857Y-96959285D01*
X119792857Y-96959285D02*
X119864286Y-96887857D01*
X119864286Y-96887857D02*
X120007143Y-96816428D01*
X120007143Y-96816428D02*
X120221429Y-96816428D01*
X120221429Y-96816428D02*
X120364286Y-96887857D01*
X120364286Y-96887857D02*
X120435715Y-96959285D01*
X120435715Y-96959285D02*
X120507143Y-97102142D01*
X120507143Y-97102142D02*
X120507143Y-97530714D01*
X120507143Y-97530714D02*
X120435715Y-97673571D01*
X120435715Y-97673571D02*
X120364286Y-97745000D01*
X120364286Y-97745000D02*
X120221429Y-97816428D01*
X120221429Y-97816428D02*
X120007143Y-97816428D01*
X121150000Y-96816428D02*
X121150000Y-97816428D01*
X121150000Y-96959285D02*
X121221429Y-96887857D01*
X121221429Y-96887857D02*
X121364286Y-96816428D01*
X121364286Y-96816428D02*
X121578572Y-96816428D01*
X121578572Y-96816428D02*
X121721429Y-96887857D01*
X121721429Y-96887857D02*
X121792858Y-97030714D01*
X121792858Y-97030714D02*
X121792858Y-97816428D01*
X123578572Y-96459285D02*
X123650000Y-96387857D01*
X123650000Y-96387857D02*
X123792858Y-96316428D01*
X123792858Y-96316428D02*
X124150000Y-96316428D01*
X124150000Y-96316428D02*
X124292858Y-96387857D01*
X124292858Y-96387857D02*
X124364286Y-96459285D01*
X124364286Y-96459285D02*
X124435715Y-96602142D01*
X124435715Y-96602142D02*
X124435715Y-96745000D01*
X124435715Y-96745000D02*
X124364286Y-96959285D01*
X124364286Y-96959285D02*
X123507143Y-97816428D01*
X123507143Y-97816428D02*
X124435715Y-97816428D01*
X125364286Y-96316428D02*
X125507143Y-96316428D01*
X125507143Y-96316428D02*
X125650000Y-96387857D01*
X125650000Y-96387857D02*
X125721429Y-96459285D01*
X125721429Y-96459285D02*
X125792857Y-96602142D01*
X125792857Y-96602142D02*
X125864286Y-96887857D01*
X125864286Y-96887857D02*
X125864286Y-97245000D01*
X125864286Y-97245000D02*
X125792857Y-97530714D01*
X125792857Y-97530714D02*
X125721429Y-97673571D01*
X125721429Y-97673571D02*
X125650000Y-97745000D01*
X125650000Y-97745000D02*
X125507143Y-97816428D01*
X125507143Y-97816428D02*
X125364286Y-97816428D01*
X125364286Y-97816428D02*
X125221429Y-97745000D01*
X125221429Y-97745000D02*
X125150000Y-97673571D01*
X125150000Y-97673571D02*
X125078571Y-97530714D01*
X125078571Y-97530714D02*
X125007143Y-97245000D01*
X125007143Y-97245000D02*
X125007143Y-96887857D01*
X125007143Y-96887857D02*
X125078571Y-96602142D01*
X125078571Y-96602142D02*
X125150000Y-96459285D01*
X125150000Y-96459285D02*
X125221429Y-96387857D01*
X125221429Y-96387857D02*
X125364286Y-96316428D01*
X126435714Y-96459285D02*
X126507142Y-96387857D01*
X126507142Y-96387857D02*
X126650000Y-96316428D01*
X126650000Y-96316428D02*
X127007142Y-96316428D01*
X127007142Y-96316428D02*
X127150000Y-96387857D01*
X127150000Y-96387857D02*
X127221428Y-96459285D01*
X127221428Y-96459285D02*
X127292857Y-96602142D01*
X127292857Y-96602142D02*
X127292857Y-96745000D01*
X127292857Y-96745000D02*
X127221428Y-96959285D01*
X127221428Y-96959285D02*
X126364285Y-97816428D01*
X126364285Y-97816428D02*
X127292857Y-97816428D01*
X128578571Y-96816428D02*
X128578571Y-97816428D01*
X128221428Y-96245000D02*
X127864285Y-97316428D01*
X127864285Y-97316428D02*
X128792856Y-97316428D01*
D11*
X108752380Y-94710476D02*
X108752380Y-90710476D01*
X108752380Y-90710476D02*
X110085714Y-93567619D01*
X110085714Y-93567619D02*
X111419047Y-90710476D01*
X111419047Y-90710476D02*
X111419047Y-94710476D01*
X113133333Y-93567619D02*
X115038095Y-93567619D01*
X112752381Y-94710476D02*
X114085714Y-90710476D01*
X114085714Y-90710476D02*
X115419048Y-94710476D01*
X116371428Y-90710476D02*
X119038095Y-94710476D01*
X119038095Y-90710476D02*
X116371428Y-94710476D01*
X123419047Y-91091428D02*
X123609523Y-90900952D01*
X123609523Y-90900952D02*
X123990476Y-90710476D01*
X123990476Y-90710476D02*
X124942857Y-90710476D01*
X124942857Y-90710476D02*
X125323809Y-90900952D01*
X125323809Y-90900952D02*
X125514285Y-91091428D01*
X125514285Y-91091428D02*
X125704762Y-91472380D01*
X125704762Y-91472380D02*
X125704762Y-91853333D01*
X125704762Y-91853333D02*
X125514285Y-92424761D01*
X125514285Y-92424761D02*
X123228571Y-94710476D01*
X123228571Y-94710476D02*
X125704762Y-94710476D01*
X129133333Y-92043809D02*
X129133333Y-94710476D01*
X128180952Y-90520000D02*
X127228571Y-93377142D01*
X127228571Y-93377142D02*
X129704762Y-93377142D01*
X130657143Y-90710476D02*
X131990476Y-94710476D01*
X131990476Y-94710476D02*
X133323810Y-90710476D01*
X137514285Y-91091428D02*
X137704761Y-90900952D01*
X137704761Y-90900952D02*
X138085714Y-90710476D01*
X138085714Y-90710476D02*
X139038095Y-90710476D01*
X139038095Y-90710476D02*
X139419047Y-90900952D01*
X139419047Y-90900952D02*
X139609523Y-91091428D01*
X139609523Y-91091428D02*
X139800000Y-91472380D01*
X139800000Y-91472380D02*
X139800000Y-91853333D01*
X139800000Y-91853333D02*
X139609523Y-92424761D01*
X139609523Y-92424761D02*
X137323809Y-94710476D01*
X137323809Y-94710476D02*
X139800000Y-94710476D01*
X141323809Y-93567619D02*
X143228571Y-93567619D01*
X140942857Y-94710476D02*
X142276190Y-90710476D01*
X142276190Y-90710476D02*
X143609524Y-94710476D01*
D12*
X148223809Y-60050476D02*
X148033333Y-59955238D01*
X148033333Y-59955238D02*
X147747619Y-59955238D01*
X147747619Y-59955238D02*
X147461904Y-60050476D01*
X147461904Y-60050476D02*
X147271428Y-60240952D01*
X147271428Y-60240952D02*
X147176190Y-60431428D01*
X147176190Y-60431428D02*
X147080952Y-60812380D01*
X147080952Y-60812380D02*
X147080952Y-61098095D01*
X147080952Y-61098095D02*
X147176190Y-61479047D01*
X147176190Y-61479047D02*
X147271428Y-61669523D01*
X147271428Y-61669523D02*
X147461904Y-61860000D01*
X147461904Y-61860000D02*
X147747619Y-61955238D01*
X147747619Y-61955238D02*
X147938095Y-61955238D01*
X147938095Y-61955238D02*
X148223809Y-61860000D01*
X148223809Y-61860000D02*
X148319047Y-61764761D01*
X148319047Y-61764761D02*
X148319047Y-61098095D01*
X148319047Y-61098095D02*
X147938095Y-61098095D01*
X149176190Y-61955238D02*
X149176190Y-59955238D01*
X149176190Y-59955238D02*
X149938095Y-59955238D01*
X149938095Y-59955238D02*
X150128571Y-60050476D01*
X150128571Y-60050476D02*
X150223809Y-60145714D01*
X150223809Y-60145714D02*
X150319047Y-60336190D01*
X150319047Y-60336190D02*
X150319047Y-60621904D01*
X150319047Y-60621904D02*
X150223809Y-60812380D01*
X150223809Y-60812380D02*
X150128571Y-60907619D01*
X150128571Y-60907619D02*
X149938095Y-61002857D01*
X149938095Y-61002857D02*
X149176190Y-61002857D01*
X151176190Y-61955238D02*
X151176190Y-59955238D01*
X152509523Y-59955238D02*
X152890476Y-59955238D01*
X152890476Y-59955238D02*
X153080952Y-60050476D01*
X153080952Y-60050476D02*
X153271428Y-60240952D01*
X153271428Y-60240952D02*
X153366666Y-60621904D01*
X153366666Y-60621904D02*
X153366666Y-61288571D01*
X153366666Y-61288571D02*
X153271428Y-61669523D01*
X153271428Y-61669523D02*
X153080952Y-61860000D01*
X153080952Y-61860000D02*
X152890476Y-61955238D01*
X152890476Y-61955238D02*
X152509523Y-61955238D01*
X152509523Y-61955238D02*
X152319047Y-61860000D01*
X152319047Y-61860000D02*
X152128571Y-61669523D01*
X152128571Y-61669523D02*
X152033333Y-61288571D01*
X152033333Y-61288571D02*
X152033333Y-60621904D01*
X152033333Y-60621904D02*
X152128571Y-60240952D01*
X152128571Y-60240952D02*
X152319047Y-60050476D01*
X152319047Y-60050476D02*
X152509523Y-59955238D01*
X155652381Y-60145714D02*
X155747619Y-60050476D01*
X155747619Y-60050476D02*
X155938095Y-59955238D01*
X155938095Y-59955238D02*
X156414286Y-59955238D01*
X156414286Y-59955238D02*
X156604762Y-60050476D01*
X156604762Y-60050476D02*
X156700000Y-60145714D01*
X156700000Y-60145714D02*
X156795238Y-60336190D01*
X156795238Y-60336190D02*
X156795238Y-60526666D01*
X156795238Y-60526666D02*
X156700000Y-60812380D01*
X156700000Y-60812380D02*
X155557143Y-61955238D01*
X155557143Y-61955238D02*
X156795238Y-61955238D01*
X158604762Y-59955238D02*
X157652381Y-59955238D01*
X157652381Y-59955238D02*
X157557143Y-60907619D01*
X157557143Y-60907619D02*
X157652381Y-60812380D01*
X157652381Y-60812380D02*
X157842857Y-60717142D01*
X157842857Y-60717142D02*
X158319048Y-60717142D01*
X158319048Y-60717142D02*
X158509524Y-60812380D01*
X158509524Y-60812380D02*
X158604762Y-60907619D01*
X158604762Y-60907619D02*
X158700000Y-61098095D01*
X158700000Y-61098095D02*
X158700000Y-61574285D01*
X158700000Y-61574285D02*
X158604762Y-61764761D01*
X158604762Y-61764761D02*
X158509524Y-61860000D01*
X158509524Y-61860000D02*
X158319048Y-61955238D01*
X158319048Y-61955238D02*
X157842857Y-61955238D01*
X157842857Y-61955238D02*
X157652381Y-61860000D01*
X157652381Y-61860000D02*
X157557143Y-61764761D01*
X101873809Y-72750476D02*
X101683333Y-72655238D01*
X101683333Y-72655238D02*
X101397619Y-72655238D01*
X101397619Y-72655238D02*
X101111904Y-72750476D01*
X101111904Y-72750476D02*
X100921428Y-72940952D01*
X100921428Y-72940952D02*
X100826190Y-73131428D01*
X100826190Y-73131428D02*
X100730952Y-73512380D01*
X100730952Y-73512380D02*
X100730952Y-73798095D01*
X100730952Y-73798095D02*
X100826190Y-74179047D01*
X100826190Y-74179047D02*
X100921428Y-74369523D01*
X100921428Y-74369523D02*
X101111904Y-74560000D01*
X101111904Y-74560000D02*
X101397619Y-74655238D01*
X101397619Y-74655238D02*
X101588095Y-74655238D01*
X101588095Y-74655238D02*
X101873809Y-74560000D01*
X101873809Y-74560000D02*
X101969047Y-74464761D01*
X101969047Y-74464761D02*
X101969047Y-73798095D01*
X101969047Y-73798095D02*
X101588095Y-73798095D01*
X102826190Y-74655238D02*
X102826190Y-72655238D01*
X102826190Y-72655238D02*
X103588095Y-72655238D01*
X103588095Y-72655238D02*
X103778571Y-72750476D01*
X103778571Y-72750476D02*
X103873809Y-72845714D01*
X103873809Y-72845714D02*
X103969047Y-73036190D01*
X103969047Y-73036190D02*
X103969047Y-73321904D01*
X103969047Y-73321904D02*
X103873809Y-73512380D01*
X103873809Y-73512380D02*
X103778571Y-73607619D01*
X103778571Y-73607619D02*
X103588095Y-73702857D01*
X103588095Y-73702857D02*
X102826190Y-73702857D01*
X104826190Y-74655238D02*
X104826190Y-72655238D01*
X106159523Y-72655238D02*
X106540476Y-72655238D01*
X106540476Y-72655238D02*
X106730952Y-72750476D01*
X106730952Y-72750476D02*
X106921428Y-72940952D01*
X106921428Y-72940952D02*
X107016666Y-73321904D01*
X107016666Y-73321904D02*
X107016666Y-73988571D01*
X107016666Y-73988571D02*
X106921428Y-74369523D01*
X106921428Y-74369523D02*
X106730952Y-74560000D01*
X106730952Y-74560000D02*
X106540476Y-74655238D01*
X106540476Y-74655238D02*
X106159523Y-74655238D01*
X106159523Y-74655238D02*
X105969047Y-74560000D01*
X105969047Y-74560000D02*
X105778571Y-74369523D01*
X105778571Y-74369523D02*
X105683333Y-73988571D01*
X105683333Y-73988571D02*
X105683333Y-73321904D01*
X105683333Y-73321904D02*
X105778571Y-72940952D01*
X105778571Y-72940952D02*
X105969047Y-72750476D01*
X105969047Y-72750476D02*
X106159523Y-72655238D01*
X109302381Y-72845714D02*
X109397619Y-72750476D01*
X109397619Y-72750476D02*
X109588095Y-72655238D01*
X109588095Y-72655238D02*
X110064286Y-72655238D01*
X110064286Y-72655238D02*
X110254762Y-72750476D01*
X110254762Y-72750476D02*
X110350000Y-72845714D01*
X110350000Y-72845714D02*
X110445238Y-73036190D01*
X110445238Y-73036190D02*
X110445238Y-73226666D01*
X110445238Y-73226666D02*
X110350000Y-73512380D01*
X110350000Y-73512380D02*
X109207143Y-74655238D01*
X109207143Y-74655238D02*
X110445238Y-74655238D01*
X112159524Y-73321904D02*
X112159524Y-74655238D01*
X111683333Y-72560000D02*
X111207143Y-73988571D01*
X111207143Y-73988571D02*
X112445238Y-73988571D01*
X102373809Y-54350476D02*
X102183333Y-54255238D01*
X102183333Y-54255238D02*
X101897619Y-54255238D01*
X101897619Y-54255238D02*
X101611904Y-54350476D01*
X101611904Y-54350476D02*
X101421428Y-54540952D01*
X101421428Y-54540952D02*
X101326190Y-54731428D01*
X101326190Y-54731428D02*
X101230952Y-55112380D01*
X101230952Y-55112380D02*
X101230952Y-55398095D01*
X101230952Y-55398095D02*
X101326190Y-55779047D01*
X101326190Y-55779047D02*
X101421428Y-55969523D01*
X101421428Y-55969523D02*
X101611904Y-56160000D01*
X101611904Y-56160000D02*
X101897619Y-56255238D01*
X101897619Y-56255238D02*
X102088095Y-56255238D01*
X102088095Y-56255238D02*
X102373809Y-56160000D01*
X102373809Y-56160000D02*
X102469047Y-56064761D01*
X102469047Y-56064761D02*
X102469047Y-55398095D01*
X102469047Y-55398095D02*
X102088095Y-55398095D01*
X103326190Y-56255238D02*
X103326190Y-54255238D01*
X103326190Y-54255238D02*
X104088095Y-54255238D01*
X104088095Y-54255238D02*
X104278571Y-54350476D01*
X104278571Y-54350476D02*
X104373809Y-54445714D01*
X104373809Y-54445714D02*
X104469047Y-54636190D01*
X104469047Y-54636190D02*
X104469047Y-54921904D01*
X104469047Y-54921904D02*
X104373809Y-55112380D01*
X104373809Y-55112380D02*
X104278571Y-55207619D01*
X104278571Y-55207619D02*
X104088095Y-55302857D01*
X104088095Y-55302857D02*
X103326190Y-55302857D01*
X105326190Y-56255238D02*
X105326190Y-54255238D01*
X106659523Y-54255238D02*
X107040476Y-54255238D01*
X107040476Y-54255238D02*
X107230952Y-54350476D01*
X107230952Y-54350476D02*
X107421428Y-54540952D01*
X107421428Y-54540952D02*
X107516666Y-54921904D01*
X107516666Y-54921904D02*
X107516666Y-55588571D01*
X107516666Y-55588571D02*
X107421428Y-55969523D01*
X107421428Y-55969523D02*
X107230952Y-56160000D01*
X107230952Y-56160000D02*
X107040476Y-56255238D01*
X107040476Y-56255238D02*
X106659523Y-56255238D01*
X106659523Y-56255238D02*
X106469047Y-56160000D01*
X106469047Y-56160000D02*
X106278571Y-55969523D01*
X106278571Y-55969523D02*
X106183333Y-55588571D01*
X106183333Y-55588571D02*
X106183333Y-54921904D01*
X106183333Y-54921904D02*
X106278571Y-54540952D01*
X106278571Y-54540952D02*
X106469047Y-54350476D01*
X106469047Y-54350476D02*
X106659523Y-54255238D01*
X109802381Y-54445714D02*
X109897619Y-54350476D01*
X109897619Y-54350476D02*
X110088095Y-54255238D01*
X110088095Y-54255238D02*
X110564286Y-54255238D01*
X110564286Y-54255238D02*
X110754762Y-54350476D01*
X110754762Y-54350476D02*
X110850000Y-54445714D01*
X110850000Y-54445714D02*
X110945238Y-54636190D01*
X110945238Y-54636190D02*
X110945238Y-54826666D01*
X110945238Y-54826666D02*
X110850000Y-55112380D01*
X110850000Y-55112380D02*
X109707143Y-56255238D01*
X109707143Y-56255238D02*
X110945238Y-56255238D01*
X111611905Y-54255238D02*
X112850000Y-54255238D01*
X112850000Y-54255238D02*
X112183333Y-55017142D01*
X112183333Y-55017142D02*
X112469048Y-55017142D01*
X112469048Y-55017142D02*
X112659524Y-55112380D01*
X112659524Y-55112380D02*
X112754762Y-55207619D01*
X112754762Y-55207619D02*
X112850000Y-55398095D01*
X112850000Y-55398095D02*
X112850000Y-55874285D01*
X112850000Y-55874285D02*
X112754762Y-56064761D01*
X112754762Y-56064761D02*
X112659524Y-56160000D01*
X112659524Y-56160000D02*
X112469048Y-56255238D01*
X112469048Y-56255238D02*
X111897619Y-56255238D01*
X111897619Y-56255238D02*
X111707143Y-56160000D01*
X111707143Y-56160000D02*
X111611905Y-56064761D01*
D13*
X153677050Y-73517619D02*
X153737526Y-73336190D01*
X153737526Y-73336190D02*
X153737526Y-73033809D01*
X153737526Y-73033809D02*
X153677050Y-72912857D01*
X153677050Y-72912857D02*
X153616573Y-72852381D01*
X153616573Y-72852381D02*
X153495621Y-72791904D01*
X153495621Y-72791904D02*
X153374669Y-72791904D01*
X153374669Y-72791904D02*
X153253716Y-72852381D01*
X153253716Y-72852381D02*
X153193240Y-72912857D01*
X153193240Y-72912857D02*
X153132764Y-73033809D01*
X153132764Y-73033809D02*
X153072288Y-73275714D01*
X153072288Y-73275714D02*
X153011811Y-73396666D01*
X153011811Y-73396666D02*
X152951335Y-73457143D01*
X152951335Y-73457143D02*
X152830383Y-73517619D01*
X152830383Y-73517619D02*
X152709430Y-73517619D01*
X152709430Y-73517619D02*
X152588478Y-73457143D01*
X152588478Y-73457143D02*
X152528002Y-73396666D01*
X152528002Y-73396666D02*
X152467526Y-73275714D01*
X152467526Y-73275714D02*
X152467526Y-72973333D01*
X152467526Y-72973333D02*
X152528002Y-72791904D01*
X153737526Y-71582380D02*
X153737526Y-72308095D01*
X153737526Y-71945238D02*
X152467526Y-71945238D01*
X152467526Y-71945238D02*
X152648954Y-72066190D01*
X152648954Y-72066190D02*
X152769907Y-72187142D01*
X152769907Y-72187142D02*
X152830383Y-72308095D01*
X112276667Y-87904788D02*
X111853333Y-87904788D01*
X111853333Y-88570026D02*
X111853333Y-87300026D01*
X111853333Y-87300026D02*
X112458095Y-87300026D01*
X112881428Y-87420978D02*
X112941904Y-87360502D01*
X112941904Y-87360502D02*
X113062857Y-87300026D01*
X113062857Y-87300026D02*
X113365238Y-87300026D01*
X113365238Y-87300026D02*
X113486190Y-87360502D01*
X113486190Y-87360502D02*
X113546666Y-87420978D01*
X113546666Y-87420978D02*
X113607143Y-87541930D01*
X113607143Y-87541930D02*
X113607143Y-87662883D01*
X113607143Y-87662883D02*
X113546666Y-87844311D01*
X113546666Y-87844311D02*
X112820952Y-88570026D01*
X112820952Y-88570026D02*
X113607143Y-88570026D01*
X112476667Y-68572288D02*
X112053333Y-68572288D01*
X112053333Y-69237526D02*
X112053333Y-67967526D01*
X112053333Y-67967526D02*
X112658095Y-67967526D01*
X113807143Y-69237526D02*
X113081428Y-69237526D01*
X113444285Y-69237526D02*
X113444285Y-67967526D01*
X113444285Y-67967526D02*
X113323333Y-68148954D01*
X113323333Y-68148954D02*
X113202381Y-68269907D01*
X113202381Y-68269907D02*
X113081428Y-68330383D01*
D10*
X110872619Y-81925833D02*
X111586904Y-81925833D01*
X111586904Y-81925833D02*
X111729761Y-81973452D01*
X111729761Y-81973452D02*
X111825000Y-82068690D01*
X111825000Y-82068690D02*
X111872619Y-82211547D01*
X111872619Y-82211547D02*
X111872619Y-82306785D01*
X110872619Y-81544880D02*
X110872619Y-80925833D01*
X110872619Y-80925833D02*
X111253571Y-81259166D01*
X111253571Y-81259166D02*
X111253571Y-81116309D01*
X111253571Y-81116309D02*
X111301190Y-81021071D01*
X111301190Y-81021071D02*
X111348809Y-80973452D01*
X111348809Y-80973452D02*
X111444047Y-80925833D01*
X111444047Y-80925833D02*
X111682142Y-80925833D01*
X111682142Y-80925833D02*
X111777380Y-80973452D01*
X111777380Y-80973452D02*
X111825000Y-81021071D01*
X111825000Y-81021071D02*
X111872619Y-81116309D01*
X111872619Y-81116309D02*
X111872619Y-81402023D01*
X111872619Y-81402023D02*
X111825000Y-81497261D01*
X111825000Y-81497261D02*
X111777380Y-81544880D01*
X113412619Y-63543333D02*
X114126904Y-63543333D01*
X114126904Y-63543333D02*
X114269761Y-63590952D01*
X114269761Y-63590952D02*
X114365000Y-63686190D01*
X114365000Y-63686190D02*
X114412619Y-63829047D01*
X114412619Y-63829047D02*
X114412619Y-63924285D01*
X113507857Y-63114761D02*
X113460238Y-63067142D01*
X113460238Y-63067142D02*
X113412619Y-62971904D01*
X113412619Y-62971904D02*
X113412619Y-62733809D01*
X113412619Y-62733809D02*
X113460238Y-62638571D01*
X113460238Y-62638571D02*
X113507857Y-62590952D01*
X113507857Y-62590952D02*
X113603095Y-62543333D01*
X113603095Y-62543333D02*
X113698333Y-62543333D01*
X113698333Y-62543333D02*
X113841190Y-62590952D01*
X113841190Y-62590952D02*
X114412619Y-63162380D01*
X114412619Y-63162380D02*
X114412619Y-62543333D01*
X139203333Y-68712619D02*
X138870000Y-68236428D01*
X138631905Y-68712619D02*
X138631905Y-67712619D01*
X138631905Y-67712619D02*
X139012857Y-67712619D01*
X139012857Y-67712619D02*
X139108095Y-67760238D01*
X139108095Y-67760238D02*
X139155714Y-67807857D01*
X139155714Y-67807857D02*
X139203333Y-67903095D01*
X139203333Y-67903095D02*
X139203333Y-68045952D01*
X139203333Y-68045952D02*
X139155714Y-68141190D01*
X139155714Y-68141190D02*
X139108095Y-68188809D01*
X139108095Y-68188809D02*
X139012857Y-68236428D01*
X139012857Y-68236428D02*
X138631905Y-68236428D01*
X140060476Y-68045952D02*
X140060476Y-68712619D01*
X139822381Y-67665000D02*
X139584286Y-68379285D01*
X139584286Y-68379285D02*
X140203333Y-68379285D01*
X139203333Y-87175119D02*
X138870000Y-86698928D01*
X138631905Y-87175119D02*
X138631905Y-86175119D01*
X138631905Y-86175119D02*
X139012857Y-86175119D01*
X139012857Y-86175119D02*
X139108095Y-86222738D01*
X139108095Y-86222738D02*
X139155714Y-86270357D01*
X139155714Y-86270357D02*
X139203333Y-86365595D01*
X139203333Y-86365595D02*
X139203333Y-86508452D01*
X139203333Y-86508452D02*
X139155714Y-86603690D01*
X139155714Y-86603690D02*
X139108095Y-86651309D01*
X139108095Y-86651309D02*
X139012857Y-86698928D01*
X139012857Y-86698928D02*
X138631905Y-86698928D01*
X139536667Y-86175119D02*
X140155714Y-86175119D01*
X140155714Y-86175119D02*
X139822381Y-86556071D01*
X139822381Y-86556071D02*
X139965238Y-86556071D01*
X139965238Y-86556071D02*
X140060476Y-86603690D01*
X140060476Y-86603690D02*
X140108095Y-86651309D01*
X140108095Y-86651309D02*
X140155714Y-86746547D01*
X140155714Y-86746547D02*
X140155714Y-86984642D01*
X140155714Y-86984642D02*
X140108095Y-87079880D01*
X140108095Y-87079880D02*
X140060476Y-87127500D01*
X140060476Y-87127500D02*
X139965238Y-87175119D01*
X139965238Y-87175119D02*
X139679524Y-87175119D01*
X139679524Y-87175119D02*
X139584286Y-87127500D01*
X139584286Y-87127500D02*
X139536667Y-87079880D01*
X139203333Y-84635119D02*
X138870000Y-84158928D01*
X138631905Y-84635119D02*
X138631905Y-83635119D01*
X138631905Y-83635119D02*
X139012857Y-83635119D01*
X139012857Y-83635119D02*
X139108095Y-83682738D01*
X139108095Y-83682738D02*
X139155714Y-83730357D01*
X139155714Y-83730357D02*
X139203333Y-83825595D01*
X139203333Y-83825595D02*
X139203333Y-83968452D01*
X139203333Y-83968452D02*
X139155714Y-84063690D01*
X139155714Y-84063690D02*
X139108095Y-84111309D01*
X139108095Y-84111309D02*
X139012857Y-84158928D01*
X139012857Y-84158928D02*
X138631905Y-84158928D01*
X139584286Y-83730357D02*
X139631905Y-83682738D01*
X139631905Y-83682738D02*
X139727143Y-83635119D01*
X139727143Y-83635119D02*
X139965238Y-83635119D01*
X139965238Y-83635119D02*
X140060476Y-83682738D01*
X140060476Y-83682738D02*
X140108095Y-83730357D01*
X140108095Y-83730357D02*
X140155714Y-83825595D01*
X140155714Y-83825595D02*
X140155714Y-83920833D01*
X140155714Y-83920833D02*
X140108095Y-84063690D01*
X140108095Y-84063690D02*
X139536667Y-84635119D01*
X139536667Y-84635119D02*
X140155714Y-84635119D01*
X139203333Y-66172619D02*
X138870000Y-65696428D01*
X138631905Y-66172619D02*
X138631905Y-65172619D01*
X138631905Y-65172619D02*
X139012857Y-65172619D01*
X139012857Y-65172619D02*
X139108095Y-65220238D01*
X139108095Y-65220238D02*
X139155714Y-65267857D01*
X139155714Y-65267857D02*
X139203333Y-65363095D01*
X139203333Y-65363095D02*
X139203333Y-65505952D01*
X139203333Y-65505952D02*
X139155714Y-65601190D01*
X139155714Y-65601190D02*
X139108095Y-65648809D01*
X139108095Y-65648809D02*
X139012857Y-65696428D01*
X139012857Y-65696428D02*
X138631905Y-65696428D01*
X140155714Y-66172619D02*
X139584286Y-66172619D01*
X139870000Y-66172619D02*
X139870000Y-65172619D01*
X139870000Y-65172619D02*
X139774762Y-65315476D01*
X139774762Y-65315476D02*
X139679524Y-65410714D01*
X139679524Y-65410714D02*
X139584286Y-65458333D01*
D13*
X124462618Y-78410526D02*
X124462618Y-77140526D01*
X125188333Y-78410526D02*
X124644047Y-77684811D01*
X125188333Y-77140526D02*
X124462618Y-77866240D01*
X125672142Y-77261478D02*
X125732618Y-77201002D01*
X125732618Y-77201002D02*
X125853571Y-77140526D01*
X125853571Y-77140526D02*
X126155952Y-77140526D01*
X126155952Y-77140526D02*
X126276904Y-77201002D01*
X126276904Y-77201002D02*
X126337380Y-77261478D01*
X126337380Y-77261478D02*
X126397857Y-77382430D01*
X126397857Y-77382430D02*
X126397857Y-77503383D01*
X126397857Y-77503383D02*
X126337380Y-77684811D01*
X126337380Y-77684811D02*
X125611666Y-78410526D01*
X125611666Y-78410526D02*
X126397857Y-78410526D01*
D10*
X130812619Y-86288094D02*
X129812619Y-86288094D01*
X129812619Y-86288094D02*
X129812619Y-86049999D01*
X129812619Y-86049999D02*
X129860238Y-85907142D01*
X129860238Y-85907142D02*
X129955476Y-85811904D01*
X129955476Y-85811904D02*
X130050714Y-85764285D01*
X130050714Y-85764285D02*
X130241190Y-85716666D01*
X130241190Y-85716666D02*
X130384047Y-85716666D01*
X130384047Y-85716666D02*
X130574523Y-85764285D01*
X130574523Y-85764285D02*
X130669761Y-85811904D01*
X130669761Y-85811904D02*
X130765000Y-85907142D01*
X130765000Y-85907142D02*
X130812619Y-86049999D01*
X130812619Y-86049999D02*
X130812619Y-86288094D01*
X129907857Y-85335713D02*
X129860238Y-85288094D01*
X129860238Y-85288094D02*
X129812619Y-85192856D01*
X129812619Y-85192856D02*
X129812619Y-84954761D01*
X129812619Y-84954761D02*
X129860238Y-84859523D01*
X129860238Y-84859523D02*
X129907857Y-84811904D01*
X129907857Y-84811904D02*
X130003095Y-84764285D01*
X130003095Y-84764285D02*
X130098333Y-84764285D01*
X130098333Y-84764285D02*
X130241190Y-84811904D01*
X130241190Y-84811904D02*
X130812619Y-85383332D01*
X130812619Y-85383332D02*
X130812619Y-84764285D01*
X130662619Y-67538094D02*
X129662619Y-67538094D01*
X129662619Y-67538094D02*
X129662619Y-67299999D01*
X129662619Y-67299999D02*
X129710238Y-67157142D01*
X129710238Y-67157142D02*
X129805476Y-67061904D01*
X129805476Y-67061904D02*
X129900714Y-67014285D01*
X129900714Y-67014285D02*
X130091190Y-66966666D01*
X130091190Y-66966666D02*
X130234047Y-66966666D01*
X130234047Y-66966666D02*
X130424523Y-67014285D01*
X130424523Y-67014285D02*
X130519761Y-67061904D01*
X130519761Y-67061904D02*
X130615000Y-67157142D01*
X130615000Y-67157142D02*
X130662619Y-67299999D01*
X130662619Y-67299999D02*
X130662619Y-67538094D01*
X130662619Y-66014285D02*
X130662619Y-66585713D01*
X130662619Y-66299999D02*
X129662619Y-66299999D01*
X129662619Y-66299999D02*
X129805476Y-66395237D01*
X129805476Y-66395237D02*
X129900714Y-66490475D01*
X129900714Y-66490475D02*
X129948333Y-66585713D01*
D13*
X124462618Y-59360526D02*
X124462618Y-58090526D01*
X125188333Y-59360526D02*
X124644047Y-58634811D01*
X125188333Y-58090526D02*
X124462618Y-58816240D01*
X126397857Y-59360526D02*
X125672142Y-59360526D01*
X126034999Y-59360526D02*
X126034999Y-58090526D01*
X126034999Y-58090526D02*
X125914047Y-58271954D01*
X125914047Y-58271954D02*
X125793095Y-58392907D01*
X125793095Y-58392907D02*
X125672142Y-58453383D01*
D14*
X149550000Y-63550000D02*
X149550000Y-63550000D01*
X149450000Y-63550000D02*
X149450000Y-63550000D01*
D15*
X158850000Y-66850000D02*
X158850000Y-78250000D01*
X158350000Y-66850000D02*
X158850000Y-66850000D01*
X147950000Y-66850000D02*
X147450000Y-66850000D01*
X147450000Y-66850000D02*
X147450000Y-78250000D01*
X158850000Y-78250000D02*
X158350000Y-78250000D01*
X147450000Y-78250000D02*
X147950000Y-78250000D01*
D14*
X149450000Y-63550000D02*
G75*
G03*
X149550000Y-63550000I50000J0D01*
G01*
X149550000Y-63550000D02*
G75*
G03*
X149450000Y-63550000I-50000J0D01*
G01*
D15*
X119370000Y-88517500D02*
X119370000Y-82367500D01*
X119370000Y-69415000D02*
X119370000Y-63265000D01*
D16*
X101290000Y-76532500D02*
X101290000Y-86652500D01*
X104803000Y-77810500D02*
X104696000Y-77704500D01*
X105076000Y-83085500D02*
X104696000Y-82705500D01*
X108004000Y-80480500D02*
X107897000Y-80373500D01*
X101050000Y-76292500D02*
X101050000Y-76692500D01*
X102850000Y-76532500D02*
X102850000Y-86652500D01*
X105358000Y-82834500D02*
X104962000Y-82439500D01*
X101690000Y-76292500D02*
X101050000Y-76292500D01*
X105069000Y-77544500D02*
X104962000Y-77438500D01*
X107738000Y-85746500D02*
X107342000Y-85351500D01*
X110410000Y-86652500D02*
X101290000Y-86652500D01*
X101750000Y-76532500D02*
X101750000Y-86652500D01*
X107738000Y-80746500D02*
X107631000Y-80639500D01*
X110410000Y-76532500D02*
X110410000Y-86652500D01*
X108004000Y-85480500D02*
X107624000Y-85100500D01*
X110410000Y-76532500D02*
X101290000Y-76532500D01*
X108530000Y-84092500D02*
G75*
G03*
X108530000Y-84092500I-2180000J0D01*
G01*
X108530000Y-79092500D02*
G75*
G03*
X108530000Y-79092500I-2180000J0D01*
G01*
X101290000Y-58150000D02*
X101290000Y-68270000D01*
X104803000Y-59428000D02*
X104696000Y-59322000D01*
X105076000Y-64703000D02*
X104696000Y-64323000D01*
X108004000Y-62098000D02*
X107897000Y-61991000D01*
X101050000Y-57910000D02*
X101050000Y-58310000D01*
X102850000Y-58150000D02*
X102850000Y-68270000D01*
X105358000Y-64452000D02*
X104962000Y-64057000D01*
X101690000Y-57910000D02*
X101050000Y-57910000D01*
X105069000Y-59162000D02*
X104962000Y-59056000D01*
X107738000Y-67364000D02*
X107342000Y-66969000D01*
X110410000Y-68270000D02*
X101290000Y-68270000D01*
X101750000Y-58150000D02*
X101750000Y-68270000D01*
X107738000Y-62364000D02*
X107631000Y-62257000D01*
X110410000Y-58150000D02*
X110410000Y-68270000D01*
X108004000Y-67098000D02*
X107624000Y-66718000D01*
X110410000Y-58150000D02*
X101290000Y-58150000D01*
X108530000Y-65710000D02*
G75*
G03*
X108530000Y-65710000I-2180000J0D01*
G01*
X108530000Y-60710000D02*
G75*
G03*
X108530000Y-60710000I-2180000J0D01*
G01*
X134640436Y-67340000D02*
X136094564Y-67340000D01*
X134640436Y-69160000D02*
X136094564Y-69160000D01*
X134640436Y-85802500D02*
X136094564Y-85802500D01*
X134640436Y-87622500D02*
X136094564Y-87622500D01*
X136094564Y-85082500D02*
X134640436Y-85082500D01*
X136094564Y-83262500D02*
X134640436Y-83262500D01*
X136094564Y-66620000D02*
X134640436Y-66620000D01*
X136094564Y-64800000D02*
X134640436Y-64800000D01*
D14*
X135900000Y-79235000D02*
X135900000Y-75735000D01*
X135900000Y-75735000D02*
X114900000Y-75735000D01*
D15*
X134390000Y-79810000D02*
X134390000Y-79810000D01*
X134190000Y-79810000D02*
X134190000Y-79810000D01*
D14*
X122860000Y-79235000D02*
X135900000Y-79235000D01*
X114900000Y-75735000D02*
X114900000Y-79235000D01*
D15*
X134190000Y-79810000D02*
G75*
G03*
X134390000Y-79810000I100000J0D01*
G01*
X134390000Y-79810000D02*
G75*
G03*
X134190000Y-79810000I-100000J0D01*
G01*
D16*
X129075000Y-83287500D02*
X126805000Y-83287500D01*
X129075000Y-87172500D02*
X129075000Y-83287500D01*
X126805000Y-83287500D02*
X126805000Y-87172500D01*
X129075000Y-64695000D02*
X126805000Y-64695000D01*
X129075000Y-68580000D02*
X129075000Y-64695000D01*
X126805000Y-64695000D02*
X126805000Y-68580000D01*
D14*
X135900000Y-60185000D02*
X135900000Y-56685000D01*
X135900000Y-56685000D02*
X114900000Y-56685000D01*
D15*
X134390000Y-60760000D02*
X134390000Y-60760000D01*
X134190000Y-60760000D02*
X134190000Y-60760000D01*
D14*
X122860000Y-60185000D02*
X135900000Y-60185000D01*
X114900000Y-56685000D02*
X114900000Y-60185000D01*
D15*
X134190000Y-60760000D02*
G75*
G03*
X134390000Y-60760000I100000J0D01*
G01*
X134390000Y-60760000D02*
G75*
G03*
X134190000Y-60760000I-100000J0D01*
G01*
%LPC*%
D17*
X149400000Y-65550000D03*
X149400000Y-79550000D03*
X156900000Y-79550000D03*
X156900000Y-65550000D03*
D18*
X108370000Y-48770000D03*
D19*
X108370000Y-46230000D03*
X110910000Y-48770000D03*
X110910000Y-46230000D03*
X113450000Y-48770000D03*
X113450000Y-46230000D03*
X115990000Y-48770000D03*
X115990000Y-46230000D03*
X118530000Y-48770000D03*
X118530000Y-46230000D03*
X121070000Y-48770000D03*
X121070000Y-46230000D03*
X123610000Y-48770000D03*
X123610000Y-46230000D03*
X126150000Y-48770000D03*
X126150000Y-46230000D03*
X128690000Y-48770000D03*
X128690000Y-46230000D03*
X131230000Y-48770000D03*
X131230000Y-46230000D03*
X133770000Y-48770000D03*
X133770000Y-46230000D03*
X136310000Y-48770000D03*
X136310000Y-46230000D03*
X138850000Y-48770000D03*
X138850000Y-46230000D03*
X141390000Y-48770000D03*
X141390000Y-46230000D03*
X143930000Y-48770000D03*
X143930000Y-46230000D03*
X146470000Y-48770000D03*
X146470000Y-46230000D03*
X149010000Y-48770000D03*
X149010000Y-46230000D03*
X151550000Y-48770000D03*
X151550000Y-46230000D03*
X154090000Y-48770000D03*
X154090000Y-46230000D03*
X156630000Y-48770000D03*
X156630000Y-46230000D03*
D20*
X122860000Y-85442500D03*
X115880000Y-85442500D03*
X122860000Y-66340000D03*
X115880000Y-66340000D03*
D21*
X106350000Y-79092500D03*
D22*
X106350000Y-84092500D03*
D21*
X106350000Y-60710000D03*
D22*
X106350000Y-65710000D03*
D23*
X136830000Y-68250000D03*
X133905000Y-68250000D03*
X136830000Y-86712500D03*
X133905000Y-86712500D03*
D24*
X133905000Y-84172500D03*
X136830000Y-84172500D03*
X133905000Y-65710000D03*
X136830000Y-65710000D03*
D25*
X134290000Y-78410000D03*
X131750000Y-78410000D03*
D26*
X121590000Y-78410000D03*
X116510000Y-78410000D03*
D27*
X127940000Y-84172500D03*
X127940000Y-86972500D03*
X127940000Y-65580000D03*
X127940000Y-68380000D03*
D25*
X134290000Y-59360000D03*
X131750000Y-59360000D03*
D26*
X121590000Y-59360000D03*
X116510000Y-59360000D03*
D28*
X161500000Y-47500000D03*
X103500000Y-96500000D03*
X103500000Y-47500000D03*
X161500000Y-96500000D03*
M02*
