G04 #@! TF.GenerationSoftware,KiCad,Pcbnew,7.0.1-0*
G04 #@! TF.CreationDate,2023-12-28T22:42:41+01:00*
G04 #@! TF.ProjectId,SSR-Shiled-v1,5353522d-5368-4696-9c65-642d76312e6b,rev?*
G04 #@! TF.SameCoordinates,Original*
G04 #@! TF.FileFunction,Copper,L2,Bot*
G04 #@! TF.FilePolarity,Positive*
%FSLAX46Y46*%
G04 Gerber Fmt 4.6, Leading zero omitted, Abs format (unit mm)*
G04 Created by KiCad (PCBNEW 7.0.1-0) date 2023-12-28 22:42:41*
%MOMM*%
%LPD*%
G01*
G04 APERTURE LIST*
G04 #@! TA.AperFunction,ComponentPad*
%ADD10R,1.700000X1.700000*%
G04 #@! TD*
G04 #@! TA.AperFunction,ComponentPad*
%ADD11O,1.700000X1.700000*%
G04 #@! TD*
G04 #@! TA.AperFunction,ComponentPad*
%ADD12R,2.600000X2.600000*%
G04 #@! TD*
G04 #@! TA.AperFunction,ComponentPad*
%ADD13C,2.600000*%
G04 #@! TD*
G04 #@! TA.AperFunction,ComponentPad*
%ADD14C,1.300000*%
G04 #@! TD*
G04 #@! TA.AperFunction,ComponentPad*
%ADD15C,1.650000*%
G04 #@! TD*
G04 APERTURE END LIST*
D10*
X108370000Y-48770000D03*
D11*
X108370000Y-46230000D03*
X110910000Y-48770000D03*
X110910000Y-46230000D03*
X113450000Y-48770000D03*
X113450000Y-46230000D03*
X115990000Y-48770000D03*
X115990000Y-46230000D03*
X118530000Y-48770000D03*
X118530000Y-46230000D03*
X121070000Y-48770000D03*
X121070000Y-46230000D03*
X123610000Y-48770000D03*
X123610000Y-46230000D03*
X126150000Y-48770000D03*
X126150000Y-46230000D03*
X128690000Y-48770000D03*
X128690000Y-46230000D03*
X131230000Y-48770000D03*
X131230000Y-46230000D03*
X133770000Y-48770000D03*
X133770000Y-46230000D03*
X136310000Y-48770000D03*
X136310000Y-46230000D03*
X138850000Y-48770000D03*
X138850000Y-46230000D03*
X141390000Y-48770000D03*
X141390000Y-46230000D03*
X143930000Y-48770000D03*
X143930000Y-46230000D03*
X146470000Y-48770000D03*
X146470000Y-46230000D03*
X149010000Y-48770000D03*
X149010000Y-46230000D03*
X151550000Y-48770000D03*
X151550000Y-46230000D03*
X154090000Y-48770000D03*
X154090000Y-46230000D03*
X156630000Y-48770000D03*
X156630000Y-46230000D03*
D12*
X106350000Y-79092500D03*
D13*
X106350000Y-84092500D03*
D12*
X106350000Y-60710000D03*
D13*
X106350000Y-65710000D03*
D14*
X134290000Y-78410000D03*
X131750000Y-78410000D03*
D15*
X121590000Y-78410000D03*
X116510000Y-78410000D03*
D14*
X134290000Y-59360000D03*
X131750000Y-59360000D03*
D15*
X121590000Y-59360000D03*
X116510000Y-59360000D03*
G04 #@! TA.AperFunction,Conductor*
G36*
X162003472Y-44050695D02*
G01*
X162323297Y-44068656D01*
X162337094Y-44070210D01*
X162649457Y-44123283D01*
X162663014Y-44126377D01*
X162967469Y-44214089D01*
X162980593Y-44218682D01*
X163273304Y-44339926D01*
X163285826Y-44345955D01*
X163452594Y-44438125D01*
X163563139Y-44499221D01*
X163574900Y-44506611D01*
X163833314Y-44689966D01*
X163844174Y-44698627D01*
X164080418Y-44909749D01*
X164090250Y-44919581D01*
X164301372Y-45155825D01*
X164310035Y-45166687D01*
X164493385Y-45425094D01*
X164500778Y-45436860D01*
X164654040Y-45714166D01*
X164660073Y-45726695D01*
X164781317Y-46019406D01*
X164785910Y-46032530D01*
X164873622Y-46336985D01*
X164876716Y-46350542D01*
X164929787Y-46662894D01*
X164931344Y-46676712D01*
X164949305Y-46996528D01*
X164949500Y-47003481D01*
X164949500Y-96996519D01*
X164949305Y-97003472D01*
X164931344Y-97323287D01*
X164929787Y-97337105D01*
X164876716Y-97649457D01*
X164873622Y-97663014D01*
X164785910Y-97967469D01*
X164781317Y-97980593D01*
X164660073Y-98273304D01*
X164654040Y-98285833D01*
X164500778Y-98563139D01*
X164493380Y-98574913D01*
X164310043Y-98833302D01*
X164301372Y-98844174D01*
X164090250Y-99080418D01*
X164080418Y-99090250D01*
X163844174Y-99301372D01*
X163833302Y-99310043D01*
X163574913Y-99493380D01*
X163563139Y-99500778D01*
X163285833Y-99654040D01*
X163273304Y-99660073D01*
X162980593Y-99781317D01*
X162967469Y-99785910D01*
X162663014Y-99873622D01*
X162649457Y-99876716D01*
X162337105Y-99929787D01*
X162323287Y-99931344D01*
X162003472Y-99949305D01*
X161996519Y-99949500D01*
X103003481Y-99949500D01*
X102996528Y-99949305D01*
X102676712Y-99931344D01*
X102662894Y-99929787D01*
X102350542Y-99876716D01*
X102336985Y-99873622D01*
X102032530Y-99785910D01*
X102019406Y-99781317D01*
X101726695Y-99660073D01*
X101714166Y-99654040D01*
X101436860Y-99500778D01*
X101425094Y-99493385D01*
X101166687Y-99310035D01*
X101155825Y-99301372D01*
X100919581Y-99090250D01*
X100909749Y-99080418D01*
X100698627Y-98844174D01*
X100689966Y-98833314D01*
X100506611Y-98574900D01*
X100499221Y-98563139D01*
X100345959Y-98285833D01*
X100339926Y-98273304D01*
X100218682Y-97980593D01*
X100214089Y-97967469D01*
X100126377Y-97663014D01*
X100123283Y-97649457D01*
X100094127Y-97477858D01*
X100070210Y-97337094D01*
X100068656Y-97323297D01*
X100050695Y-97003472D01*
X100050500Y-96996519D01*
X100050500Y-84092500D01*
X104844356Y-84092500D01*
X104864891Y-84340316D01*
X104864891Y-84340319D01*
X104864892Y-84340321D01*
X104925937Y-84581381D01*
X104970960Y-84684023D01*
X105025825Y-84809104D01*
X105025827Y-84809107D01*
X105161836Y-85017285D01*
X105330256Y-85200238D01*
X105330259Y-85200240D01*
X105526485Y-85352970D01*
X105526487Y-85352971D01*
X105526491Y-85352974D01*
X105745190Y-85471328D01*
X105980386Y-85552071D01*
X106225665Y-85593000D01*
X106474335Y-85593000D01*
X106719614Y-85552071D01*
X106954810Y-85471328D01*
X107173509Y-85352974D01*
X107369744Y-85200238D01*
X107538164Y-85017285D01*
X107674173Y-84809107D01*
X107774063Y-84581381D01*
X107835108Y-84340321D01*
X107855643Y-84092500D01*
X107835108Y-83844679D01*
X107774063Y-83603619D01*
X107674173Y-83375893D01*
X107538164Y-83167715D01*
X107369744Y-82984762D01*
X107347612Y-82967536D01*
X107173514Y-82832029D01*
X107173510Y-82832026D01*
X107173509Y-82832026D01*
X106954810Y-82713672D01*
X106954806Y-82713670D01*
X106954805Y-82713670D01*
X106719615Y-82632929D01*
X106474335Y-82592000D01*
X106225665Y-82592000D01*
X105980384Y-82632929D01*
X105745194Y-82713670D01*
X105526485Y-82832029D01*
X105330259Y-82984759D01*
X105161837Y-83167714D01*
X105025825Y-83375895D01*
X104925938Y-83603617D01*
X104864891Y-83844683D01*
X104844356Y-84092500D01*
X100050500Y-84092500D01*
X100050500Y-80412249D01*
X104849500Y-80412249D01*
X104861132Y-80470730D01*
X104905447Y-80537052D01*
X104971769Y-80581367D01*
X105030251Y-80593000D01*
X105030252Y-80593000D01*
X107669748Y-80593000D01*
X107669749Y-80593000D01*
X107698989Y-80587183D01*
X107728231Y-80581367D01*
X107794552Y-80537052D01*
X107838867Y-80470731D01*
X107850500Y-80412248D01*
X107850500Y-78410000D01*
X115479538Y-78410000D01*
X115499337Y-78611031D01*
X115499338Y-78611033D01*
X115557977Y-78804341D01*
X115653202Y-78982494D01*
X115682331Y-79017988D01*
X115781352Y-79138647D01*
X115795932Y-79150612D01*
X115937506Y-79266798D01*
X116115659Y-79362023D01*
X116308967Y-79420662D01*
X116510000Y-79440462D01*
X116711033Y-79420662D01*
X116904341Y-79362023D01*
X117082494Y-79266798D01*
X117238647Y-79138647D01*
X117366798Y-78982494D01*
X117462023Y-78804341D01*
X117520662Y-78611033D01*
X117540462Y-78410000D01*
X120559538Y-78410000D01*
X120579337Y-78611031D01*
X120579338Y-78611033D01*
X120637977Y-78804341D01*
X120733202Y-78982494D01*
X120762331Y-79017988D01*
X120861352Y-79138647D01*
X120875932Y-79150612D01*
X121017506Y-79266798D01*
X121195659Y-79362023D01*
X121388967Y-79420662D01*
X121590000Y-79440462D01*
X121791033Y-79420662D01*
X121923232Y-79380560D01*
X133672991Y-79380560D01*
X133672992Y-79380561D01*
X133775201Y-79443846D01*
X133973939Y-79520837D01*
X134183439Y-79560000D01*
X134396561Y-79560000D01*
X134606060Y-79520837D01*
X134804795Y-79443847D01*
X134907007Y-79380560D01*
X134290001Y-78763553D01*
X134290000Y-78763553D01*
X133672991Y-79380560D01*
X121923232Y-79380560D01*
X121984341Y-79362023D01*
X122162494Y-79266798D01*
X122318647Y-79138647D01*
X122446798Y-78982494D01*
X122542023Y-78804341D01*
X122600662Y-78611033D01*
X122620462Y-78410000D01*
X130894815Y-78410000D01*
X130913503Y-78587804D01*
X130968749Y-78757835D01*
X131058140Y-78912665D01*
X131177771Y-79045527D01*
X131322403Y-79150610D01*
X131485735Y-79223330D01*
X131660607Y-79260500D01*
X131660609Y-79260500D01*
X131839391Y-79260500D01*
X131839393Y-79260500D01*
X132014264Y-79223330D01*
X132014265Y-79223329D01*
X132014267Y-79223329D01*
X132177593Y-79150612D01*
X132322230Y-79045526D01*
X132441859Y-78912665D01*
X132531250Y-78757835D01*
X132586497Y-78587803D01*
X132605185Y-78410000D01*
X132605185Y-78409999D01*
X133135073Y-78409999D01*
X133154737Y-78622219D01*
X133213062Y-78827208D01*
X133308060Y-79017990D01*
X133316834Y-79029609D01*
X133316835Y-79029609D01*
X133936446Y-78410001D01*
X134643553Y-78410001D01*
X135263163Y-79029610D01*
X135271940Y-79017988D01*
X135366937Y-78827208D01*
X135425262Y-78622219D01*
X135444926Y-78409999D01*
X135425262Y-78197780D01*
X135366937Y-77992791D01*
X135271941Y-77802011D01*
X135263163Y-77790388D01*
X134643553Y-78410000D01*
X134643553Y-78410001D01*
X133936446Y-78410001D01*
X133936446Y-78410000D01*
X133316835Y-77790389D01*
X133308058Y-77802013D01*
X133213062Y-77992791D01*
X133154737Y-78197780D01*
X133135073Y-78409999D01*
X132605185Y-78409999D01*
X132586497Y-78232197D01*
X132531250Y-78062165D01*
X132531250Y-78062164D01*
X132441859Y-77907334D01*
X132322228Y-77774472D01*
X132177596Y-77669389D01*
X132014264Y-77596669D01*
X131839393Y-77559500D01*
X131839391Y-77559500D01*
X131660609Y-77559500D01*
X131660607Y-77559500D01*
X131485735Y-77596669D01*
X131322408Y-77669387D01*
X131177768Y-77774474D01*
X131058140Y-77907334D01*
X130968749Y-78062164D01*
X130913503Y-78232195D01*
X130894815Y-78410000D01*
X122620462Y-78410000D01*
X122600662Y-78208967D01*
X122542023Y-78015659D01*
X122446798Y-77837506D01*
X122382722Y-77759429D01*
X122318647Y-77681352D01*
X122215459Y-77596669D01*
X122162494Y-77553202D01*
X121984341Y-77457977D01*
X121923227Y-77439438D01*
X133672991Y-77439438D01*
X134290000Y-78056446D01*
X134290001Y-78056446D01*
X134907007Y-77439438D01*
X134907006Y-77439437D01*
X134804798Y-77376153D01*
X134606060Y-77299162D01*
X134396561Y-77260000D01*
X134183439Y-77260000D01*
X133973939Y-77299162D01*
X133775203Y-77376153D01*
X133672991Y-77439438D01*
X121923227Y-77439438D01*
X121887687Y-77428657D01*
X121791031Y-77399337D01*
X121590000Y-77379538D01*
X121388968Y-77399337D01*
X121195656Y-77457978D01*
X121017507Y-77553201D01*
X120861352Y-77681352D01*
X120733201Y-77837507D01*
X120637978Y-78015656D01*
X120579337Y-78208968D01*
X120559538Y-78410000D01*
X117540462Y-78410000D01*
X117520662Y-78208967D01*
X117462023Y-78015659D01*
X117366798Y-77837506D01*
X117302722Y-77759429D01*
X117238647Y-77681352D01*
X117135459Y-77596669D01*
X117082494Y-77553202D01*
X116904341Y-77457977D01*
X116807687Y-77428657D01*
X116711031Y-77399337D01*
X116510000Y-77379538D01*
X116308968Y-77399337D01*
X116115656Y-77457978D01*
X115937507Y-77553201D01*
X115781352Y-77681352D01*
X115653201Y-77837507D01*
X115557978Y-78015656D01*
X115499337Y-78208968D01*
X115479538Y-78410000D01*
X107850500Y-78410000D01*
X107850500Y-77772752D01*
X107838867Y-77714269D01*
X107816873Y-77681353D01*
X107794552Y-77647947D01*
X107728230Y-77603632D01*
X107669749Y-77592000D01*
X107669748Y-77592000D01*
X105030252Y-77592000D01*
X105030251Y-77592000D01*
X104971769Y-77603632D01*
X104905447Y-77647947D01*
X104861132Y-77714269D01*
X104849500Y-77772751D01*
X104849500Y-80412249D01*
X100050500Y-80412249D01*
X100050500Y-65710000D01*
X104844356Y-65710000D01*
X104864891Y-65957816D01*
X104864891Y-65957819D01*
X104864892Y-65957821D01*
X104925937Y-66198881D01*
X104970960Y-66301523D01*
X105025825Y-66426604D01*
X105025827Y-66426607D01*
X105161836Y-66634785D01*
X105330256Y-66817738D01*
X105330259Y-66817740D01*
X105526485Y-66970470D01*
X105526487Y-66970471D01*
X105526491Y-66970474D01*
X105745190Y-67088828D01*
X105980386Y-67169571D01*
X106225665Y-67210500D01*
X106474335Y-67210500D01*
X106719614Y-67169571D01*
X106954810Y-67088828D01*
X107173509Y-66970474D01*
X107369744Y-66817738D01*
X107538164Y-66634785D01*
X107674173Y-66426607D01*
X107774063Y-66198881D01*
X107835108Y-65957821D01*
X107855643Y-65710000D01*
X107835108Y-65462179D01*
X107774063Y-65221119D01*
X107674173Y-64993393D01*
X107538164Y-64785215D01*
X107369744Y-64602262D01*
X107347612Y-64585036D01*
X107173514Y-64449529D01*
X107173510Y-64449526D01*
X107173509Y-64449526D01*
X106954810Y-64331172D01*
X106954806Y-64331170D01*
X106954805Y-64331170D01*
X106719615Y-64250429D01*
X106474335Y-64209500D01*
X106225665Y-64209500D01*
X105980384Y-64250429D01*
X105745194Y-64331170D01*
X105526485Y-64449529D01*
X105330259Y-64602259D01*
X105161837Y-64785214D01*
X105025825Y-64993395D01*
X104925938Y-65221117D01*
X104864891Y-65462183D01*
X104844356Y-65710000D01*
X100050500Y-65710000D01*
X100050500Y-62029749D01*
X104849500Y-62029749D01*
X104861132Y-62088230D01*
X104905447Y-62154552D01*
X104971769Y-62198867D01*
X105030251Y-62210500D01*
X105030252Y-62210500D01*
X107669748Y-62210500D01*
X107669749Y-62210500D01*
X107698989Y-62204683D01*
X107728231Y-62198867D01*
X107794552Y-62154552D01*
X107838867Y-62088231D01*
X107850500Y-62029748D01*
X107850500Y-59390252D01*
X107844482Y-59360000D01*
X115479538Y-59360000D01*
X115499337Y-59561031D01*
X115499338Y-59561033D01*
X115557977Y-59754341D01*
X115653202Y-59932494D01*
X115682331Y-59967988D01*
X115781352Y-60088647D01*
X115795932Y-60100612D01*
X115937506Y-60216798D01*
X116115659Y-60312023D01*
X116308967Y-60370662D01*
X116510000Y-60390462D01*
X116711033Y-60370662D01*
X116904341Y-60312023D01*
X117082494Y-60216798D01*
X117238647Y-60088647D01*
X117366798Y-59932494D01*
X117462023Y-59754341D01*
X117520662Y-59561033D01*
X117540462Y-59360000D01*
X120559538Y-59360000D01*
X120579337Y-59561031D01*
X120579338Y-59561033D01*
X120637977Y-59754341D01*
X120733202Y-59932494D01*
X120762331Y-59967988D01*
X120861352Y-60088647D01*
X120875932Y-60100612D01*
X121017506Y-60216798D01*
X121195659Y-60312023D01*
X121388967Y-60370662D01*
X121590000Y-60390462D01*
X121791033Y-60370662D01*
X121923232Y-60330560D01*
X133672991Y-60330560D01*
X133672992Y-60330561D01*
X133775201Y-60393846D01*
X133973939Y-60470837D01*
X134183439Y-60510000D01*
X134396561Y-60510000D01*
X134606060Y-60470837D01*
X134804795Y-60393847D01*
X134907007Y-60330560D01*
X134290001Y-59713553D01*
X134290000Y-59713553D01*
X133672991Y-60330560D01*
X121923232Y-60330560D01*
X121984341Y-60312023D01*
X122162494Y-60216798D01*
X122318647Y-60088647D01*
X122446798Y-59932494D01*
X122542023Y-59754341D01*
X122600662Y-59561033D01*
X122620462Y-59360000D01*
X122620462Y-59359999D01*
X130894815Y-59359999D01*
X130913503Y-59537804D01*
X130968749Y-59707835D01*
X131058140Y-59862665D01*
X131177771Y-59995527D01*
X131322403Y-60100610D01*
X131485735Y-60173330D01*
X131660607Y-60210500D01*
X131660609Y-60210500D01*
X131839391Y-60210500D01*
X131839393Y-60210500D01*
X132014264Y-60173330D01*
X132014265Y-60173329D01*
X132014267Y-60173329D01*
X132177593Y-60100612D01*
X132322230Y-59995526D01*
X132441859Y-59862665D01*
X132531250Y-59707835D01*
X132586497Y-59537803D01*
X132605185Y-59360000D01*
X132605185Y-59359999D01*
X133135073Y-59359999D01*
X133154737Y-59572219D01*
X133213062Y-59777208D01*
X133308060Y-59967990D01*
X133316834Y-59979609D01*
X133316835Y-59979609D01*
X133936446Y-59360001D01*
X134643553Y-59360001D01*
X135263163Y-59979610D01*
X135271940Y-59967988D01*
X135366937Y-59777208D01*
X135425262Y-59572219D01*
X135444926Y-59360000D01*
X135425262Y-59147780D01*
X135366937Y-58942791D01*
X135271941Y-58752011D01*
X135263163Y-58740388D01*
X134643553Y-59360000D01*
X134643553Y-59360001D01*
X133936446Y-59360001D01*
X133936446Y-59360000D01*
X133316835Y-58740389D01*
X133308058Y-58752013D01*
X133213062Y-58942791D01*
X133154737Y-59147780D01*
X133135073Y-59359999D01*
X132605185Y-59359999D01*
X132586497Y-59182197D01*
X132531250Y-59012165D01*
X132531250Y-59012164D01*
X132441859Y-58857334D01*
X132322228Y-58724472D01*
X132177596Y-58619389D01*
X132014264Y-58546669D01*
X131839393Y-58509500D01*
X131839391Y-58509500D01*
X131660609Y-58509500D01*
X131660607Y-58509500D01*
X131485735Y-58546669D01*
X131322408Y-58619387D01*
X131177768Y-58724474D01*
X131058140Y-58857334D01*
X130968749Y-59012164D01*
X130913503Y-59182195D01*
X130894815Y-59359999D01*
X122620462Y-59359999D01*
X122600662Y-59158967D01*
X122542023Y-58965659D01*
X122446798Y-58787506D01*
X122382722Y-58709429D01*
X122318647Y-58631352D01*
X122215459Y-58546669D01*
X122162494Y-58503202D01*
X121984341Y-58407977D01*
X121923226Y-58389438D01*
X133672991Y-58389438D01*
X134290000Y-59006446D01*
X134290001Y-59006446D01*
X134907007Y-58389438D01*
X134907006Y-58389437D01*
X134804798Y-58326153D01*
X134606060Y-58249162D01*
X134396561Y-58210000D01*
X134183439Y-58210000D01*
X133973939Y-58249162D01*
X133775203Y-58326153D01*
X133672991Y-58389438D01*
X121923226Y-58389438D01*
X121887686Y-58378657D01*
X121791031Y-58349337D01*
X121590000Y-58329538D01*
X121388968Y-58349337D01*
X121195656Y-58407978D01*
X121017507Y-58503201D01*
X120861352Y-58631352D01*
X120733201Y-58787507D01*
X120637978Y-58965656D01*
X120579337Y-59158968D01*
X120559538Y-59360000D01*
X117540462Y-59360000D01*
X117520662Y-59158967D01*
X117462023Y-58965659D01*
X117366798Y-58787506D01*
X117302722Y-58709429D01*
X117238647Y-58631352D01*
X117135459Y-58546669D01*
X117082494Y-58503202D01*
X116904341Y-58407977D01*
X116807686Y-58378657D01*
X116711031Y-58349337D01*
X116510000Y-58329538D01*
X116308968Y-58349337D01*
X116115656Y-58407978D01*
X115937507Y-58503201D01*
X115781352Y-58631352D01*
X115653201Y-58787507D01*
X115557978Y-58965656D01*
X115499337Y-59158968D01*
X115479538Y-59360000D01*
X107844482Y-59360000D01*
X107838867Y-59331769D01*
X107794552Y-59265447D01*
X107728230Y-59221132D01*
X107669749Y-59209500D01*
X107669748Y-59209500D01*
X105030252Y-59209500D01*
X105030251Y-59209500D01*
X104971769Y-59221132D01*
X104905447Y-59265447D01*
X104861132Y-59331769D01*
X104849500Y-59390251D01*
X104849500Y-62029749D01*
X100050500Y-62029749D01*
X100050500Y-51140000D01*
X159000000Y-51140000D01*
X159000000Y-56140000D01*
X164000000Y-56140000D01*
X164000000Y-51140000D01*
X159000000Y-51140000D01*
X100050500Y-51140000D01*
X100050500Y-49639749D01*
X107319500Y-49639749D01*
X107331132Y-49698230D01*
X107375447Y-49764552D01*
X107441769Y-49808867D01*
X107500251Y-49820500D01*
X107500252Y-49820500D01*
X109239748Y-49820500D01*
X109239749Y-49820500D01*
X109268989Y-49814683D01*
X109298231Y-49808867D01*
X109364552Y-49764552D01*
X109408867Y-49698231D01*
X109420500Y-49639748D01*
X109420500Y-48770000D01*
X109854417Y-48770000D01*
X109874699Y-48975932D01*
X109898228Y-49053496D01*
X109934768Y-49173954D01*
X110032315Y-49356450D01*
X110083609Y-49418952D01*
X110163589Y-49516410D01*
X110243570Y-49582047D01*
X110323550Y-49647685D01*
X110506046Y-49745232D01*
X110704066Y-49805300D01*
X110910000Y-49825583D01*
X111115934Y-49805300D01*
X111313954Y-49745232D01*
X111496450Y-49647685D01*
X111656410Y-49516410D01*
X111787685Y-49356450D01*
X111885232Y-49173954D01*
X111945300Y-48975934D01*
X111965583Y-48770000D01*
X111945300Y-48564066D01*
X111885232Y-48366046D01*
X111787685Y-48183550D01*
X111712898Y-48092421D01*
X111656410Y-48023589D01*
X111506121Y-47900252D01*
X111496450Y-47892315D01*
X111313954Y-47794768D01*
X111214944Y-47764734D01*
X111115932Y-47734699D01*
X110910000Y-47714417D01*
X110704067Y-47734699D01*
X110569736Y-47775448D01*
X110506050Y-47794767D01*
X110506043Y-47794769D01*
X110323551Y-47892314D01*
X110163589Y-48023589D01*
X110032314Y-48183551D01*
X109934769Y-48366043D01*
X109874699Y-48564067D01*
X109854417Y-48770000D01*
X109420500Y-48770000D01*
X109420500Y-47900252D01*
X109408867Y-47841769D01*
X109408866Y-47841768D01*
X109364552Y-47775447D01*
X109298230Y-47731132D01*
X109239749Y-47719500D01*
X109239748Y-47719500D01*
X107500252Y-47719500D01*
X107500251Y-47719500D01*
X107441769Y-47731132D01*
X107375447Y-47775447D01*
X107331132Y-47841769D01*
X107319500Y-47900251D01*
X107319500Y-49639749D01*
X100050500Y-49639749D01*
X100050500Y-47003481D01*
X100050695Y-46996528D01*
X100067713Y-46693491D01*
X100068656Y-46676700D01*
X100070210Y-46662907D01*
X100123283Y-46350537D01*
X100126377Y-46336985D01*
X100157199Y-46230000D01*
X107314417Y-46230000D01*
X107334699Y-46435932D01*
X107358228Y-46513496D01*
X107394768Y-46633954D01*
X107492315Y-46816450D01*
X107511749Y-46840130D01*
X107623589Y-46976410D01*
X107656576Y-47003481D01*
X107783550Y-47107685D01*
X107966046Y-47205232D01*
X108164066Y-47265300D01*
X108370000Y-47285583D01*
X108575934Y-47265300D01*
X108773954Y-47205232D01*
X108956450Y-47107685D01*
X109116410Y-46976410D01*
X109247685Y-46816450D01*
X109345232Y-46633954D01*
X109405300Y-46435934D01*
X109425583Y-46230000D01*
X109854417Y-46230000D01*
X109874699Y-46435932D01*
X109898228Y-46513496D01*
X109934768Y-46633954D01*
X110032315Y-46816450D01*
X110051749Y-46840130D01*
X110163589Y-46976410D01*
X110196576Y-47003481D01*
X110323550Y-47107685D01*
X110506046Y-47205232D01*
X110704066Y-47265300D01*
X110910000Y-47285583D01*
X111115934Y-47265300D01*
X111313954Y-47205232D01*
X111496450Y-47107685D01*
X111656410Y-46976410D01*
X111787685Y-46816450D01*
X111885232Y-46633954D01*
X111905406Y-46567446D01*
X111938709Y-46513497D01*
X111994330Y-46483061D01*
X112057724Y-46484098D01*
X112112319Y-46516337D01*
X112143841Y-46571349D01*
X112176569Y-46693492D01*
X112276399Y-46907576D01*
X112411893Y-47101081D01*
X112578918Y-47268106D01*
X112772423Y-47403600D01*
X112986508Y-47503430D01*
X113108649Y-47536158D01*
X113163661Y-47567679D01*
X113195900Y-47622274D01*
X113196938Y-47685668D01*
X113166503Y-47741288D01*
X113112552Y-47774593D01*
X113046047Y-47794767D01*
X112863551Y-47892314D01*
X112703589Y-48023589D01*
X112572314Y-48183551D01*
X112474769Y-48366043D01*
X112414699Y-48564067D01*
X112394417Y-48770000D01*
X112414699Y-48975932D01*
X112438228Y-49053496D01*
X112474768Y-49173954D01*
X112572315Y-49356450D01*
X112623609Y-49418952D01*
X112703589Y-49516410D01*
X112783570Y-49582047D01*
X112863550Y-49647685D01*
X113046046Y-49745232D01*
X113244066Y-49805300D01*
X113450000Y-49825583D01*
X113655934Y-49805300D01*
X113853954Y-49745232D01*
X114036450Y-49647685D01*
X114196410Y-49516410D01*
X114327685Y-49356450D01*
X114425232Y-49173954D01*
X114485300Y-48975934D01*
X114505583Y-48770000D01*
X114934417Y-48770000D01*
X114954699Y-48975932D01*
X114978228Y-49053496D01*
X115014768Y-49173954D01*
X115112315Y-49356450D01*
X115163609Y-49418952D01*
X115243589Y-49516410D01*
X115323570Y-49582047D01*
X115403550Y-49647685D01*
X115586046Y-49745232D01*
X115784066Y-49805300D01*
X115990000Y-49825583D01*
X116195934Y-49805300D01*
X116393954Y-49745232D01*
X116576450Y-49647685D01*
X116736410Y-49516410D01*
X116867685Y-49356450D01*
X116965232Y-49173954D01*
X116985406Y-49107446D01*
X117018709Y-49053497D01*
X117074330Y-49023061D01*
X117137724Y-49024098D01*
X117192319Y-49056337D01*
X117223841Y-49111349D01*
X117256569Y-49233492D01*
X117356399Y-49447576D01*
X117491893Y-49641081D01*
X117658918Y-49808106D01*
X117852423Y-49943600D01*
X118066507Y-50043430D01*
X118279999Y-50100635D01*
X118280000Y-50100636D01*
X118280000Y-48644000D01*
X118296613Y-48582000D01*
X118342000Y-48536613D01*
X118404000Y-48520000D01*
X118656000Y-48520000D01*
X118718000Y-48536613D01*
X118763387Y-48582000D01*
X118780000Y-48644000D01*
X118780000Y-50100635D01*
X118993492Y-50043430D01*
X119207576Y-49943600D01*
X119401081Y-49808106D01*
X119568106Y-49641081D01*
X119703600Y-49447576D01*
X119803430Y-49233491D01*
X119836158Y-49111350D01*
X119867679Y-49056338D01*
X119922274Y-49024099D01*
X119985668Y-49023061D01*
X120041289Y-49053496D01*
X120074593Y-49107447D01*
X120094767Y-49173953D01*
X120094769Y-49173956D01*
X120192315Y-49356450D01*
X120243609Y-49418952D01*
X120323589Y-49516410D01*
X120403570Y-49582047D01*
X120483550Y-49647685D01*
X120666046Y-49745232D01*
X120864066Y-49805300D01*
X121070000Y-49825583D01*
X121275934Y-49805300D01*
X121473954Y-49745232D01*
X121656450Y-49647685D01*
X121816410Y-49516410D01*
X121947685Y-49356450D01*
X122045232Y-49173954D01*
X122105300Y-48975934D01*
X122125583Y-48770000D01*
X122105300Y-48564066D01*
X122045232Y-48366046D01*
X121947685Y-48183550D01*
X121872898Y-48092421D01*
X121816410Y-48023589D01*
X121666121Y-47900252D01*
X121656450Y-47892315D01*
X121473954Y-47794768D01*
X121374944Y-47764734D01*
X121275932Y-47734699D01*
X121070000Y-47714417D01*
X120864067Y-47734699D01*
X120729736Y-47775448D01*
X120666050Y-47794767D01*
X120666043Y-47794769D01*
X120483551Y-47892314D01*
X120323589Y-48023589D01*
X120192314Y-48183551D01*
X120094767Y-48366047D01*
X120074593Y-48432552D01*
X120041288Y-48486503D01*
X119985668Y-48516938D01*
X119922274Y-48515900D01*
X119867679Y-48483661D01*
X119836158Y-48428649D01*
X119803430Y-48306508D01*
X119703599Y-48092421D01*
X119568109Y-47898921D01*
X119401081Y-47731893D01*
X119207576Y-47596399D01*
X118993492Y-47496569D01*
X118871349Y-47463841D01*
X118816337Y-47432319D01*
X118784098Y-47377724D01*
X118783061Y-47314330D01*
X118813497Y-47258709D01*
X118867446Y-47225406D01*
X118933954Y-47205232D01*
X119116450Y-47107685D01*
X119276410Y-46976410D01*
X119407685Y-46816450D01*
X119505232Y-46633954D01*
X119565300Y-46435934D01*
X119585583Y-46230000D01*
X120014417Y-46230000D01*
X120034699Y-46435932D01*
X120058228Y-46513496D01*
X120094768Y-46633954D01*
X120192315Y-46816450D01*
X120211749Y-46840130D01*
X120323589Y-46976410D01*
X120356576Y-47003481D01*
X120483550Y-47107685D01*
X120666046Y-47205232D01*
X120864066Y-47265300D01*
X121070000Y-47285583D01*
X121275934Y-47265300D01*
X121473954Y-47205232D01*
X121656450Y-47107685D01*
X121816410Y-46976410D01*
X121947685Y-46816450D01*
X122045232Y-46633954D01*
X122065406Y-46567446D01*
X122098709Y-46513497D01*
X122154330Y-46483061D01*
X122217724Y-46484098D01*
X122272319Y-46516337D01*
X122303841Y-46571349D01*
X122336569Y-46693492D01*
X122436399Y-46907576D01*
X122571893Y-47101081D01*
X122738918Y-47268106D01*
X122932423Y-47403600D01*
X123146508Y-47503430D01*
X123268649Y-47536158D01*
X123323661Y-47567679D01*
X123355900Y-47622274D01*
X123356938Y-47685668D01*
X123326503Y-47741288D01*
X123272552Y-47774593D01*
X123206047Y-47794767D01*
X123023551Y-47892314D01*
X122863589Y-48023589D01*
X122732314Y-48183551D01*
X122634769Y-48366043D01*
X122574699Y-48564067D01*
X122554417Y-48770000D01*
X122574699Y-48975932D01*
X122598228Y-49053496D01*
X122634768Y-49173954D01*
X122732315Y-49356450D01*
X122783609Y-49418952D01*
X122863589Y-49516410D01*
X122943570Y-49582047D01*
X123023550Y-49647685D01*
X123206046Y-49745232D01*
X123404066Y-49805300D01*
X123610000Y-49825583D01*
X123815934Y-49805300D01*
X124013954Y-49745232D01*
X124196450Y-49647685D01*
X124356410Y-49516410D01*
X124487685Y-49356450D01*
X124585232Y-49173954D01*
X124645300Y-48975934D01*
X124665583Y-48770000D01*
X125094417Y-48770000D01*
X125114699Y-48975932D01*
X125138228Y-49053496D01*
X125174768Y-49173954D01*
X125272315Y-49356450D01*
X125323609Y-49418952D01*
X125403589Y-49516410D01*
X125483570Y-49582047D01*
X125563550Y-49647685D01*
X125746046Y-49745232D01*
X125944066Y-49805300D01*
X126150000Y-49825583D01*
X126355934Y-49805300D01*
X126553954Y-49745232D01*
X126736450Y-49647685D01*
X126896410Y-49516410D01*
X127027685Y-49356450D01*
X127125232Y-49173954D01*
X127185300Y-48975934D01*
X127205583Y-48770000D01*
X127634417Y-48770000D01*
X127654699Y-48975932D01*
X127678228Y-49053496D01*
X127714768Y-49173954D01*
X127812315Y-49356450D01*
X127863609Y-49418952D01*
X127943589Y-49516410D01*
X128023569Y-49582047D01*
X128103550Y-49647685D01*
X128286046Y-49745232D01*
X128484066Y-49805300D01*
X128690000Y-49825583D01*
X128895934Y-49805300D01*
X129093954Y-49745232D01*
X129276450Y-49647685D01*
X129436410Y-49516410D01*
X129567685Y-49356450D01*
X129665232Y-49173954D01*
X129725300Y-48975934D01*
X129745583Y-48770000D01*
X129725300Y-48564066D01*
X129665232Y-48366046D01*
X129567685Y-48183550D01*
X129492898Y-48092421D01*
X129436410Y-48023589D01*
X129286121Y-47900252D01*
X129276450Y-47892315D01*
X129093954Y-47794768D01*
X128994944Y-47764734D01*
X128895932Y-47734699D01*
X128690000Y-47714417D01*
X128484067Y-47734699D01*
X128349736Y-47775448D01*
X128286050Y-47794767D01*
X128286043Y-47794769D01*
X128103551Y-47892314D01*
X127943589Y-48023589D01*
X127812314Y-48183551D01*
X127714769Y-48366043D01*
X127654699Y-48564067D01*
X127634417Y-48770000D01*
X127205583Y-48770000D01*
X127185300Y-48564066D01*
X127125232Y-48366046D01*
X127027685Y-48183550D01*
X126952898Y-48092421D01*
X126896410Y-48023589D01*
X126746121Y-47900252D01*
X126736450Y-47892315D01*
X126553954Y-47794768D01*
X126454944Y-47764734D01*
X126355932Y-47734699D01*
X126150000Y-47714417D01*
X125944067Y-47734699D01*
X125809736Y-47775448D01*
X125746050Y-47794767D01*
X125746043Y-47794769D01*
X125563551Y-47892314D01*
X125403589Y-48023589D01*
X125272314Y-48183551D01*
X125174769Y-48366043D01*
X125114699Y-48564067D01*
X125094417Y-48770000D01*
X124665583Y-48770000D01*
X124645300Y-48564066D01*
X124585232Y-48366046D01*
X124487685Y-48183550D01*
X124412898Y-48092421D01*
X124356410Y-48023589D01*
X124206121Y-47900252D01*
X124196450Y-47892315D01*
X124101886Y-47841769D01*
X124013953Y-47794767D01*
X123947447Y-47774593D01*
X123893496Y-47741289D01*
X123863061Y-47685668D01*
X123864099Y-47622274D01*
X123896338Y-47567679D01*
X123951350Y-47536158D01*
X124073491Y-47503430D01*
X124287576Y-47403600D01*
X124481081Y-47268106D01*
X124648106Y-47101081D01*
X124783600Y-46907576D01*
X124883430Y-46693491D01*
X124916158Y-46571350D01*
X124947679Y-46516338D01*
X125002274Y-46484099D01*
X125065668Y-46483061D01*
X125121289Y-46513496D01*
X125154593Y-46567447D01*
X125174767Y-46633953D01*
X125206591Y-46693491D01*
X125272315Y-46816450D01*
X125291749Y-46840130D01*
X125403589Y-46976410D01*
X125436576Y-47003481D01*
X125563550Y-47107685D01*
X125746046Y-47205232D01*
X125944066Y-47265300D01*
X126150000Y-47285583D01*
X126355934Y-47265300D01*
X126553954Y-47205232D01*
X126736450Y-47107685D01*
X126896410Y-46976410D01*
X127027685Y-46816450D01*
X127125232Y-46633954D01*
X127185300Y-46435934D01*
X127205583Y-46230000D01*
X127634417Y-46230000D01*
X127654699Y-46435932D01*
X127678228Y-46513496D01*
X127714768Y-46633954D01*
X127812315Y-46816450D01*
X127831749Y-46840130D01*
X127943589Y-46976410D01*
X127976576Y-47003481D01*
X128103550Y-47107685D01*
X128286046Y-47205232D01*
X128484066Y-47265300D01*
X128690000Y-47285583D01*
X128895934Y-47265300D01*
X129093954Y-47205232D01*
X129276450Y-47107685D01*
X129436410Y-46976410D01*
X129567685Y-46816450D01*
X129665232Y-46633954D01*
X129685406Y-46567446D01*
X129718709Y-46513497D01*
X129774330Y-46483061D01*
X129837724Y-46484098D01*
X129892319Y-46516337D01*
X129923841Y-46571349D01*
X129956569Y-46693492D01*
X130056399Y-46907576D01*
X130191893Y-47101081D01*
X130358918Y-47268106D01*
X130552423Y-47403600D01*
X130766508Y-47503430D01*
X130888649Y-47536158D01*
X130943661Y-47567679D01*
X130975900Y-47622274D01*
X130976938Y-47685668D01*
X130946503Y-47741288D01*
X130892552Y-47774593D01*
X130826047Y-47794767D01*
X130643551Y-47892314D01*
X130483589Y-48023589D01*
X130352314Y-48183551D01*
X130254769Y-48366043D01*
X130194699Y-48564067D01*
X130174417Y-48770000D01*
X130194699Y-48975932D01*
X130218228Y-49053496D01*
X130254768Y-49173954D01*
X130352315Y-49356450D01*
X130403609Y-49418952D01*
X130483589Y-49516410D01*
X130563569Y-49582047D01*
X130643550Y-49647685D01*
X130826046Y-49745232D01*
X131024066Y-49805300D01*
X131230000Y-49825583D01*
X131435934Y-49805300D01*
X131633954Y-49745232D01*
X131816450Y-49647685D01*
X131976410Y-49516410D01*
X132107685Y-49356450D01*
X132205232Y-49173954D01*
X132265300Y-48975934D01*
X132285583Y-48770000D01*
X132714417Y-48770000D01*
X132734699Y-48975932D01*
X132758228Y-49053496D01*
X132794768Y-49173954D01*
X132892315Y-49356450D01*
X132943609Y-49418952D01*
X133023589Y-49516410D01*
X133103569Y-49582047D01*
X133183550Y-49647685D01*
X133366046Y-49745232D01*
X133564066Y-49805300D01*
X133770000Y-49825583D01*
X133975934Y-49805300D01*
X134173954Y-49745232D01*
X134356450Y-49647685D01*
X134516410Y-49516410D01*
X134647685Y-49356450D01*
X134745232Y-49173954D01*
X134805300Y-48975934D01*
X134825583Y-48770000D01*
X135254417Y-48770000D01*
X135274699Y-48975932D01*
X135298228Y-49053496D01*
X135334768Y-49173954D01*
X135432315Y-49356450D01*
X135483609Y-49418952D01*
X135563589Y-49516410D01*
X135643569Y-49582047D01*
X135723550Y-49647685D01*
X135906046Y-49745232D01*
X136104066Y-49805300D01*
X136310000Y-49825583D01*
X136515934Y-49805300D01*
X136713954Y-49745232D01*
X136896450Y-49647685D01*
X137056410Y-49516410D01*
X137187685Y-49356450D01*
X137285232Y-49173954D01*
X137305406Y-49107446D01*
X137338709Y-49053497D01*
X137394330Y-49023061D01*
X137457724Y-49024098D01*
X137512319Y-49056337D01*
X137543841Y-49111349D01*
X137576569Y-49233492D01*
X137676399Y-49447576D01*
X137811893Y-49641081D01*
X137978918Y-49808106D01*
X138172423Y-49943600D01*
X138386507Y-50043430D01*
X138599999Y-50100635D01*
X138600000Y-50100636D01*
X138600000Y-48644000D01*
X138616613Y-48582000D01*
X138662000Y-48536613D01*
X138724000Y-48520000D01*
X138976000Y-48520000D01*
X139038000Y-48536613D01*
X139083387Y-48582000D01*
X139100000Y-48644000D01*
X139100000Y-50100635D01*
X139313492Y-50043430D01*
X139527576Y-49943600D01*
X139721081Y-49808106D01*
X139888106Y-49641081D01*
X140023600Y-49447576D01*
X140123430Y-49233491D01*
X140156158Y-49111350D01*
X140187679Y-49056338D01*
X140242274Y-49024099D01*
X140305668Y-49023061D01*
X140361289Y-49053496D01*
X140394593Y-49107447D01*
X140414767Y-49173953D01*
X140414769Y-49173956D01*
X140512315Y-49356450D01*
X140563609Y-49418952D01*
X140643589Y-49516410D01*
X140723569Y-49582047D01*
X140803550Y-49647685D01*
X140986046Y-49745232D01*
X141184066Y-49805300D01*
X141390000Y-49825583D01*
X141595934Y-49805300D01*
X141793954Y-49745232D01*
X141976450Y-49647685D01*
X142136410Y-49516410D01*
X142267685Y-49356450D01*
X142365232Y-49173954D01*
X142425300Y-48975934D01*
X142445583Y-48770000D01*
X142425300Y-48564066D01*
X142365232Y-48366046D01*
X142267685Y-48183550D01*
X142192898Y-48092421D01*
X142136410Y-48023589D01*
X141986121Y-47900252D01*
X141976450Y-47892315D01*
X141793954Y-47794768D01*
X141694944Y-47764734D01*
X141595932Y-47734699D01*
X141390000Y-47714417D01*
X141184067Y-47734699D01*
X141049736Y-47775448D01*
X140986050Y-47794767D01*
X140986043Y-47794769D01*
X140803551Y-47892314D01*
X140643589Y-48023589D01*
X140512314Y-48183551D01*
X140414767Y-48366047D01*
X140394593Y-48432552D01*
X140361288Y-48486503D01*
X140305668Y-48516938D01*
X140242274Y-48515900D01*
X140187679Y-48483661D01*
X140156158Y-48428649D01*
X140123430Y-48306508D01*
X140023599Y-48092421D01*
X139888109Y-47898921D01*
X139721081Y-47731893D01*
X139527576Y-47596399D01*
X139313492Y-47496569D01*
X139191349Y-47463841D01*
X139136337Y-47432319D01*
X139104098Y-47377724D01*
X139103061Y-47314330D01*
X139133497Y-47258709D01*
X139187446Y-47225406D01*
X139253954Y-47205232D01*
X139436450Y-47107685D01*
X139596410Y-46976410D01*
X139727685Y-46816450D01*
X139825232Y-46633954D01*
X139885300Y-46435934D01*
X139905583Y-46230000D01*
X140334417Y-46230000D01*
X140354699Y-46435932D01*
X140378228Y-46513496D01*
X140414768Y-46633954D01*
X140512315Y-46816450D01*
X140531749Y-46840130D01*
X140643589Y-46976410D01*
X140676576Y-47003481D01*
X140803550Y-47107685D01*
X140986046Y-47205232D01*
X141184066Y-47265300D01*
X141390000Y-47285583D01*
X141595934Y-47265300D01*
X141793954Y-47205232D01*
X141976450Y-47107685D01*
X142136410Y-46976410D01*
X142267685Y-46816450D01*
X142365232Y-46633954D01*
X142385406Y-46567446D01*
X142418709Y-46513497D01*
X142474330Y-46483061D01*
X142537724Y-46484098D01*
X142592319Y-46516337D01*
X142623841Y-46571349D01*
X142656569Y-46693492D01*
X142756399Y-46907576D01*
X142891893Y-47101081D01*
X143058918Y-47268106D01*
X143252423Y-47403600D01*
X143466508Y-47503430D01*
X143588649Y-47536158D01*
X143643661Y-47567679D01*
X143675900Y-47622274D01*
X143676938Y-47685668D01*
X143646503Y-47741288D01*
X143592552Y-47774593D01*
X143526047Y-47794767D01*
X143343551Y-47892314D01*
X143183589Y-48023589D01*
X143052314Y-48183551D01*
X142954769Y-48366043D01*
X142894699Y-48564067D01*
X142874417Y-48770000D01*
X142894699Y-48975932D01*
X142918228Y-49053496D01*
X142954768Y-49173954D01*
X143052315Y-49356450D01*
X143103609Y-49418952D01*
X143183589Y-49516410D01*
X143263569Y-49582047D01*
X143343550Y-49647685D01*
X143526046Y-49745232D01*
X143724066Y-49805300D01*
X143930000Y-49825583D01*
X144135934Y-49805300D01*
X144333954Y-49745232D01*
X144516450Y-49647685D01*
X144676410Y-49516410D01*
X144807685Y-49356450D01*
X144905232Y-49173954D01*
X144965300Y-48975934D01*
X144985583Y-48770000D01*
X145414417Y-48770000D01*
X145434699Y-48975932D01*
X145458228Y-49053496D01*
X145494768Y-49173954D01*
X145592315Y-49356450D01*
X145643609Y-49418952D01*
X145723589Y-49516410D01*
X145803569Y-49582047D01*
X145883550Y-49647685D01*
X146066046Y-49745232D01*
X146264066Y-49805300D01*
X146470000Y-49825583D01*
X146675934Y-49805300D01*
X146873954Y-49745232D01*
X147056450Y-49647685D01*
X147216410Y-49516410D01*
X147347685Y-49356450D01*
X147445232Y-49173954D01*
X147505300Y-48975934D01*
X147525583Y-48770000D01*
X147505300Y-48564066D01*
X147445232Y-48366046D01*
X147347685Y-48183550D01*
X147272898Y-48092421D01*
X147216410Y-48023589D01*
X147066121Y-47900252D01*
X147056450Y-47892315D01*
X146873954Y-47794768D01*
X146774944Y-47764734D01*
X146675932Y-47734699D01*
X146470000Y-47714417D01*
X146264067Y-47734699D01*
X146129736Y-47775448D01*
X146066050Y-47794767D01*
X146066043Y-47794769D01*
X145883551Y-47892314D01*
X145723589Y-48023589D01*
X145592314Y-48183551D01*
X145494769Y-48366043D01*
X145434699Y-48564067D01*
X145414417Y-48770000D01*
X144985583Y-48770000D01*
X144965300Y-48564066D01*
X144905232Y-48366046D01*
X144807685Y-48183550D01*
X144732898Y-48092421D01*
X144676410Y-48023589D01*
X144526121Y-47900252D01*
X144516450Y-47892315D01*
X144421886Y-47841769D01*
X144333953Y-47794767D01*
X144267447Y-47774593D01*
X144213496Y-47741289D01*
X144183061Y-47685668D01*
X144184099Y-47622274D01*
X144216338Y-47567679D01*
X144271350Y-47536158D01*
X144393491Y-47503430D01*
X144607576Y-47403600D01*
X144801081Y-47268106D01*
X144968106Y-47101081D01*
X145103600Y-46907576D01*
X145203430Y-46693491D01*
X145236158Y-46571350D01*
X145267679Y-46516338D01*
X145322274Y-46484099D01*
X145385668Y-46483061D01*
X145441289Y-46513496D01*
X145474593Y-46567447D01*
X145494767Y-46633953D01*
X145526591Y-46693491D01*
X145592315Y-46816450D01*
X145611749Y-46840130D01*
X145723589Y-46976410D01*
X145756576Y-47003481D01*
X145883550Y-47107685D01*
X146066046Y-47205232D01*
X146264066Y-47265300D01*
X146470000Y-47285583D01*
X146675934Y-47265300D01*
X146873954Y-47205232D01*
X147056450Y-47107685D01*
X147216410Y-46976410D01*
X147347685Y-46816450D01*
X147445232Y-46633954D01*
X147465406Y-46567446D01*
X147498709Y-46513497D01*
X147554330Y-46483061D01*
X147617724Y-46484098D01*
X147672319Y-46516337D01*
X147703841Y-46571349D01*
X147736569Y-46693492D01*
X147836399Y-46907576D01*
X147971893Y-47101081D01*
X148138918Y-47268106D01*
X148332423Y-47403600D01*
X148546508Y-47503430D01*
X148668649Y-47536158D01*
X148723661Y-47567679D01*
X148755900Y-47622274D01*
X148756938Y-47685668D01*
X148726503Y-47741288D01*
X148672552Y-47774593D01*
X148606047Y-47794767D01*
X148423551Y-47892314D01*
X148263589Y-48023589D01*
X148132314Y-48183551D01*
X148034769Y-48366043D01*
X147974699Y-48564067D01*
X147954417Y-48770000D01*
X147974699Y-48975932D01*
X147998228Y-49053496D01*
X148034768Y-49173954D01*
X148132315Y-49356450D01*
X148183609Y-49418952D01*
X148263589Y-49516410D01*
X148343569Y-49582047D01*
X148423550Y-49647685D01*
X148606046Y-49745232D01*
X148804066Y-49805300D01*
X149010000Y-49825583D01*
X149215934Y-49805300D01*
X149413954Y-49745232D01*
X149596450Y-49647685D01*
X149756410Y-49516410D01*
X149887685Y-49356450D01*
X149985232Y-49173954D01*
X150045300Y-48975934D01*
X150065583Y-48770000D01*
X150494417Y-48770000D01*
X150514699Y-48975932D01*
X150538228Y-49053496D01*
X150574768Y-49173954D01*
X150672315Y-49356450D01*
X150723609Y-49418952D01*
X150803589Y-49516410D01*
X150883569Y-49582047D01*
X150963550Y-49647685D01*
X151146046Y-49745232D01*
X151344066Y-49805300D01*
X151550000Y-49825583D01*
X151755934Y-49805300D01*
X151953954Y-49745232D01*
X152136450Y-49647685D01*
X152296410Y-49516410D01*
X152427685Y-49356450D01*
X152525232Y-49173954D01*
X152585300Y-48975934D01*
X152605583Y-48770000D01*
X153034417Y-48770000D01*
X153054699Y-48975932D01*
X153078228Y-49053496D01*
X153114768Y-49173954D01*
X153212315Y-49356450D01*
X153263609Y-49418952D01*
X153343589Y-49516410D01*
X153423569Y-49582047D01*
X153503550Y-49647685D01*
X153686046Y-49745232D01*
X153884066Y-49805300D01*
X154090000Y-49825583D01*
X154295934Y-49805300D01*
X154493954Y-49745232D01*
X154676450Y-49647685D01*
X154836410Y-49516410D01*
X154967685Y-49356450D01*
X155065232Y-49173954D01*
X155085406Y-49107446D01*
X155118709Y-49053497D01*
X155174330Y-49023061D01*
X155237724Y-49024098D01*
X155292319Y-49056337D01*
X155323841Y-49111349D01*
X155356569Y-49233492D01*
X155456399Y-49447576D01*
X155591893Y-49641081D01*
X155758918Y-49808106D01*
X155952423Y-49943600D01*
X156166507Y-50043430D01*
X156379999Y-50100635D01*
X156380000Y-50100636D01*
X156380000Y-49020000D01*
X156880000Y-49020000D01*
X156880000Y-50100635D01*
X157093492Y-50043430D01*
X157307576Y-49943600D01*
X157501081Y-49808106D01*
X157668106Y-49641081D01*
X157803600Y-49447576D01*
X157903430Y-49233492D01*
X157960636Y-49020000D01*
X156880000Y-49020000D01*
X156380000Y-49020000D01*
X156380000Y-48644000D01*
X156396613Y-48582000D01*
X156442000Y-48536613D01*
X156504000Y-48520000D01*
X157960636Y-48520000D01*
X157960635Y-48519999D01*
X157903430Y-48306507D01*
X157803599Y-48092421D01*
X157668109Y-47898921D01*
X157501081Y-47731893D01*
X157307576Y-47596399D01*
X157093492Y-47496569D01*
X156971349Y-47463841D01*
X156916337Y-47432319D01*
X156884098Y-47377724D01*
X156883061Y-47314330D01*
X156913497Y-47258709D01*
X156967446Y-47225406D01*
X157033954Y-47205232D01*
X157216450Y-47107685D01*
X157376410Y-46976410D01*
X157507685Y-46816450D01*
X157605232Y-46633954D01*
X157665300Y-46435934D01*
X157685583Y-46230000D01*
X157665300Y-46024066D01*
X157605232Y-45826046D01*
X157507685Y-45643550D01*
X157432898Y-45552421D01*
X157376410Y-45483589D01*
X157224499Y-45358921D01*
X157216450Y-45352315D01*
X157033954Y-45254768D01*
X156934943Y-45224733D01*
X156835932Y-45194699D01*
X156630000Y-45174417D01*
X156424067Y-45194699D01*
X156226043Y-45254769D01*
X156043551Y-45352314D01*
X155883589Y-45483589D01*
X155752314Y-45643551D01*
X155654769Y-45826043D01*
X155594699Y-46024067D01*
X155574417Y-46230000D01*
X155594699Y-46435932D01*
X155618228Y-46513496D01*
X155654768Y-46633954D01*
X155752315Y-46816450D01*
X155771749Y-46840130D01*
X155883589Y-46976410D01*
X155916576Y-47003481D01*
X156043550Y-47107685D01*
X156226046Y-47205232D01*
X156292553Y-47225406D01*
X156346502Y-47258710D01*
X156376938Y-47314330D01*
X156375901Y-47377724D01*
X156343662Y-47432319D01*
X156288650Y-47463841D01*
X156166507Y-47496569D01*
X155952421Y-47596400D01*
X155758921Y-47731890D01*
X155591890Y-47898921D01*
X155456400Y-48092421D01*
X155356569Y-48306507D01*
X155323841Y-48428650D01*
X155292319Y-48483662D01*
X155237724Y-48515901D01*
X155174330Y-48516938D01*
X155118710Y-48486502D01*
X155085406Y-48432552D01*
X155065232Y-48366046D01*
X154967685Y-48183550D01*
X154892898Y-48092421D01*
X154836410Y-48023589D01*
X154686121Y-47900252D01*
X154676450Y-47892315D01*
X154493954Y-47794768D01*
X154394944Y-47764734D01*
X154295932Y-47734699D01*
X154090000Y-47714417D01*
X153884067Y-47734699D01*
X153749736Y-47775448D01*
X153686050Y-47794767D01*
X153686043Y-47794769D01*
X153503551Y-47892314D01*
X153343589Y-48023589D01*
X153212314Y-48183551D01*
X153114769Y-48366043D01*
X153054699Y-48564067D01*
X153034417Y-48770000D01*
X152605583Y-48770000D01*
X152585300Y-48564066D01*
X152525232Y-48366046D01*
X152427685Y-48183550D01*
X152352898Y-48092421D01*
X152296410Y-48023589D01*
X152146121Y-47900252D01*
X152136450Y-47892315D01*
X151953954Y-47794768D01*
X151854944Y-47764734D01*
X151755932Y-47734699D01*
X151550000Y-47714417D01*
X151344067Y-47734699D01*
X151209736Y-47775448D01*
X151146050Y-47794767D01*
X151146043Y-47794769D01*
X150963551Y-47892314D01*
X150803589Y-48023589D01*
X150672314Y-48183551D01*
X150574769Y-48366043D01*
X150514699Y-48564067D01*
X150494417Y-48770000D01*
X150065583Y-48770000D01*
X150045300Y-48564066D01*
X149985232Y-48366046D01*
X149887685Y-48183550D01*
X149812898Y-48092421D01*
X149756410Y-48023589D01*
X149606121Y-47900252D01*
X149596450Y-47892315D01*
X149501886Y-47841769D01*
X149413953Y-47794767D01*
X149347447Y-47774593D01*
X149293496Y-47741289D01*
X149263061Y-47685668D01*
X149264099Y-47622274D01*
X149296338Y-47567679D01*
X149351350Y-47536158D01*
X149473491Y-47503430D01*
X149687576Y-47403600D01*
X149881081Y-47268106D01*
X150048106Y-47101081D01*
X150183600Y-46907576D01*
X150283430Y-46693491D01*
X150316158Y-46571350D01*
X150347679Y-46516338D01*
X150402274Y-46484099D01*
X150465668Y-46483061D01*
X150521289Y-46513496D01*
X150554593Y-46567447D01*
X150574767Y-46633953D01*
X150606591Y-46693491D01*
X150672315Y-46816450D01*
X150691749Y-46840130D01*
X150803589Y-46976410D01*
X150836576Y-47003481D01*
X150963550Y-47107685D01*
X151146046Y-47205232D01*
X151344066Y-47265300D01*
X151550000Y-47285583D01*
X151755934Y-47265300D01*
X151953954Y-47205232D01*
X152136450Y-47107685D01*
X152296410Y-46976410D01*
X152427685Y-46816450D01*
X152525232Y-46633954D01*
X152585300Y-46435934D01*
X152605583Y-46230000D01*
X153034417Y-46230000D01*
X153054699Y-46435932D01*
X153078228Y-46513496D01*
X153114768Y-46633954D01*
X153212315Y-46816450D01*
X153231749Y-46840130D01*
X153343589Y-46976410D01*
X153376576Y-47003481D01*
X153503550Y-47107685D01*
X153686046Y-47205232D01*
X153884066Y-47265300D01*
X154090000Y-47285583D01*
X154295934Y-47265300D01*
X154493954Y-47205232D01*
X154676450Y-47107685D01*
X154836410Y-46976410D01*
X154967685Y-46816450D01*
X155065232Y-46633954D01*
X155125300Y-46435934D01*
X155145583Y-46230000D01*
X155125300Y-46024066D01*
X155065232Y-45826046D01*
X154967685Y-45643550D01*
X154892898Y-45552421D01*
X154836410Y-45483589D01*
X154684499Y-45358921D01*
X154676450Y-45352315D01*
X154493954Y-45254768D01*
X154394943Y-45224733D01*
X154295932Y-45194699D01*
X154090000Y-45174417D01*
X153884067Y-45194699D01*
X153686043Y-45254769D01*
X153503551Y-45352314D01*
X153343589Y-45483589D01*
X153212314Y-45643551D01*
X153114769Y-45826043D01*
X153054699Y-46024067D01*
X153034417Y-46230000D01*
X152605583Y-46230000D01*
X152585300Y-46024066D01*
X152525232Y-45826046D01*
X152427685Y-45643550D01*
X152352898Y-45552421D01*
X152296410Y-45483589D01*
X152144499Y-45358921D01*
X152136450Y-45352315D01*
X151953954Y-45254768D01*
X151854943Y-45224733D01*
X151755932Y-45194699D01*
X151550000Y-45174417D01*
X151344067Y-45194699D01*
X151146043Y-45254769D01*
X150963551Y-45352314D01*
X150803589Y-45483589D01*
X150672314Y-45643551D01*
X150574767Y-45826047D01*
X150554593Y-45892552D01*
X150521288Y-45946503D01*
X150465668Y-45976938D01*
X150402274Y-45975900D01*
X150347679Y-45943661D01*
X150316158Y-45888649D01*
X150283430Y-45766508D01*
X150183599Y-45552421D01*
X150048109Y-45358921D01*
X149881081Y-45191893D01*
X149687576Y-45056399D01*
X149473492Y-44956569D01*
X149260000Y-44899364D01*
X149260000Y-46356000D01*
X149243387Y-46418000D01*
X149198000Y-46463387D01*
X149136000Y-46480000D01*
X148884000Y-46480000D01*
X148822000Y-46463387D01*
X148776613Y-46418000D01*
X148760000Y-46356000D01*
X148760000Y-44899364D01*
X148759999Y-44899364D01*
X148546507Y-44956569D01*
X148332421Y-45056400D01*
X148138921Y-45191890D01*
X147971890Y-45358921D01*
X147836400Y-45552421D01*
X147736569Y-45766507D01*
X147703841Y-45888650D01*
X147672319Y-45943662D01*
X147617724Y-45975901D01*
X147554330Y-45976938D01*
X147498710Y-45946502D01*
X147465406Y-45892552D01*
X147445232Y-45826046D01*
X147347685Y-45643550D01*
X147272898Y-45552421D01*
X147216410Y-45483589D01*
X147064499Y-45358921D01*
X147056450Y-45352315D01*
X146873954Y-45254768D01*
X146774943Y-45224733D01*
X146675932Y-45194699D01*
X146470000Y-45174417D01*
X146264067Y-45194699D01*
X146066043Y-45254769D01*
X145883551Y-45352314D01*
X145723589Y-45483589D01*
X145592314Y-45643551D01*
X145494767Y-45826047D01*
X145474593Y-45892552D01*
X145441288Y-45946503D01*
X145385668Y-45976938D01*
X145322274Y-45975900D01*
X145267679Y-45943661D01*
X145236158Y-45888649D01*
X145203430Y-45766508D01*
X145103599Y-45552421D01*
X144968109Y-45358921D01*
X144801081Y-45191893D01*
X144607576Y-45056399D01*
X144393492Y-44956569D01*
X144180000Y-44899364D01*
X144180000Y-46356000D01*
X144163387Y-46418000D01*
X144118000Y-46463387D01*
X144056000Y-46480000D01*
X143804000Y-46480000D01*
X143742000Y-46463387D01*
X143696613Y-46418000D01*
X143680000Y-46356000D01*
X143680000Y-44899364D01*
X143679999Y-44899364D01*
X143466507Y-44956569D01*
X143252421Y-45056400D01*
X143058921Y-45191890D01*
X142891890Y-45358921D01*
X142756400Y-45552421D01*
X142656569Y-45766507D01*
X142623841Y-45888650D01*
X142592319Y-45943662D01*
X142537724Y-45975901D01*
X142474330Y-45976938D01*
X142418710Y-45946502D01*
X142385406Y-45892552D01*
X142365232Y-45826046D01*
X142267685Y-45643550D01*
X142192898Y-45552421D01*
X142136410Y-45483589D01*
X141984499Y-45358921D01*
X141976450Y-45352315D01*
X141793954Y-45254768D01*
X141694943Y-45224733D01*
X141595932Y-45194699D01*
X141390000Y-45174417D01*
X141184067Y-45194699D01*
X140986043Y-45254769D01*
X140803551Y-45352314D01*
X140643589Y-45483589D01*
X140512314Y-45643551D01*
X140414769Y-45826043D01*
X140354699Y-46024067D01*
X140334417Y-46230000D01*
X139905583Y-46230000D01*
X139885300Y-46024066D01*
X139825232Y-45826046D01*
X139727685Y-45643550D01*
X139652898Y-45552421D01*
X139596410Y-45483589D01*
X139444499Y-45358921D01*
X139436450Y-45352315D01*
X139253954Y-45254768D01*
X139154943Y-45224733D01*
X139055932Y-45194699D01*
X138850000Y-45174417D01*
X138644067Y-45194699D01*
X138446043Y-45254769D01*
X138263551Y-45352314D01*
X138103589Y-45483589D01*
X137972314Y-45643551D01*
X137874769Y-45826043D01*
X137814699Y-46024067D01*
X137794417Y-46230000D01*
X137814699Y-46435932D01*
X137838228Y-46513496D01*
X137874768Y-46633954D01*
X137972315Y-46816450D01*
X137991749Y-46840130D01*
X138103589Y-46976410D01*
X138136576Y-47003481D01*
X138263550Y-47107685D01*
X138446046Y-47205232D01*
X138512553Y-47225406D01*
X138566502Y-47258710D01*
X138596938Y-47314330D01*
X138595901Y-47377724D01*
X138563662Y-47432319D01*
X138508650Y-47463841D01*
X138386507Y-47496569D01*
X138172421Y-47596400D01*
X137978921Y-47731890D01*
X137811890Y-47898921D01*
X137676400Y-48092421D01*
X137576569Y-48306507D01*
X137543841Y-48428650D01*
X137512319Y-48483662D01*
X137457724Y-48515901D01*
X137394330Y-48516938D01*
X137338710Y-48486502D01*
X137305406Y-48432552D01*
X137285232Y-48366046D01*
X137187685Y-48183550D01*
X137112898Y-48092421D01*
X137056410Y-48023589D01*
X136906121Y-47900252D01*
X136896450Y-47892315D01*
X136713954Y-47794768D01*
X136614944Y-47764734D01*
X136515932Y-47734699D01*
X136310000Y-47714417D01*
X136104067Y-47734699D01*
X135969736Y-47775448D01*
X135906050Y-47794767D01*
X135906043Y-47794769D01*
X135723551Y-47892314D01*
X135563589Y-48023589D01*
X135432314Y-48183551D01*
X135334769Y-48366043D01*
X135274699Y-48564067D01*
X135254417Y-48770000D01*
X134825583Y-48770000D01*
X134805300Y-48564066D01*
X134745232Y-48366046D01*
X134647685Y-48183550D01*
X134572898Y-48092421D01*
X134516410Y-48023589D01*
X134366121Y-47900252D01*
X134356450Y-47892315D01*
X134173954Y-47794768D01*
X134074944Y-47764734D01*
X133975932Y-47734699D01*
X133770000Y-47714417D01*
X133564067Y-47734699D01*
X133429736Y-47775448D01*
X133366050Y-47794767D01*
X133366043Y-47794769D01*
X133183551Y-47892314D01*
X133023589Y-48023589D01*
X132892314Y-48183551D01*
X132794769Y-48366043D01*
X132734699Y-48564067D01*
X132714417Y-48770000D01*
X132285583Y-48770000D01*
X132265300Y-48564066D01*
X132205232Y-48366046D01*
X132107685Y-48183550D01*
X132032898Y-48092421D01*
X131976410Y-48023589D01*
X131826121Y-47900252D01*
X131816450Y-47892315D01*
X131721886Y-47841769D01*
X131633953Y-47794767D01*
X131567447Y-47774593D01*
X131513496Y-47741289D01*
X131483061Y-47685668D01*
X131484099Y-47622274D01*
X131516338Y-47567679D01*
X131571350Y-47536158D01*
X131693491Y-47503430D01*
X131907576Y-47403600D01*
X132101081Y-47268106D01*
X132268106Y-47101081D01*
X132403600Y-46907576D01*
X132503430Y-46693491D01*
X132536158Y-46571350D01*
X132567679Y-46516338D01*
X132622274Y-46484099D01*
X132685668Y-46483061D01*
X132741289Y-46513496D01*
X132774593Y-46567447D01*
X132794767Y-46633953D01*
X132826591Y-46693491D01*
X132892315Y-46816450D01*
X132911749Y-46840130D01*
X133023589Y-46976410D01*
X133056576Y-47003481D01*
X133183550Y-47107685D01*
X133366046Y-47205232D01*
X133564066Y-47265300D01*
X133770000Y-47285583D01*
X133975934Y-47265300D01*
X134173954Y-47205232D01*
X134356450Y-47107685D01*
X134516410Y-46976410D01*
X134647685Y-46816450D01*
X134745232Y-46633954D01*
X134805300Y-46435934D01*
X134825583Y-46230000D01*
X135254417Y-46230000D01*
X135274699Y-46435932D01*
X135298228Y-46513496D01*
X135334768Y-46633954D01*
X135432315Y-46816450D01*
X135451749Y-46840130D01*
X135563589Y-46976410D01*
X135596576Y-47003481D01*
X135723550Y-47107685D01*
X135906046Y-47205232D01*
X136104066Y-47265300D01*
X136310000Y-47285583D01*
X136515934Y-47265300D01*
X136713954Y-47205232D01*
X136896450Y-47107685D01*
X137056410Y-46976410D01*
X137187685Y-46816450D01*
X137285232Y-46633954D01*
X137345300Y-46435934D01*
X137365583Y-46230000D01*
X137345300Y-46024066D01*
X137285232Y-45826046D01*
X137187685Y-45643550D01*
X137112898Y-45552421D01*
X137056410Y-45483589D01*
X136904499Y-45358921D01*
X136896450Y-45352315D01*
X136713954Y-45254768D01*
X136614943Y-45224733D01*
X136515932Y-45194699D01*
X136310000Y-45174417D01*
X136104067Y-45194699D01*
X135906043Y-45254769D01*
X135723551Y-45352314D01*
X135563589Y-45483589D01*
X135432314Y-45643551D01*
X135334769Y-45826043D01*
X135274699Y-46024067D01*
X135254417Y-46230000D01*
X134825583Y-46230000D01*
X134805300Y-46024066D01*
X134745232Y-45826046D01*
X134647685Y-45643550D01*
X134572898Y-45552421D01*
X134516410Y-45483589D01*
X134364499Y-45358921D01*
X134356450Y-45352315D01*
X134173954Y-45254768D01*
X134074943Y-45224733D01*
X133975932Y-45194699D01*
X133770000Y-45174417D01*
X133564067Y-45194699D01*
X133366043Y-45254769D01*
X133183551Y-45352314D01*
X133023589Y-45483589D01*
X132892314Y-45643551D01*
X132794767Y-45826047D01*
X132774593Y-45892552D01*
X132741288Y-45946503D01*
X132685668Y-45976938D01*
X132622274Y-45975900D01*
X132567679Y-45943661D01*
X132536158Y-45888649D01*
X132503430Y-45766508D01*
X132403599Y-45552421D01*
X132268109Y-45358921D01*
X132101081Y-45191893D01*
X131907576Y-45056399D01*
X131693492Y-44956569D01*
X131480000Y-44899364D01*
X131480000Y-46356000D01*
X131463387Y-46418000D01*
X131418000Y-46463387D01*
X131356000Y-46480000D01*
X131104000Y-46480000D01*
X131042000Y-46463387D01*
X130996613Y-46418000D01*
X130980000Y-46356000D01*
X130980000Y-44899364D01*
X130979999Y-44899364D01*
X130766507Y-44956569D01*
X130552421Y-45056400D01*
X130358921Y-45191890D01*
X130191890Y-45358921D01*
X130056400Y-45552421D01*
X129956569Y-45766507D01*
X129923841Y-45888650D01*
X129892319Y-45943662D01*
X129837724Y-45975901D01*
X129774330Y-45976938D01*
X129718710Y-45946502D01*
X129685406Y-45892552D01*
X129665232Y-45826046D01*
X129567685Y-45643550D01*
X129492898Y-45552421D01*
X129436410Y-45483589D01*
X129284499Y-45358921D01*
X129276450Y-45352315D01*
X129093954Y-45254768D01*
X128994943Y-45224733D01*
X128895932Y-45194699D01*
X128690000Y-45174417D01*
X128484067Y-45194699D01*
X128286043Y-45254769D01*
X128103551Y-45352314D01*
X127943589Y-45483589D01*
X127812314Y-45643551D01*
X127714769Y-45826043D01*
X127654699Y-46024067D01*
X127634417Y-46230000D01*
X127205583Y-46230000D01*
X127185300Y-46024066D01*
X127125232Y-45826046D01*
X127027685Y-45643550D01*
X126952898Y-45552421D01*
X126896410Y-45483589D01*
X126744499Y-45358921D01*
X126736450Y-45352315D01*
X126553954Y-45254768D01*
X126454943Y-45224733D01*
X126355932Y-45194699D01*
X126150000Y-45174417D01*
X125944067Y-45194699D01*
X125746043Y-45254769D01*
X125563551Y-45352314D01*
X125403589Y-45483589D01*
X125272314Y-45643551D01*
X125174767Y-45826047D01*
X125154593Y-45892552D01*
X125121288Y-45946503D01*
X125065668Y-45976938D01*
X125002274Y-45975900D01*
X124947679Y-45943661D01*
X124916158Y-45888649D01*
X124883430Y-45766508D01*
X124783599Y-45552421D01*
X124648109Y-45358921D01*
X124481081Y-45191893D01*
X124287576Y-45056399D01*
X124073492Y-44956569D01*
X123860000Y-44899364D01*
X123860000Y-46356000D01*
X123843387Y-46418000D01*
X123798000Y-46463387D01*
X123736000Y-46480000D01*
X123484000Y-46480000D01*
X123422000Y-46463387D01*
X123376613Y-46418000D01*
X123360000Y-46356000D01*
X123360000Y-44899364D01*
X123359999Y-44899364D01*
X123146507Y-44956569D01*
X122932421Y-45056400D01*
X122738921Y-45191890D01*
X122571890Y-45358921D01*
X122436400Y-45552421D01*
X122336569Y-45766507D01*
X122303841Y-45888650D01*
X122272319Y-45943662D01*
X122217724Y-45975901D01*
X122154330Y-45976938D01*
X122098710Y-45946502D01*
X122065406Y-45892552D01*
X122045232Y-45826046D01*
X121947685Y-45643550D01*
X121872898Y-45552421D01*
X121816410Y-45483589D01*
X121664499Y-45358921D01*
X121656450Y-45352315D01*
X121473954Y-45254768D01*
X121374943Y-45224733D01*
X121275932Y-45194699D01*
X121070000Y-45174417D01*
X120864067Y-45194699D01*
X120666043Y-45254769D01*
X120483551Y-45352314D01*
X120323589Y-45483589D01*
X120192314Y-45643551D01*
X120094769Y-45826043D01*
X120034699Y-46024067D01*
X120014417Y-46230000D01*
X119585583Y-46230000D01*
X119565300Y-46024066D01*
X119505232Y-45826046D01*
X119407685Y-45643550D01*
X119332898Y-45552421D01*
X119276410Y-45483589D01*
X119124499Y-45358921D01*
X119116450Y-45352315D01*
X118933954Y-45254768D01*
X118834943Y-45224733D01*
X118735932Y-45194699D01*
X118530000Y-45174417D01*
X118324067Y-45194699D01*
X118126043Y-45254769D01*
X117943551Y-45352314D01*
X117783589Y-45483589D01*
X117652314Y-45643551D01*
X117554769Y-45826043D01*
X117494699Y-46024067D01*
X117474417Y-46230000D01*
X117494699Y-46435932D01*
X117518228Y-46513496D01*
X117554768Y-46633954D01*
X117652315Y-46816450D01*
X117671749Y-46840130D01*
X117783589Y-46976410D01*
X117816576Y-47003481D01*
X117943550Y-47107685D01*
X118126046Y-47205232D01*
X118192553Y-47225406D01*
X118246502Y-47258710D01*
X118276938Y-47314330D01*
X118275901Y-47377724D01*
X118243662Y-47432319D01*
X118188650Y-47463841D01*
X118066507Y-47496569D01*
X117852421Y-47596400D01*
X117658921Y-47731890D01*
X117491890Y-47898921D01*
X117356400Y-48092421D01*
X117256569Y-48306507D01*
X117223841Y-48428650D01*
X117192319Y-48483662D01*
X117137724Y-48515901D01*
X117074330Y-48516938D01*
X117018710Y-48486502D01*
X116985406Y-48432552D01*
X116965232Y-48366046D01*
X116867685Y-48183550D01*
X116792898Y-48092421D01*
X116736410Y-48023589D01*
X116586121Y-47900252D01*
X116576450Y-47892315D01*
X116393954Y-47794768D01*
X116294944Y-47764734D01*
X116195932Y-47734699D01*
X115990000Y-47714417D01*
X115784067Y-47734699D01*
X115649736Y-47775448D01*
X115586050Y-47794767D01*
X115586043Y-47794769D01*
X115403551Y-47892314D01*
X115243589Y-48023589D01*
X115112314Y-48183551D01*
X115014769Y-48366043D01*
X114954699Y-48564067D01*
X114934417Y-48770000D01*
X114505583Y-48770000D01*
X114485300Y-48564066D01*
X114425232Y-48366046D01*
X114327685Y-48183550D01*
X114252898Y-48092421D01*
X114196410Y-48023589D01*
X114046121Y-47900252D01*
X114036450Y-47892315D01*
X113941886Y-47841769D01*
X113853953Y-47794767D01*
X113787447Y-47774593D01*
X113733496Y-47741289D01*
X113703061Y-47685668D01*
X113704099Y-47622274D01*
X113736338Y-47567679D01*
X113791350Y-47536158D01*
X113913491Y-47503430D01*
X114127576Y-47403600D01*
X114321081Y-47268106D01*
X114488106Y-47101081D01*
X114623600Y-46907576D01*
X114723430Y-46693491D01*
X114756158Y-46571350D01*
X114787679Y-46516338D01*
X114842274Y-46484099D01*
X114905668Y-46483061D01*
X114961289Y-46513496D01*
X114994593Y-46567447D01*
X115014767Y-46633953D01*
X115046591Y-46693491D01*
X115112315Y-46816450D01*
X115131749Y-46840130D01*
X115243589Y-46976410D01*
X115276576Y-47003481D01*
X115403550Y-47107685D01*
X115586046Y-47205232D01*
X115784066Y-47265300D01*
X115990000Y-47285583D01*
X116195934Y-47265300D01*
X116393954Y-47205232D01*
X116576450Y-47107685D01*
X116736410Y-46976410D01*
X116867685Y-46816450D01*
X116965232Y-46633954D01*
X117025300Y-46435934D01*
X117045583Y-46230000D01*
X117025300Y-46024066D01*
X116965232Y-45826046D01*
X116867685Y-45643550D01*
X116792898Y-45552421D01*
X116736410Y-45483589D01*
X116584499Y-45358921D01*
X116576450Y-45352315D01*
X116393954Y-45254768D01*
X116294943Y-45224733D01*
X116195932Y-45194699D01*
X115990000Y-45174417D01*
X115784067Y-45194699D01*
X115586043Y-45254769D01*
X115403551Y-45352314D01*
X115243589Y-45483589D01*
X115112314Y-45643551D01*
X115014767Y-45826047D01*
X114994593Y-45892552D01*
X114961288Y-45946503D01*
X114905668Y-45976938D01*
X114842274Y-45975900D01*
X114787679Y-45943661D01*
X114756158Y-45888649D01*
X114723430Y-45766508D01*
X114623599Y-45552421D01*
X114488109Y-45358921D01*
X114321081Y-45191893D01*
X114127576Y-45056399D01*
X113913492Y-44956569D01*
X113700000Y-44899364D01*
X113700000Y-46356000D01*
X113683387Y-46418000D01*
X113638000Y-46463387D01*
X113576000Y-46480000D01*
X113324000Y-46480000D01*
X113262000Y-46463387D01*
X113216613Y-46418000D01*
X113200000Y-46356000D01*
X113200000Y-44899364D01*
X113199999Y-44899364D01*
X112986507Y-44956569D01*
X112772421Y-45056400D01*
X112578921Y-45191890D01*
X112411890Y-45358921D01*
X112276400Y-45552421D01*
X112176569Y-45766507D01*
X112143841Y-45888650D01*
X112112319Y-45943662D01*
X112057724Y-45975901D01*
X111994330Y-45976938D01*
X111938710Y-45946502D01*
X111905406Y-45892552D01*
X111885232Y-45826046D01*
X111787685Y-45643550D01*
X111712898Y-45552421D01*
X111656410Y-45483589D01*
X111504499Y-45358921D01*
X111496450Y-45352315D01*
X111313954Y-45254768D01*
X111214943Y-45224733D01*
X111115932Y-45194699D01*
X110910000Y-45174417D01*
X110704067Y-45194699D01*
X110506043Y-45254769D01*
X110323551Y-45352314D01*
X110163589Y-45483589D01*
X110032314Y-45643551D01*
X109934769Y-45826043D01*
X109874699Y-46024067D01*
X109854417Y-46230000D01*
X109425583Y-46230000D01*
X109405300Y-46024066D01*
X109345232Y-45826046D01*
X109247685Y-45643550D01*
X109172898Y-45552421D01*
X109116410Y-45483589D01*
X108964499Y-45358921D01*
X108956450Y-45352315D01*
X108773954Y-45254768D01*
X108674943Y-45224733D01*
X108575932Y-45194699D01*
X108370000Y-45174417D01*
X108164067Y-45194699D01*
X107966043Y-45254769D01*
X107783551Y-45352314D01*
X107623589Y-45483589D01*
X107492314Y-45643551D01*
X107394769Y-45826043D01*
X107334699Y-46024067D01*
X107314417Y-46230000D01*
X100157199Y-46230000D01*
X100214089Y-46032530D01*
X100218682Y-46019406D01*
X100272843Y-45888649D01*
X100339929Y-45726686D01*
X100345951Y-45714180D01*
X100499227Y-45436850D01*
X100506605Y-45425107D01*
X100689972Y-45166676D01*
X100698619Y-45155834D01*
X100909750Y-44919579D01*
X100919581Y-44909749D01*
X100931202Y-44899364D01*
X101155834Y-44698619D01*
X101166676Y-44689972D01*
X101425107Y-44506605D01*
X101436850Y-44499227D01*
X101714180Y-44345951D01*
X101726686Y-44339929D01*
X102019404Y-44218682D01*
X102032526Y-44214090D01*
X102336990Y-44126375D01*
X102350537Y-44123283D01*
X102662907Y-44070210D01*
X102676700Y-44068656D01*
X102996527Y-44050695D01*
X103003481Y-44050500D01*
X103016408Y-44050500D01*
X161983592Y-44050500D01*
X161996519Y-44050500D01*
X162003472Y-44050695D01*
G37*
G04 #@! TD.AperFunction*
M02*
